<svg width="84" height="75" viewBox="0 0 84 75" fill="none" xmlns="http://www.w3.org/2000/svg">
<path fill-rule="evenodd" clip-rule="evenodd" d="M50.8848 19.8434C50.8848 30.8591 41.8706 39.6868 30.6222 39.6868C19.3779 39.6868 10.3596 30.8591 10.3596 19.8434C10.3596 8.82771 19.3779 0 30.6222 0C41.8706 0 50.8848 8.82771 50.8848 19.8434ZM0 62.1557C0 51.9585 14.1064 49.4072 30.6222 49.4072C47.2278 49.4072 61.2444 52.0464 61.2444 62.2515C61.2444 72.4487 47.1381 75 30.6222 75C14.0167 75 0 72.3609 0 62.1557ZM59.0559 20.2031C59.0559 25.8128 57.3354 31.0471 54.3185 35.3951C54.0045 35.8423 54.2818 36.4451 54.8281 36.541C55.5864 36.6647 56.3651 36.7406 57.1601 36.7566C65.0695 36.9602 72.1675 31.9734 74.1285 24.4633C77.0354 13.3198 68.5064 3.31428 57.6412 3.31428C56.463 3.31428 55.3336 3.43406 54.2328 3.65366C54.082 3.6856 53.9189 3.75747 53.8374 3.88523C53.7314 4.04893 53.8088 4.26054 53.9148 4.40028C57.1805 8.88401 59.0559 14.3419 59.0559 20.2031ZM72.1553 44.5929C77.4716 45.611 80.9656 47.6832 82.413 50.7056C83.6401 53.1811 83.6401 56.0558 82.413 58.5312C80.1992 63.2106 73.0563 64.7158 70.2799 65.1031C69.705 65.1829 69.2443 64.7038 69.3055 64.1368C70.7242 51.1688 59.4432 45.0201 56.5241 43.6067C56.4018 43.5389 56.3733 43.443 56.3855 43.3792C56.3936 43.3392 56.4466 43.2753 56.5404 43.2634C62.8557 43.1436 69.6479 43.994 72.1553 44.5929Z" fill="#2A67DC"/>
</svg>
