<svg width="212" height="191" viewBox="0 0 212 191" fill="none" xmlns="http://www.w3.org/2000/svg">
<path fill-rule="evenodd" clip-rule="evenodd" d="M129.451 50.4815C129.451 78.5053 106.519 100.963 77.9028 100.963C49.2973 100.963 26.3548 78.5053 26.3548 50.4815C26.3548 22.4577 49.2973 0 77.9028 0C106.519 0 129.451 22.4577 129.451 50.4815ZM0 158.124C0 132.182 35.8865 125.692 77.9028 125.692C120.147 125.692 155.806 132.406 155.806 158.368C155.806 184.309 119.919 190.8 77.9028 190.8C35.6583 190.8 0 184.086 0 158.124ZM150.238 51.3967C150.238 65.6676 145.861 78.9837 138.186 90.045C137.387 91.1826 138.093 92.7163 139.482 92.9601C141.412 93.275 143.393 93.4679 145.415 93.5086C165.536 94.0266 183.594 81.3402 188.583 62.2344C195.978 33.8856 174.28 8.43153 146.639 8.43153C143.642 8.43153 140.769 8.73624 137.968 9.29489C137.584 9.37615 137.17 9.55898 136.962 9.88401C136.692 10.3005 136.889 10.8388 137.159 11.1943C145.467 22.6009 150.238 36.4858 150.238 51.3967ZM183.563 113.444C197.088 116.034 205.976 121.306 209.658 128.995C212.78 135.292 212.78 142.606 209.658 148.903C204.026 160.807 185.855 164.637 178.792 165.622C177.329 165.825 176.157 164.606 176.313 163.164C179.922 130.173 151.223 114.531 143.797 110.935C143.486 110.763 143.413 110.519 143.444 110.356C143.465 110.255 143.6 110.092 143.839 110.062C159.905 109.757 177.184 111.921 183.563 113.444Z" fill="#2A67DC"/>
</svg>
