<svg width="156" height="161" viewBox="0 0 156 161" fill="none" xmlns="http://www.w3.org/2000/svg">
<g opacity="0.1">
<path d="M77.947 111.244C120.125 111.244 155.727 117.948 155.727 143.869C155.727 169.77 119.897 176.25 77.947 176.25C35.7689 176.25 0.166687 169.546 0.166687 143.625C0.167132 117.725 35.997 111.244 77.947 111.244ZM143.779 95.6387C159.82 95.3344 177.072 97.4944 183.441 99.0156C196.945 101.602 205.82 106.865 209.496 114.542C212.613 120.829 212.613 128.131 209.496 134.419C203.873 146.305 185.73 150.128 178.677 151.111C177.217 151.314 176.047 150.097 176.203 148.657C179.806 115.719 151.153 100.101 143.738 96.5107C143.427 96.3383 143.354 96.0949 143.385 95.9326C143.406 95.8312 143.541 95.6692 143.779 95.6387ZM77.947 -14.25C106.518 -14.25 129.414 8.17253 129.414 36.1523C129.414 64.1321 106.518 86.5547 77.947 86.5547C49.3865 86.5546 26.4802 64.132 26.4802 36.1523C26.4802 8.17259 49.3865 -14.2499 77.947 -14.25ZM146.575 -5.83203C174.172 -5.83203 195.836 19.5824 188.453 47.8867C183.472 66.9624 165.443 79.6285 145.353 79.1113C143.334 79.0708 141.356 78.8788 139.43 78.5645C138.043 78.3211 137.338 76.7891 138.135 75.6533C145.798 64.6096 150.169 51.3147 150.169 37.0664C150.169 22.179 145.405 8.31542 137.11 -3.07324C136.841 -3.42819 136.645 -3.9661 136.914 -4.38184C137.121 -4.70606 137.535 -4.88857 137.918 -4.96973C140.714 -5.52747 143.582 -5.832 146.575 -5.83203Z" fill="#2A67DC"/>
</g>
</svg>
