<svg width="496" height="358" viewBox="0 0 496 358" fill="none" xmlns="http://www.w3.org/2000/svg">
<g opacity="0.1">
<g clip-path="url(#clip0_1_609)">
<path d="M348.49 72.3759V137.241C342.505 129.506 333.061 124.491 322.454 124.491C311.847 124.491 302.403 129.506 296.418 137.241V72.3759C296.418 58.2163 308.056 46.7116 322.454 46.7116C329.67 46.7116 336.154 49.596 340.875 54.2175C345.564 58.8718 348.49 65.2961 348.49 72.3759Z" fill="#AAC2F1"/>
<path d="M348.485 232.388V156.674C348.485 142.5 336.829 131.009 322.449 131.009H322.416C308.037 131.009 296.38 142.5 296.38 156.674V232.388C296.38 246.562 308.037 258.052 322.416 258.052H322.449C336.829 258.052 348.485 246.562 348.485 232.388Z" fill="#2A67DC"/>
<path d="M257.604 25.6639V129.042C251.619 121.307 242.176 116.292 231.568 116.292C220.961 116.292 211.484 121.307 205.499 129.042L205.499 25.6639C205.499 11.5043 217.17 -0.000427246 231.568 -0.000427246C238.751 -0.000427246 245.268 2.88394 249.99 7.53825C254.712 12.1926 257.604 18.5841 257.604 25.6639Z" fill="#2A67DC"/>
<path d="M205.498 185.679V148.51C205.498 134.317 217.169 122.846 231.534 122.846C245.932 122.846 257.57 134.35 257.57 148.51V185.679C257.57 199.871 245.899 211.343 231.534 211.343C217.136 211.343 205.498 199.838 205.498 185.679Z" fill="#AAC2F1"/>
<path d="M166.728 176.832V232.388C166.728 246.581 155.056 258.053 140.658 258.053C133.476 258.053 126.958 255.201 122.237 250.547C117.548 245.892 114.622 239.468 114.622 232.388L114.622 176.864C120.607 184.6 130.051 189.615 140.658 189.615C151.265 189.615 160.742 184.6 166.728 176.832Z" fill="#2A67DC"/>
<path d="M114.622 157.395L114.622 72.4051C114.622 58.2127 126.294 46.7408 140.658 46.7408C155.056 46.7408 166.694 58.2455 166.694 72.4051L166.694 157.395C166.694 171.588 155.023 183.06 140.658 183.06C126.26 183.06 114.622 171.555 114.622 157.395Z" fill="#AAC2F1"/>
</g>
</g>
<rect x="0.117188" y="233.57" width="495.767" height="123.57" fill="#EFF1F7"/>
<rect x="0.117188" y="110" width="495.767" height="123.57" fill="url(#paint0_linear_1_609)"/>
<defs>
<linearGradient id="paint0_linear_1_609" x1="248.001" y1="110" x2="248.001" y2="233.57" gradientUnits="userSpaceOnUse">
<stop stop-color="#EFF1F7" stop-opacity="0"/>
<stop offset="1" stop-color="#EFF1F7"/>
</linearGradient>
<clipPath id="clip0_1_609">
<rect width="233.86" height="258.052" fill="white" transform="translate(114.624)"/>
</clipPath>
</defs>
</svg>
