<svg width="26" height="25" viewBox="0 0 26 25" fill="none" xmlns="http://www.w3.org/2000/svg">
<path d="M3.64864 13.2285C3.71596 13.2282 3.78328 13.2279 3.85061 13.2275C4.03154 13.2267 4.21245 13.227 4.39338 13.2276C4.58384 13.2281 4.77429 13.2276 4.96475 13.2273C5.28437 13.227 5.60399 13.2274 5.92361 13.2283C6.29181 13.2293 6.65999 13.229 7.02818 13.228C7.34582 13.2271 7.66345 13.227 7.98108 13.2275C8.17014 13.2278 8.35918 13.2278 8.54823 13.2272C8.72603 13.2267 8.9038 13.227 9.08159 13.2281C9.177 13.2285 9.27241 13.2279 9.36782 13.2274C10.0479 13.2336 10.6217 13.4524 11.126 13.9116C11.6353 14.4444 11.7667 15.0863 11.7661 15.7977C11.7664 15.8649 11.7667 15.9321 11.7671 15.9993C11.7679 16.1812 11.7681 16.3631 11.7682 16.5451C11.7682 16.659 11.7684 16.7729 11.7687 16.8868C11.7696 17.2851 11.77 17.6833 11.7699 18.0816C11.7698 18.4515 11.7708 18.8214 11.7723 19.1913C11.7735 19.5099 11.774 19.8284 11.774 20.147C11.774 20.3369 11.7742 20.5267 11.7752 20.7165C11.7761 20.8953 11.7761 21.0741 11.7755 21.253C11.7753 21.3489 11.7761 21.4448 11.7769 21.5407C11.773 22.1264 11.645 22.6227 11.2819 23.0873C11.2612 23.1162 11.2405 23.1451 11.2192 23.1748C10.8746 23.6238 10.295 23.8961 9.7418 23.9716C9.50072 23.9936 9.25815 23.9887 9.01627 23.9889C8.9544 23.9892 8.89253 23.9894 8.82879 23.9896C8.65971 23.9903 8.49062 23.9906 8.32153 23.9908C8.21558 23.9909 8.10963 23.9911 8.00368 23.9913C7.67129 23.992 7.33889 23.9924 7.0065 23.9926C6.62449 23.9928 6.24249 23.9936 5.86049 23.995C5.56412 23.996 5.26775 23.9965 4.97138 23.9966C4.79489 23.9966 4.61841 23.9969 4.44192 23.9977C4.27556 23.9985 4.10922 23.9986 3.94287 23.9982C3.85387 23.9981 3.76487 23.9988 3.67588 23.9994C2.90813 23.9958 2.26091 23.832 1.69797 23.2965C1.24308 22.8179 1.01932 22.2491 1.01734 21.5879C1.01707 21.5338 1.0168 21.4797 1.01652 21.424C1.01647 21.3653 1.01642 21.3067 1.01636 21.2462C1.01615 21.1833 1.01591 21.1203 1.01566 21.0574C1.01504 20.8868 1.01474 20.7163 1.01453 20.5457C1.01439 20.4389 1.01419 20.332 1.01398 20.2252C1.01334 19.8901 1.01289 19.555 1.0127 19.2199C1.01249 18.8346 1.01167 18.4494 1.0103 18.0641C1.00928 17.7653 1.00881 17.4666 1.00875 17.1678C1.0087 16.9898 1.00843 16.8119 1.00758 16.6339C1.0068 16.4661 1.00671 16.2984 1.00712 16.1306C1.00717 16.0408 1.00653 15.951 1.00586 15.8612C1.00951 15.0941 1.18284 14.4343 1.718 13.8677C2.27391 13.3571 2.91345 13.224 3.64864 13.2285Z" fill="white"/>
<path d="M16.0164 1.00569C16.0783 1.00544 16.1402 1.0052 16.2039 1.00496C16.3722 1.00433 16.5405 1.0043 16.7088 1.00442C16.8501 1.00447 16.9913 1.00424 17.1325 1.00401C17.4662 1.00349 17.7998 1.00347 18.1334 1.00376C18.4759 1.00404 18.8184 1.00346 19.1608 1.00246C19.4564 1.00162 19.752 1.00135 20.0476 1.0015C20.2234 1.00158 20.3993 1.00147 20.5751 1.00081C20.7407 1.00021 20.9063 1.00031 21.0719 1.00092C21.1604 1.00108 21.2489 1.00056 21.3375 1C22.1044 1.00465 22.751 1.16853 23.3133 1.70348C23.7682 2.18207 23.992 2.75082 23.9939 3.41211C23.9942 3.46619 23.9945 3.52026 23.9948 3.57598C23.9948 3.66398 23.9948 3.66398 23.9949 3.75376C23.9951 3.81671 23.9954 3.87966 23.9956 3.94261C23.9962 4.11315 23.9965 4.2837 23.9968 4.45425C23.9969 4.56109 23.9971 4.66793 23.9973 4.77477C23.9979 5.10988 23.9984 5.44499 23.9986 5.78009C23.9988 6.16535 23.9996 6.5506 24.001 6.93586C24.002 7.23462 24.0025 7.53339 24.0025 7.83216C24.0026 8.01012 24.0029 8.18808 24.0037 8.36604C24.0045 8.53382 24.0046 8.70159 24.0042 8.86937C24.0041 8.95915 24.0047 9.04894 24.0054 9.13872C24.0019 9.88013 23.8428 10.5428 23.3273 11.0957C22.8881 11.5061 22.3748 11.7516 21.771 11.754C21.6844 11.7545 21.6844 11.7545 21.5961 11.7551C21.5325 11.7552 21.469 11.7553 21.4054 11.7554C21.3381 11.7557 21.2708 11.756 21.2036 11.7564C20.983 11.7574 20.7624 11.7578 20.5419 11.7583C20.4657 11.7585 20.3895 11.7587 20.3134 11.7589C19.9554 11.7598 19.5975 11.7605 19.2395 11.7609C18.8274 11.7613 18.4153 11.7626 18.0032 11.7645C17.684 11.7659 17.3647 11.7666 17.0455 11.7667C16.8552 11.7668 16.6649 11.7673 16.4746 11.7684C16.2952 11.7695 16.1159 11.7697 15.9366 11.7693C15.8712 11.7692 15.8058 11.7695 15.7404 11.7702C15.0209 11.7769 14.4213 11.5764 13.8853 11.0883C13.376 10.5556 13.2446 9.91369 13.2452 9.20226C13.2449 9.13506 13.2446 9.06786 13.2442 9.00065C13.2434 8.81874 13.2432 8.63682 13.2431 8.45491C13.243 8.34098 13.2428 8.22705 13.2426 8.11312C13.2417 7.71488 13.2413 7.31663 13.2414 6.91838C13.2415 6.54848 13.2405 6.17859 13.239 5.80869C13.2377 5.49011 13.2372 5.17152 13.2373 4.85293C13.2373 4.66311 13.2371 4.4733 13.2361 4.28348C13.2351 4.10465 13.2351 3.92584 13.2358 3.74701C13.236 3.65109 13.2352 3.55518 13.2344 3.45927C13.2389 2.79047 13.4215 2.21949 13.8687 1.71432C14.4794 1.12293 15.1979 1.00402 16.0164 1.00569Z" fill="white"/>
<path d="M3.8073 1.01102C3.86917 1.01079 3.93103 1.01056 3.99477 1.01032C4.16386 1.0097 4.33294 1.00939 4.50203 1.00919C4.60798 1.00905 4.71393 1.00885 4.81988 1.00864C5.15228 1.008 5.48467 1.00755 5.81707 1.00736C6.19907 1.00715 6.58107 1.00633 6.96308 1.00496C7.25945 1.00394 7.55582 1.00347 7.85219 1.00341C8.02868 1.00336 8.20516 1.00309 8.38165 1.00224C8.548 1.00146 8.71434 1.00137 8.8807 1.00178C8.96969 1.00183 9.05869 1.00119 9.14769 1.00052C9.9134 1.00419 10.5724 1.17864 11.1377 1.71266C11.6483 2.26857 11.7815 2.90811 11.7769 3.6433C11.7772 3.71062 11.7775 3.77794 11.7779 3.84527C11.7788 4.0262 11.7784 4.20711 11.7778 4.38804C11.7774 4.57849 11.7778 4.76895 11.7781 4.95941C11.7785 5.27903 11.778 5.59865 11.7771 5.91827C11.7761 6.28647 11.7764 6.65464 11.7774 7.02284C11.7783 7.34048 11.7784 7.65811 11.7779 7.97574C11.7776 8.1648 11.7776 8.35384 11.7782 8.54289C11.7788 8.72069 11.7784 8.89846 11.7773 9.07625C11.7769 9.17166 11.7775 9.26707 11.7781 9.36248C11.7719 10.0425 11.553 10.6163 11.0938 11.1207C10.561 11.63 9.91915 11.7614 9.20772 11.7608C9.14052 11.7611 9.07332 11.7614 9.00611 11.7617C8.8242 11.7626 8.64228 11.7628 8.46037 11.7628C8.34644 11.7629 8.23251 11.7631 8.11858 11.7634C7.72034 11.7642 7.32209 11.7646 6.92384 11.7645C6.55394 11.7645 6.18405 11.7655 5.81415 11.767C5.49557 11.7682 5.17698 11.7687 4.85839 11.7686C4.66857 11.7686 4.47876 11.7689 4.28894 11.7699C4.1101 11.7708 3.9313 11.7708 3.75246 11.7701C3.65655 11.77 3.56064 11.7707 3.46473 11.7716C2.87906 11.7676 2.38277 11.6397 1.91811 11.2766C1.88924 11.2559 1.86036 11.2352 1.83062 11.2139C1.38172 10.8693 1.1094 10.2898 1.03389 9.73663C1.01168 9.49456 1.01627 9.25099 1.01574 9.0081C1.01544 8.9453 1.01513 8.8825 1.0148 8.81969C1.01382 8.61429 1.01333 8.40888 1.01286 8.20347C1.01267 8.13236 1.01247 8.06125 1.01228 7.99014C1.01138 7.65574 1.01071 7.32133 1.01032 6.98693C1.00986 6.60287 1.00862 6.21882 1.00672 5.83476C1.00529 5.53667 1.0046 5.23859 1.00445 4.9405C1.00434 4.76305 1.00393 4.58562 1.00273 4.40819C0.990212 2.44668 0.990212 2.44668 1.72107 1.66267C2.32483 1.09497 3.01386 1.01174 3.8073 1.01102Z" fill="white"/>
<path d="M21.9174 14.3616C23.0789 15.3141 23.7926 16.5492 23.9718 18.0554C23.9776 18.1328 23.9825 18.2103 23.9865 18.2878C23.9902 18.3522 23.9902 18.3522 23.994 18.4179C24.0381 19.9117 23.4813 21.2339 22.4971 22.3326C21.4887 23.3899 20.1718 23.8961 18.7325 23.993C17.2389 24.0244 15.8921 23.4384 14.8108 22.4286C14.1341 21.7519 13.6478 20.9051 13.3991 19.9817C13.3842 19.9267 13.3692 19.8717 13.3537 19.815C13.0245 18.3751 13.3251 16.884 14.0976 15.6422C14.239 15.425 14.4002 15.2313 14.5755 15.041C14.5981 15.0164 14.6206 14.9919 14.6439 14.9666C15.3012 14.2593 16.0746 13.7813 16.9871 13.4705C17.0198 13.4593 17.0525 13.4481 17.0863 13.4365C18.7214 12.9096 20.5811 13.3193 21.9174 14.3616Z" fill="white"/>
</svg>
