<svg width="307" height="66" viewBox="0 0 307 66" fill="none" xmlns="http://www.w3.org/2000/svg">
<g clip-path="url(#clip0_1_41)">
<path d="M59.097 18.5301V34.9213C57.5845 32.9666 55.1982 31.6994 52.5178 31.6994C49.8374 31.6994 47.451 32.9666 45.9386 34.9213V18.5301C45.9386 14.9521 48.8795 12.0449 52.5178 12.0449C54.3411 12.0449 55.9796 12.7738 57.1728 13.9416C58.3576 15.1177 59.097 16.7411 59.097 18.5301Z" fill="#AAC2F1"/>
<path d="M59.0957 58.9646V39.8319C59.0957 36.2502 56.1501 33.3467 52.5165 33.3467H52.5081C48.8745 33.3467 45.9289 36.2502 45.9289 39.8319V58.9646C45.9289 62.5463 48.8745 65.4498 52.5081 65.4498H52.5165C56.1501 65.4498 59.0957 62.5463 59.0957 58.9646Z" fill="white"/>
<path d="M36.1307 6.72644V32.8496C34.6182 30.8949 32.2319 29.6277 29.5515 29.6277C26.8711 29.6277 24.4763 30.8949 22.9639 32.8496V6.72644C22.9639 3.14838 25.9132 0.241211 29.5515 0.241211C31.3664 0.241211 33.0133 0.970074 34.2065 2.14619C35.3996 3.32232 36.1307 4.93741 36.1307 6.72644Z" fill="white"/>
<path d="M22.9639 47.1613V37.7689C22.9639 34.1826 25.9132 31.2837 29.5431 31.2837C33.1814 31.2837 36.1223 34.1909 36.1223 37.7689V47.1613C36.1223 50.7477 33.173 53.6465 29.5431 53.6465C25.9048 53.6465 22.9639 50.7394 22.9639 47.1613Z" fill="#AAC2F1"/>
<path d="M13.1658 44.9253V58.9642C13.1658 62.5505 10.2165 65.4494 6.57822 65.4494C4.76327 65.4494 3.11637 64.7288 1.92321 63.5527C0.738448 62.3766 -0.000976562 60.7532 -0.000976562 58.9642V44.9336C1.51148 46.8883 3.89781 48.1555 6.57822 48.1555C9.25863 48.1555 11.6534 46.8883 13.1658 44.9253Z" fill="white"/>
<path d="M-0.000869751 40.0141V18.5375C-0.000869751 14.9511 2.94842 12.0522 6.57833 12.0522C10.2166 12.0522 13.1575 14.9594 13.1575 18.5375V40.0141C13.1575 43.6004 10.2082 46.4993 6.57833 46.4993C2.94002 46.4993 -0.000869751 43.5921 -0.000869751 40.0141Z" fill="#AAC2F1"/>
</g>
<path d="M98.2142 52.5585H91.1269V30.3477H83.4199V24.6159H105.921V30.3477H98.2142V52.5585Z" fill="white"/>
<path d="M106.793 52.5585V31.4708H113.473V35.4599H113.609C114.383 32.6133 116.087 31.161 118.566 31.161C119.263 31.161 119.844 31.2578 120.309 31.4321V37.2801C119.728 37.0477 118.934 36.8928 118.121 36.8928C115.235 36.8928 113.667 38.5194 113.667 41.4628V52.5585H106.793Z" fill="white"/>
<path d="M130.591 48.1434C132.683 48.1434 134.503 46.8654 134.503 44.9871V43.5348L130.669 43.7865C128.868 43.922 127.861 44.7547 127.861 45.994C127.861 47.3301 128.965 48.1434 130.591 48.1434ZM128.151 52.8683C124.24 52.8683 121.064 50.2735 121.064 46.4588C121.064 42.5084 124.104 40.3009 129.565 39.9717L134.503 39.6813V38.4807C134.503 36.796 133.302 35.8665 131.501 35.8665C129.642 35.8665 128.461 36.8347 128.268 38.1321H122.09C122.284 33.8139 125.963 30.9673 131.85 30.9673C137.485 30.9673 141.222 33.8526 141.222 38.0934V52.5585H134.542V49.557H134.406C133.264 51.6871 130.688 52.8683 128.151 52.8683Z" fill="white"/>
<path d="M146.238 52.5585V36.5249H143.43V31.6257H146.238V30.4058C146.238 26.2425 148.251 24.3254 153.77 24.3254C154.99 24.3254 156.346 24.461 157.101 24.6159V28.876C156.714 28.8179 156.133 28.7598 155.591 28.7598C153.712 28.7598 152.918 29.4957 152.918 30.7156V31.6257H157.023V36.5249H153.112V52.5585H146.238Z" fill="white"/>
<path d="M161.458 52.5585V36.5249H158.65V31.6257H161.458V30.4058C161.458 26.2425 163.472 24.3254 168.991 24.3254C170.211 24.3254 171.566 24.461 172.321 24.6159V28.876C171.934 28.8179 171.353 28.7598 170.811 28.7598C168.932 28.7598 168.139 29.4957 168.139 30.7156V31.6257H172.244V36.5249H168.332V52.5585H161.458Z" fill="white"/>
<path d="M175.013 52.5585V31.4708H181.868V52.5585H175.013ZM178.44 29.7668C176.446 29.7668 174.916 28.2951 174.916 26.3974C174.916 24.4997 176.446 23.0474 178.44 23.0474C180.435 23.0474 181.945 24.4997 181.945 26.3974C181.945 28.2951 180.435 29.7668 178.44 29.7668Z" fill="white"/>
<path d="M205.221 39.7975H198.908C198.676 37.6093 197.359 36.1957 195.365 36.1957C192.944 36.1957 191.531 38.287 191.531 42.005C191.531 45.7616 192.944 47.853 195.365 47.853C197.379 47.853 198.676 46.5556 198.928 44.3674H205.221C205.047 49.7313 201.232 53.062 195.287 53.062C188.684 53.062 184.579 48.918 184.579 42.005C184.579 35.1694 188.684 30.9673 195.249 30.9673C201.193 30.9673 205.047 34.511 205.221 39.7975Z" fill="white"/>
<path d="M233.938 40.7463C233.938 48.3758 229.213 53.0426 221.255 53.0426C212.638 53.0426 207.448 47.7174 207.448 38.5388C207.448 29.4763 212.638 24.1318 221.08 24.1318C227.858 24.1318 232.931 28.1402 233.648 33.8333H226.619C225.922 31.3546 223.83 29.8442 221.1 29.8442C217.072 29.8442 214.69 33.0006 214.69 38.442C214.69 43.9801 217.324 47.3301 221.41 47.3301C224.624 47.3301 226.87 45.4325 227.064 42.6246L227.083 42.1986H221.971V37.3188H233.938V40.7463Z" fill="white"/>
<path d="M236.998 52.5585V31.4708H243.679V35.4599H243.814C244.589 32.6133 246.293 31.161 248.771 31.161C249.468 31.161 250.049 31.2578 250.514 31.4321V37.2801C249.933 37.0477 249.139 36.8928 248.326 36.8928C245.441 36.8928 243.872 38.5194 243.872 41.4628V52.5585H236.998Z" fill="white"/>
<path d="M260.797 48.1434C262.888 48.1434 264.708 46.8654 264.708 44.9871V43.5348L260.874 43.7865C259.073 43.922 258.066 44.7547 258.066 45.994C258.066 47.3301 259.17 48.1434 260.797 48.1434ZM258.357 52.8683C254.445 52.8683 251.269 50.2735 251.269 46.4588C251.269 42.5084 254.31 40.3009 259.77 39.9717L264.708 39.6813V38.4807C264.708 36.796 263.508 35.8665 261.707 35.8665C259.848 35.8665 258.666 36.8347 258.473 38.1321H252.296C252.489 33.8139 256.168 30.9673 262.055 30.9673C267.69 30.9673 271.428 33.8526 271.428 38.0934V52.5585H264.747V49.557H264.611C263.469 51.6871 260.893 52.8683 258.357 52.8683Z" fill="white"/>
<path d="M274.719 52.5585V31.4708H281.4V35.5373H281.536C282.368 32.8263 284.673 31.0642 287.558 31.0642C290.695 31.0642 292.825 32.6908 293.425 35.5567H293.561C294.374 32.8457 296.93 31.0642 300.067 31.0642C304.192 31.0642 307 33.9688 307 38.2483V52.5585H300.125V39.9911C300.125 37.7836 299.099 36.6411 297.163 36.6411C295.304 36.6411 294.142 37.9772 294.142 40.0492V52.5585H287.577V39.9136C287.577 37.8029 286.532 36.6411 284.653 36.6411C282.794 36.6411 281.594 38.0159 281.594 40.0879V52.5585H274.719Z" fill="white"/>
<defs>
<clipPath id="clip0_1_41">
<rect width="59.0951" height="65.2084" fill="white" transform="translate(0 0.241211)"/>
</clipPath>
</defs>
</svg>
