<svg width="186" height="41" viewBox="0 0 186 41" fill="none" xmlns="http://www.w3.org/2000/svg">
<g clip-path="url(#clip0_1_17)">
<path d="M35.8041 11.9124V21.8432C34.8877 20.6589 33.4419 19.8912 31.818 19.8912C30.194 19.8912 28.7482 20.6589 27.8319 21.8432V11.9124C27.8319 9.7446 29.6137 7.98325 31.818 7.98325C32.9227 7.98325 33.9154 8.42484 34.6383 9.13239C35.3561 9.84496 35.8041 10.8285 35.8041 11.9124Z" fill="#AAC2F1"/>
<path d="M35.8035 36.41V24.8183C35.8035 22.6482 34.0188 20.8891 31.8174 20.8891H31.8123C29.6108 20.8891 27.8262 22.6482 27.8262 24.8183V36.41C27.8262 38.5801 29.6108 40.3392 31.8123 40.3392H31.8174C34.0188 40.3392 35.8035 38.5801 35.8035 36.41Z" fill="#2A67DC"/>
<path d="M21.8904 4.76087V20.5879C20.974 19.4036 19.5282 18.6359 17.9043 18.6359C16.2803 18.6359 14.8294 19.4036 13.9131 20.5879V4.76087C13.9131 2.59306 15.7 0.831709 17.9043 0.831709C19.0039 0.831709 20.0017 1.2733 20.7246 1.98587C21.4475 2.69844 21.8904 3.67696 21.8904 4.76087Z" fill="#2A67DC"/>
<path d="M13.9129 29.2589V23.5684C13.9129 21.3956 15.6998 19.6392 17.899 19.6392C20.1034 19.6392 21.8851 21.4006 21.8851 23.5684V29.2589C21.8851 31.4317 20.0983 33.1881 17.899 33.1881C15.6947 33.1881 13.9129 31.4267 13.9129 29.2589Z" fill="#AAC2F1"/>
<path d="M7.97696 27.9044V36.4101C7.97696 38.5829 6.19009 40.3392 3.98577 40.3392C2.88616 40.3392 1.88836 39.9027 1.16547 39.1901C0.44767 38.4775 -0.000320435 37.494 -0.000320435 36.4101V27.9094C0.916023 29.0937 2.36181 29.8615 3.98577 29.8615C5.60974 29.8615 7.06061 29.0937 7.97696 27.9044Z" fill="#2A67DC"/>
<path d="M-0.000228882 24.9288V11.9169C-0.000228882 9.74405 1.78664 7.98772 3.98586 7.98772C6.19018 7.98772 7.97196 9.74906 7.97196 11.9169V24.9288C7.97196 27.1016 6.18509 28.8579 3.98586 28.8579C1.78155 28.8579 -0.000228882 27.0966 -0.000228882 24.9288Z" fill="#AAC2F1"/>
</g>
<path d="M59.5046 32.5286H55.2106V19.0719H50.5412V15.5992H64.1739V19.0719H59.5046V32.5286Z" fill="#2A67DC"/>
<path d="M64.7019 32.5286V19.7524H68.7494V22.1692H68.8316C69.3009 20.4446 70.3333 19.5647 71.835 19.5647C72.2573 19.5647 72.6093 19.6233 72.8909 19.7289V23.272C72.5389 23.1312 72.0579 23.0374 71.5651 23.0374C69.8171 23.0374 68.8668 24.0229 68.8668 25.8061V32.5286H64.7019Z" fill="#2A67DC"/>
<path d="M79.1206 29.8537C80.3877 29.8537 81.4905 29.0794 81.4905 27.9414V27.0615L79.1675 27.214C78.0765 27.2961 77.4664 27.8006 77.4664 28.5514C77.4664 29.361 78.1351 29.8537 79.1206 29.8537ZM77.6424 32.7163C75.2725 32.7163 73.3484 31.1442 73.3484 28.833C73.3484 26.4397 75.1904 25.1022 78.4988 24.9028L81.4905 24.7268V23.9994C81.4905 22.9787 80.7631 22.4156 79.672 22.4156C78.5457 22.4156 77.8301 23.0022 77.7128 23.7882H73.9702C74.0875 21.172 76.3166 19.4473 79.8832 19.4473C83.2972 19.4473 85.5615 21.1954 85.5615 23.7648V32.5286H81.514V30.7102H81.4318C80.7396 32.0007 79.1793 32.7163 77.6424 32.7163Z" fill="#2A67DC"/>
<path d="M88.6001 32.5286V22.8145H86.899V19.8462H88.6001V19.1071C88.6001 16.5847 89.8203 15.4232 93.1639 15.4232C93.9031 15.4232 94.7243 15.5054 95.1819 15.5992V18.1803C94.9472 18.1451 94.5952 18.1099 94.2667 18.1099C93.1287 18.1099 92.6477 18.5557 92.6477 19.2948V19.8462H95.1349V22.8145H92.765V32.5286H88.6001Z" fill="#2A67DC"/>
<path d="M97.8216 32.5286V22.8145H96.1204V19.8462H97.8216V19.1071C97.8216 16.5847 99.0417 15.4232 102.385 15.4232C103.124 15.4232 103.946 15.5054 104.403 15.5992V18.1803C104.169 18.1451 103.817 18.1099 103.488 18.1099C102.35 18.1099 101.869 18.5557 101.869 19.2948V19.8462H104.356V22.8145H101.986V32.5286H97.8216Z" fill="#2A67DC"/>
<path d="M106.034 32.5286V19.7524H110.187V32.5286H106.034ZM108.111 18.72C106.902 18.72 105.975 17.8283 105.975 16.6786C105.975 15.5288 106.902 14.6489 108.111 14.6489C109.319 14.6489 110.234 15.5288 110.234 16.6786C110.234 17.8283 109.319 18.72 108.111 18.72Z" fill="#2A67DC"/>
<path d="M124.336 24.7972H120.511C120.371 23.4714 119.573 22.615 118.364 22.615C116.898 22.615 116.042 23.8821 116.042 26.1346C116.042 28.4107 116.898 29.6777 118.364 29.6777C119.585 29.6777 120.371 28.8917 120.523 27.566H124.336C124.231 30.8157 121.919 32.8337 118.318 32.8337C114.317 32.8337 111.83 30.323 111.83 26.1346C111.83 21.9932 114.317 19.4473 118.294 19.4473C121.896 19.4473 124.231 21.5943 124.336 24.7972Z" fill="#2A67DC"/>
<path d="M141.735 25.372C141.735 29.9945 138.872 32.8219 134.05 32.8219C128.829 32.8219 125.685 29.5956 125.685 24.0346C125.685 18.544 128.829 15.3059 133.945 15.3059C138.051 15.3059 141.125 17.7345 141.559 21.1837H137.3C136.878 19.682 135.611 18.7669 133.956 18.7669C131.516 18.7669 130.073 20.6792 130.073 23.9759C130.073 27.3313 131.669 29.361 134.144 29.361C136.092 29.361 137.453 28.2112 137.57 26.5101L137.582 26.252H134.484V23.2955H141.735V25.372Z" fill="#2A67DC"/>
<path d="M143.588 32.5286V19.7524H147.636V22.1692H147.718C148.187 20.4446 149.22 19.5647 150.722 19.5647C151.144 19.5647 151.496 19.6233 151.777 19.7289V23.272C151.426 23.1312 150.944 23.0374 150.452 23.0374C148.704 23.0374 147.753 24.0229 147.753 25.8061V32.5286H143.588Z" fill="#2A67DC"/>
<path d="M158.007 29.8537C159.274 29.8537 160.377 29.0794 160.377 27.9414V27.0615L158.054 27.214C156.963 27.2961 156.353 27.8006 156.353 28.5514C156.353 29.361 157.022 29.8537 158.007 29.8537ZM156.529 32.7163C154.159 32.7163 152.235 31.1442 152.235 28.833C152.235 26.4397 154.077 25.1022 157.385 24.9028L160.377 24.7268V23.9994C160.377 22.9787 159.65 22.4156 158.559 22.4156C157.432 22.4156 156.717 23.0022 156.599 23.7882H152.857C152.974 21.172 155.203 19.4473 158.77 19.4473C162.184 19.4473 164.448 21.1954 164.448 23.7648V32.5286H160.401V30.7102H160.318C159.626 32.0007 158.066 32.7163 156.529 32.7163Z" fill="#2A67DC"/>
<path d="M166.443 32.5286V19.7524H170.49V22.2161H170.572C171.077 20.5736 172.473 19.506 174.221 19.506C176.122 19.506 177.412 20.4915 177.776 22.2278H177.858C178.351 20.5854 179.899 19.506 181.8 19.506C184.299 19.506 186 21.2658 186 23.8586V32.5286H181.835V24.9145C181.835 23.577 181.213 22.8848 180.04 22.8848C178.914 22.8848 178.21 23.6944 178.21 24.9497V32.5286H174.233V24.8676C174.233 23.5888 173.599 22.8848 172.461 22.8848C171.335 22.8848 170.607 23.7178 170.607 24.9732V32.5286H166.443Z" fill="#2A67DC"/>
<defs>
<clipPath id="clip0_1_17">
<rect width="35.8036" height="39.5074" fill="white" transform="translate(0 0.831774)"/>
</clipPath>
</defs>
</svg>
