<svg width="680" height="455" viewBox="0 0 680 455" fill="none" xmlns="http://www.w3.org/2000/svg">
<g clip-path="url(#clip0_1_293)">
<path d="M219.29 375.864L213.752 189.558H484.917V374.941L219.699 375.518" fill="#0B0A10"/>
<path d="M472.52 366.645H230.701L225.289 200.162H475.236L472.52 366.645Z" fill="#425B8B"/>
<path d="M184.584 429.481H520.777L484.917 374.941H218.828L184.584 429.481Z" fill="#B7B8FB"/>
<path opacity="0.68" d="M184.584 429.481H520.777L484.917 374.941H218.828L184.584 429.481Z" fill="#0B0A10"/>
<path d="M223.444 382.094H477.313L482.61 388.094H218.367L223.444 382.094Z" stroke="white" stroke-width="0.31" stroke-linecap="round" stroke-linejoin="round"/>
<path d="M214.349 395.488H486.385L492.07 401.907H210.186L214.349 395.488Z" stroke="white" stroke-width="0.33" stroke-linecap="round" stroke-linejoin="round"/>
<path d="M269.257 411.147H422.795L426.005 418.416H266.907L269.257 411.147Z" stroke="white" stroke-width="0.26" stroke-linecap="round" stroke-linejoin="round"/>
<path d="M501.803 179.447C519.989 184.534 535.827 184.712 537.19 179.856C538.554 175 524.908 166.934 506.722 161.847C488.535 156.76 472.698 156.582 471.334 161.438C469.971 166.294 483.616 174.36 501.803 179.447Z" fill="#050004"/>
<path d="M526.367 184.104C526.178 184.104 525.989 184.104 525.8 184.104C519.056 184.03 510.466 182.625 501.614 180.15C492.762 177.674 484.686 174.423 478.876 170.993C474.586 168.455 469.677 164.711 470.642 161.249C472.362 155.072 490.623 156.593 506.921 161.145C523.22 165.697 539.613 173.878 537.893 180.045C536.96 183.37 531.244 184.104 526.367 184.104ZM501.992 178.744C510.729 181.188 519.182 182.572 525.811 182.646C531.967 182.73 535.943 181.597 536.488 179.657C537.558 175.828 525.517 167.857 506.533 162.55C487.539 157.243 473.118 157.809 472.048 161.638C471.502 163.578 474.334 166.609 479.62 169.735C485.326 173.101 493.276 176.3 502.002 178.744H501.992Z" fill="white"/>
<path d="M509.344 135.123C508.641 134.955 508.033 134.473 507.687 133.833L507.403 133.298C508.851 131.011 510.204 128.662 511.284 126.187C512.962 122.358 514.263 118.257 517.053 115.048C518.836 112.992 523.398 110.853 525.338 114.156C525.338 114.167 525.349 114.188 525.359 114.198C521.668 123.607 517.556 131.274 514.682 135.857C512.973 135.784 511.2 135.563 509.344 135.123Z" fill="white"/>
<path d="M514.683 136.581C514.683 136.581 514.662 136.581 514.651 136.581C512.784 136.507 510.991 136.256 509.176 135.826C508.274 135.616 507.498 135.007 507.047 134.168L506.764 133.633C506.638 133.403 506.649 133.119 506.785 132.899C508.516 130.151 509.69 127.991 510.613 125.882C510.959 125.096 511.285 124.299 511.61 123.502C512.889 120.397 514.2 117.188 516.497 114.555C517.829 113.024 520.493 111.503 522.79 111.723C524.154 111.849 525.255 112.562 525.968 113.768C526.073 113.957 526.115 114.251 526.042 114.45C521.647 125.631 517.074 133.413 515.302 136.235C515.165 136.444 514.934 136.581 514.683 136.581ZM508.232 133.319L508.316 133.476C508.568 133.938 509.009 134.284 509.502 134.399C511.085 134.777 512.659 135.007 514.284 135.091C516.151 132.071 520.409 124.697 524.542 114.251C524.07 113.59 523.451 113.233 522.654 113.16C520.902 113.003 518.71 114.219 517.599 115.499C515.459 117.953 514.19 121.058 512.963 124.047C512.627 124.855 512.302 125.662 511.945 126.459C511.033 128.536 509.89 130.665 508.243 133.298L508.232 133.319Z" fill="#050004"/>
<path d="M514.683 135.857C517.546 131.263 521.657 123.606 525.36 114.198C525.402 114.093 525.444 113.989 525.486 113.873C526.503 111.262 528.171 110.527 529.796 110.569C532.188 110.643 534.023 112.331 534.715 114.482C532.209 122.6 527.961 129.228 524.479 134.315C521.521 135.427 518.259 136.004 514.683 135.847V135.857Z" fill="white"/>
<path d="M515.784 136.612C515.407 136.612 515.029 136.612 514.652 136.591C514.389 136.581 514.159 136.434 514.043 136.203C513.917 135.972 513.928 135.7 514.075 135.479C515.816 132.689 520.336 125.012 524.689 113.936L524.815 113.611C526.063 110.412 528.276 109.793 529.828 109.845C532.387 109.929 534.579 111.66 535.419 114.261C535.46 114.408 535.46 114.555 535.419 114.702C532.975 122.61 529.01 128.997 525.088 134.735C525.004 134.86 524.878 134.955 524.741 135.007C521.889 136.077 518.889 136.612 515.795 136.612H515.784ZM529.639 111.303C528.045 111.303 526.902 112.237 526.157 114.146L526.031 114.471C522.119 124.435 518.05 131.703 515.973 135.154C518.742 135.133 521.438 134.651 524.007 133.717C527.783 128.179 531.58 122.023 533.95 114.492C533.258 112.604 531.643 111.356 529.776 111.303C529.734 111.303 529.692 111.303 529.639 111.303Z" fill="#050004"/>
<path d="M524.479 134.315C527.961 129.228 532.209 122.6 534.715 114.481C534.852 114.041 534.988 113.611 535.114 113.17C535.586 111.482 536.54 109.919 538.009 108.975C541.994 106.416 545.592 109.919 545.592 109.919C545.812 110.234 545.969 110.611 546.106 111.01C543.054 117.712 536.079 129.983 524.479 134.326V134.315Z" fill="white"/>
<path d="M524.479 135.049C524.259 135.049 524.049 134.945 523.902 134.766C523.703 134.514 523.692 134.168 523.871 133.906C527.73 128.274 531.621 121.991 534.013 114.261L534.086 114.02C534.191 113.674 534.306 113.317 534.401 112.961C534.967 110.947 536.1 109.311 537.61 108.346C541.145 106.08 544.7 108.031 546.095 109.384C546.42 109.835 546.62 110.234 546.798 110.758C546.861 110.936 546.85 111.125 546.777 111.293C543.61 118.247 536.54 130.581 524.741 134.997C524.657 135.028 524.573 135.039 524.489 135.039L524.479 135.049ZM541.082 108.755C540.253 108.755 539.341 108.975 538.397 109.573C537.191 110.349 536.278 111.692 535.806 113.359C535.701 113.726 535.596 114.093 535.481 114.45L535.408 114.691C533.258 121.666 529.912 127.466 526.461 132.669C536.289 127.875 542.393 117.292 545.309 110.968C545.204 110.706 545.099 110.496 544.973 110.328C544.942 110.318 543.295 108.765 541.071 108.765L541.082 108.755Z" fill="#050004"/>
<path d="M489.804 142.727C490.402 141.028 490.517 139.192 490.15 137.43L486.647 120.911C486.133 118.499 487.035 116.002 488.965 114.471C491.965 112.09 496.38 112.971 498.237 116.327L507.393 133.298L507.676 133.833C508.022 134.472 508.631 134.955 509.333 135.123C511.19 135.563 512.962 135.784 514.672 135.857C518.249 136.004 521.51 135.427 524.468 134.326C536.068 129.983 543.053 117.701 546.095 111.01C546.389 110.349 546.661 109.751 546.882 109.206C547.962 106.615 550.112 104.538 552.85 103.909C555.597 103.269 558.912 103.972 561.188 109.321C565.729 120.009 534.453 152.586 534.453 152.586L526.115 192.201C518.668 204.084 478.361 175.252 478.361 175.252L489.794 142.748L489.804 142.727Z" fill="white"/>
<path d="M519.812 195.788C506.009 195.788 479.148 176.689 477.942 175.829C477.68 175.64 477.575 175.304 477.68 174.989L489.112 142.486C489.668 140.912 489.773 139.213 489.427 137.588L485.934 121.068C485.357 118.362 486.354 115.614 488.514 113.905C490.109 112.636 492.175 112.143 494.178 112.541C496.181 112.94 497.891 114.198 498.877 115.981L508.327 133.497C508.579 133.959 509.019 134.305 509.512 134.42C511.243 134.829 512.942 135.06 514.714 135.133C517.997 135.27 521.207 134.766 524.227 133.644C535.534 129.417 542.372 117.46 545.445 110.706C545.739 110.055 546.001 109.458 546.221 108.923C547.448 105.986 549.871 103.846 552.703 103.196C555.472 102.556 559.332 103.039 561.87 109.027C566.432 119.768 537.736 150.205 535.135 152.932L526.839 192.348C526.818 192.432 526.786 192.516 526.744 192.589C525.758 194.173 524.196 195.18 522.129 195.589C521.406 195.736 520.64 195.799 519.822 195.799L519.812 195.788ZM479.232 174.958C483.06 177.643 510.425 196.407 521.836 194.141C523.472 193.816 524.657 193.082 525.433 191.897L533.751 152.418C533.782 152.282 533.845 152.167 533.939 152.062C534.243 151.737 564.827 119.715 560.527 109.583C558.807 105.524 556.279 103.846 553.028 104.601C550.658 105.147 548.612 106.972 547.564 109.468C547.343 110.013 547.071 110.622 546.767 111.293C543.599 118.247 536.53 130.581 524.731 134.997C521.532 136.193 518.144 136.728 514.651 136.581C512.784 136.507 510.991 136.256 509.176 135.826C508.274 135.616 507.498 135.007 507.047 134.168L497.608 116.663C496.832 115.258 495.479 114.272 493.895 113.957C492.322 113.642 490.685 114.03 489.427 115.037C487.696 116.411 486.91 118.603 487.371 120.764L490.864 137.283C491.262 139.182 491.136 141.143 490.497 142.968L479.243 174.958H479.232Z" fill="#050004"/>
<path d="M534.191 179.353C504.111 184.912 480.386 168.172 473.621 162.718C472.677 161.963 471.282 162.414 470.946 163.568L452.917 225.376C443.058 214.311 428.165 207.588 412.233 207.43L398.032 207.294L301.151 208.112V208.06L298.581 208.123H297.732L297.721 208.144L289.918 208.332C271.658 208.783 255.244 222.471 250.241 242.755C250.041 243.574 249.853 244.402 249.695 245.241L234.005 368.669L282.461 368.837L314.23 369.005L441.558 368.596L441.411 349.392C464.58 351.573 487.696 341.504 500.87 321.912C505.61 314.864 509.03 306.788 510.739 298.019L536.771 182.017C537.117 180.464 535.764 179.059 534.191 179.353Z" fill="#2A67DC" stroke="#020202" stroke-miterlimit="10"/>
<path d="M441.129 272.239C441.066 272.239 441.003 272.239 440.95 272.218C440.562 272.113 440.321 271.714 440.426 271.326L452.508 224.327C452.613 223.939 453.012 223.708 453.4 223.803C453.788 223.908 454.029 224.296 453.924 224.694L441.842 271.693C441.758 272.018 441.464 272.239 441.139 272.239H441.129Z" fill="#020202"/>
<path d="M524.804 203.927C517.169 203.927 504.006 202.48 489.217 194.551C488.861 194.362 488.725 193.921 488.924 193.565C489.113 193.208 489.553 193.072 489.91 193.271C512.638 205.448 531.286 202.06 531.475 202.018C531.863 201.945 532.251 202.197 532.324 202.595C532.398 202.994 532.136 203.371 531.748 203.445C531.674 203.455 529.126 203.917 524.804 203.917V203.927Z" fill="white"/>
<path d="M523.577 195.746C523.577 195.746 523.546 195.746 523.535 195.746C522.539 195.746 521.605 195.337 520.903 194.624C520.2 193.911 519.822 192.967 519.833 191.97C519.833 190.974 520.242 190.04 520.955 189.338C522.434 187.89 524.804 187.922 526.241 189.39C526.944 190.103 527.322 191.047 527.311 192.044C527.311 193.04 526.902 193.974 526.189 194.676C525.486 195.369 524.553 195.746 523.577 195.746ZM523.577 189.726C523 189.726 522.423 189.946 521.983 190.376C521.081 191.257 521.07 192.704 521.951 193.606C522.833 194.508 524.28 194.519 525.182 193.638C526.084 192.757 526.094 191.31 525.213 190.408C524.773 189.956 524.175 189.726 523.588 189.726H523.577Z" fill="white"/>
<path d="M313.527 121.53C310.633 126.082 310.591 131.903 312.898 136.78L318.939 149.565L318.656 149.628C318.656 149.628 324.949 182.657 340.629 173.983C343.409 172.441 345.538 170.458 347.153 168.256C351.296 169.955 355.816 170.909 360.578 170.899C379.835 170.888 395.462 155.512 395.966 136.381C397.937 136.046 399.437 135.291 400.15 133.938C402.626 131.714 404.451 128.725 405.195 125.222C407.062 116.422 401.441 107.779 392.641 105.912C391.896 105.755 391.162 105.671 390.428 105.619C383.38 97.9307 378.765 89.9595 364.805 90.1168C358.722 90.1902 352.817 92.9277 349.356 98.0775C349.324 98.13 349.314 98.2139 349.261 98.2558C348.653 98.7383 341.835 98.7068 340.891 98.8537C334.126 99.9025 325.432 101.623 321.404 107.727C319.621 110.433 318.782 113.611 318.289 116.831C316.359 118.027 314.765 119.652 313.559 121.54L313.527 121.53Z" fill="#050004"/>
<path d="M335.521 176.164C334.189 176.164 332.888 175.87 331.619 175.273C322.022 170.773 318.079 150.614 317.922 149.765L317.785 149.062L317.869 149.041L312.226 137.095C309.741 131.819 310.003 125.715 312.908 121.142C314.125 119.233 315.74 117.586 317.586 116.39C317.995 113.873 318.771 110.338 320.764 107.328C324.697 101.36 332.7 99.3885 340.755 98.1404C341.101 98.0879 341.919 98.0565 343.324 98.0145C344.96 97.9621 347.918 97.8782 348.726 97.6789C352.155 92.571 358.155 89.4769 364.773 89.393C377.128 89.2252 382.446 95.4029 388.088 101.906C388.948 102.902 389.829 103.909 390.742 104.916C391.497 104.979 392.147 105.073 392.766 105.199C397.213 106.143 401.021 108.755 403.496 112.572C405.971 116.38 406.821 120.932 405.877 125.379C405.132 128.882 403.349 131.997 400.695 134.399C399.972 135.679 398.608 136.549 396.647 136.99C395.829 156.446 380.086 171.623 360.557 171.633H360.525C356.015 171.633 351.6 170.794 347.383 169.147C345.642 171.392 343.482 173.238 340.964 174.633C339.108 175.661 337.293 176.175 335.531 176.175L335.521 176.164ZM319.495 150.195C320.281 153.803 324.267 170.217 332.238 173.961C334.755 175.147 337.377 174.937 340.251 173.353C342.747 171.969 344.866 170.112 346.544 167.826L346.88 167.364L347.404 167.584C351.6 169.305 356.015 170.175 360.515 170.175H360.546C379.478 170.165 394.707 155.313 395.2 136.36V135.762L395.808 135.658C397.685 135.332 398.923 134.64 399.468 133.591L399.626 133.382C402.09 131.179 403.758 128.295 404.44 125.064C405.3 120.995 404.534 116.841 402.269 113.359C400.003 109.877 396.521 107.486 392.452 106.626C391.822 106.489 391.151 106.405 390.333 106.342L390.039 106.321L389.84 106.112C388.844 105.021 387.9 103.94 386.966 102.86C381.313 96.3468 376.446 90.7145 364.762 90.8509C358.627 90.9243 353.078 93.7772 349.911 98.4865C349.911 98.4865 349.848 98.6753 349.659 98.8221C349.187 99.1997 347.939 99.3256 343.335 99.4619C342.296 99.4934 341.216 99.5248 340.943 99.5668C333.224 100.762 325.568 102.629 321.949 108.125C320.491 110.338 319.537 113.139 318.949 116.936L318.897 117.271L318.614 117.45C316.831 118.551 315.278 120.103 314.114 121.928C311.471 126.082 311.251 131.651 313.527 136.476L319.956 150.1L319.474 150.195H319.495Z" fill="#050004"/>
<path d="M394.287 129.029C388.214 119.757 387.281 119.317 393.658 129.354C387.207 132.805 379.362 133.56 371.999 130.739C365.843 128.379 361.123 123.921 358.27 118.509C359.214 122.19 359.078 126.187 357.62 130.004C354.893 137.126 348.348 141.647 341.206 142.161L341.248 146.146C341.258 147.468 341.111 148.705 340.839 149.88C337.786 147.205 334.095 145.769 330.235 146.125C329.689 146.178 329.165 146.272 328.641 146.387C328.441 146.44 328.253 146.482 328.053 146.545C327.76 146.629 327.476 146.723 327.193 146.828C326.921 146.922 326.648 147.027 326.375 147.143C325.389 147.573 324.435 148.107 323.554 148.768V148.716C318.97 151.852 316.16 157.264 316.705 163.169C317.575 172.609 326.553 179.342 336.129 177.119C336.402 177.318 336.517 177.402 336.79 177.612L338.804 233.609L381.355 229.98C380.453 219.356 378.534 198.022 378.534 198.001C378.555 197.907 381.135 197.172 384.344 196.291C384.418 196.27 384.491 196.25 384.564 196.229C396.039 193.051 403.454 181.943 402.069 170.123C401.021 161.208 400.014 152.198 399.94 149.901C399.72 142.674 398.283 135.165 394.266 129.039L394.287 129.029Z" fill="white"/>
<path d="M338.814 234.333C338.636 234.333 338.468 234.27 338.332 234.144C338.185 234.008 338.091 233.819 338.091 233.62L336.087 177.979L335.982 177.895C331.368 178.87 326.585 177.863 322.799 175.136C318.918 172.336 316.443 167.994 316.002 163.232C315.457 157.306 318.194 151.516 323.145 148.107C323.218 148.055 323.292 148.024 323.375 148.003C324.204 147.405 325.127 146.891 326.102 146.461C326.386 146.335 326.679 146.23 326.962 146.125C327.267 146.02 327.571 145.915 327.875 145.831C328.064 145.779 328.274 145.727 328.483 145.674C329.144 145.527 329.679 145.433 330.182 145.391C333.696 145.066 337.262 146.178 340.356 148.537C340.471 147.74 340.524 146.943 340.524 146.157L340.482 142.171C340.482 141.783 340.776 141.468 341.153 141.437C348.222 140.923 354.41 136.339 356.938 129.742C358.291 126.197 358.511 122.379 357.567 118.687C357.473 118.331 357.662 117.964 358.008 117.827C358.354 117.691 358.742 117.838 358.91 118.173C361.794 123.648 366.535 127.865 372.251 130.057C378.869 132.595 386.253 132.217 392.609 129.06C388.057 121.876 388.183 121.792 388.896 121.33C389.609 120.879 389.746 120.764 394.895 128.62C398.472 134.074 400.412 141.217 400.685 149.859C400.748 151.747 401.482 158.711 402.814 170.018C404.261 182.31 396.678 193.627 384.785 196.91L384.554 196.973C381.313 197.865 379.918 198.274 379.32 198.473C379.624 201.871 381.271 220.289 382.1 229.907C382.131 230.306 381.837 230.662 381.439 230.694L338.888 234.323C338.888 234.323 338.846 234.323 338.825 234.323L338.814 234.333ZM336.14 176.395C336.297 176.395 336.444 176.447 336.58 176.542L337.241 177.035C337.419 177.16 337.524 177.37 337.535 177.591L339.527 232.823L380.589 229.32C379.719 219.104 378.041 200.392 377.841 198.263L377.82 198.064C377.82 197.991 377.82 197.917 377.831 197.854C377.908 197.484 380.019 196.728 384.166 195.589L384.585 196.229L384.386 195.526C395.588 192.432 402.72 181.775 401.356 170.207C400.003 158.701 399.279 151.873 399.217 149.922C398.965 141.846 397.213 135.144 394.014 129.994C394.014 129.994 393.993 130.004 393.983 130.004C387.092 133.686 378.974 134.21 371.716 131.431C366.808 129.553 362.591 126.26 359.539 122.002C359.717 124.813 359.298 127.623 358.281 130.288C355.638 137.189 349.261 142.066 341.929 142.853L341.961 146.167C341.971 147.457 341.835 148.768 341.541 150.069C341.489 150.321 341.3 150.52 341.059 150.604C340.818 150.688 340.545 150.625 340.356 150.457C337.314 147.782 333.843 146.545 330.308 146.88C329.868 146.922 329.385 146.996 328.808 147.132C328.641 147.174 328.452 147.226 328.273 147.279C327.99 147.363 327.718 147.447 327.455 147.541C327.193 147.635 326.931 147.74 326.679 147.845C325.714 148.265 324.812 148.789 324.015 149.387C323.931 149.45 323.847 149.492 323.743 149.513C319.369 152.638 316.967 157.83 317.45 163.137C317.848 167.48 320.114 171.444 323.648 173.993C327.235 176.584 331.619 177.454 335.982 176.437C336.035 176.426 336.087 176.416 336.15 176.416L336.14 176.395Z" fill="#050004"/>
<path d="M366.671 199.585C361.102 199.616 355.837 198.232 351.201 195.778C358.973 210.556 379.908 211.741 379.908 211.741L378.67 197.183C374.947 198.683 370.909 199.553 366.671 199.574V199.585Z" fill="#050004"/>
<path d="M377.914 149.209C377.747 150.509 376.561 151.432 375.261 151.265C373.96 151.097 373.037 149.912 373.205 148.611C373.373 147.311 374.558 146.388 375.859 146.555C377.159 146.723 378.082 147.908 377.914 149.209Z" fill="#050004"/>
<path d="M398.231 149.219C398.084 150.373 397.025 151.191 395.871 151.044C394.717 150.897 393.899 149.838 394.046 148.684C394.193 147.531 395.252 146.712 396.406 146.859C397.56 147.006 398.378 148.066 398.231 149.219Z" fill="#050004"/>
<path d="M377.632 137.923C376.939 138.395 375.953 138.49 374.999 138.647C374.034 138.773 373.069 138.93 372.241 139.098C371.402 139.266 370.447 139.486 369.514 139.727C368.57 139.948 367.615 140.231 366.808 140.052C366.032 139.895 365.57 139.077 366.21 137.85C366.808 136.654 368.664 135.112 371.433 134.567C374.191 134.032 376.467 134.756 377.432 135.647C378.46 136.56 378.313 137.483 377.642 137.934L377.632 137.923Z" fill="#050004"/>
<path d="M391.874 136.57C392.483 136.99 393.364 137.074 394.213 137.21C395.063 137.325 395.923 137.462 396.668 137.609C397.412 137.755 398.251 137.944 399.09 138.164C399.929 138.364 400.779 138.615 401.492 138.458C402.184 138.311 402.593 137.598 402.027 136.497C401.503 135.437 399.845 134.074 397.391 133.591C394.937 133.12 392.923 133.77 392.063 134.556C391.151 135.364 391.287 136.193 391.874 136.581V136.57Z" fill="#050004"/>
<path d="M382.403 163.505C382.026 163.505 381.701 163.211 381.68 162.823C381.659 162.424 381.963 162.078 382.361 162.047L386.284 161.806C387.647 161.722 388.875 161.019 389.64 159.886C390.406 158.753 390.595 157.358 390.165 156.058L385.382 141.762C385.256 141.384 385.455 140.965 385.843 140.839C386.232 140.713 386.641 140.923 386.766 141.301L391.549 155.596C392.126 157.327 391.874 159.194 390.857 160.704C389.84 162.215 388.203 163.148 386.378 163.263L382.456 163.505C382.456 163.505 382.424 163.505 382.414 163.505H382.403Z" fill="#050004"/>
<path d="M379.813 169.913C379.813 169.913 379.782 169.913 379.772 169.913C370.311 169.357 370.217 163.053 370.217 162.991C370.217 162.592 370.542 162.267 370.94 162.267C371.339 162.267 371.664 162.592 371.664 162.991C371.664 163.2 371.832 167.983 379.845 168.455C380.244 168.476 380.558 168.822 380.527 169.221C380.506 169.609 380.181 169.902 379.803 169.902L379.813 169.913Z" fill="#050004"/>
<path d="M399.625 159.54C395.126 159.54 391.151 156.268 390.417 151.684C390.018 149.219 390.605 146.755 392.074 144.741C393.532 142.717 395.692 141.395 398.157 140.996C403.233 140.178 408.037 143.65 408.845 148.737C409.663 153.813 406.191 158.617 401.104 159.425C400.611 159.509 400.108 159.54 399.625 159.54ZM399.625 142.339C399.216 142.339 398.797 142.37 398.377 142.444C394.087 143.126 391.161 147.174 391.843 151.464C392.535 155.754 396.584 158.68 400.863 157.998C405.153 157.316 408.079 153.268 407.397 148.978C406.778 145.108 403.422 142.349 399.625 142.349V142.339Z" fill="#D0C1FF"/>
<path d="M373.3 161.701C371.076 161.701 368.916 161.008 367.091 159.676C364.794 158.009 363.273 155.544 362.822 152.743C361.899 146.954 365.853 141.489 371.643 140.556C377.443 139.622 382.897 143.587 383.83 149.377C384.281 152.188 383.61 154.999 381.942 157.295C380.275 159.592 377.81 161.113 375.009 161.564C374.443 161.659 373.866 161.701 373.3 161.701ZM373.331 141.877C372.849 141.877 372.366 141.919 371.873 141.993C366.881 142.79 363.462 147.51 364.259 152.513C364.647 154.936 365.958 157.054 367.94 158.502C369.923 159.939 372.356 160.515 374.779 160.127C377.202 159.739 379.331 158.428 380.768 156.446C382.204 154.464 382.781 152.03 382.393 149.607C381.67 145.097 377.757 141.877 373.331 141.877Z" fill="#D0C1FF"/>
<path d="M383.442 150.824C383.211 150.824 382.981 150.709 382.844 150.509C382.614 150.174 382.708 149.723 383.033 149.492C388.057 146.062 391.455 149.167 391.487 149.198C391.78 149.471 391.791 149.932 391.518 150.226C391.245 150.52 390.784 150.53 390.49 150.258C390.364 150.153 387.868 147.95 383.862 150.698C383.736 150.782 383.589 150.824 383.453 150.824H383.442Z" fill="#D0C1FF"/>
<path d="M329.679 166.347C329.48 166.347 329.291 166.263 329.145 166.116C328.872 165.823 328.893 165.361 329.186 165.088L332.323 162.214L327.645 158.481C327.33 158.229 327.278 157.767 327.529 157.453C327.781 157.138 328.243 157.086 328.557 157.337L333.896 161.596C334.064 161.732 334.158 161.931 334.168 162.141C334.168 162.351 334.095 162.561 333.938 162.707L330.183 166.158C330.047 166.284 329.868 166.347 329.69 166.347H329.679Z" fill="#050004"/>
<path d="M385.414 368.774H331.997V203.161L359.057 218.737L385.414 203.161V368.774Z" fill="#C5D5F3"/>
<path d="M385.414 369.508H331.986C331.588 369.508 331.263 369.183 331.263 368.785V203.161C331.263 202.899 331.399 202.658 331.63 202.532C331.86 202.406 332.133 202.406 332.353 202.532L359.046 217.898L385.047 202.532C385.277 202.406 385.55 202.396 385.781 202.532C386.012 202.658 386.148 202.899 386.148 203.161V368.785C386.148 369.183 385.823 369.508 385.424 369.508H385.414ZM332.72 368.05H384.69V204.441L359.424 219.376C359.193 219.513 358.92 219.513 358.69 219.376L332.72 204.42V368.05Z" fill="#050004"/>
<g opacity="0.63">
<path d="M384.921 369.508H331.986C331.588 369.508 331.263 369.183 331.263 368.785V202.931C331.263 202.668 331.399 202.427 331.63 202.301C331.86 202.175 332.133 202.175 332.364 202.301L358.805 217.688L384.554 202.301C384.774 202.165 385.057 202.165 385.288 202.301C385.519 202.427 385.655 202.668 385.655 202.931V368.785C385.655 369.183 385.33 369.508 384.931 369.508H384.921ZM332.72 368.05H384.197V204.21L359.182 219.156C358.952 219.293 358.669 219.293 358.438 219.156L332.72 204.189V368.05Z" fill="#000201"/>
</g>
<path d="M335.489 234.606C335.238 234.606 334.996 234.48 334.86 234.239C334.661 233.893 334.776 233.442 335.122 233.242L358.794 219.523C359.015 219.397 359.298 219.397 359.518 219.523L383.19 233.148C383.536 233.347 383.662 233.798 383.463 234.144C383.264 234.49 382.813 234.616 382.467 234.417L359.162 221.002L335.856 234.511C335.741 234.574 335.615 234.606 335.489 234.606Z" fill="#050004"/>
<path d="M352.564 238.843L343.167 304.91C343.062 305.634 343.167 306.378 343.44 307.039L356.151 337.361C357.316 340.13 360.808 340.162 362.004 337.403L375.188 307.039C375.481 306.368 375.576 305.613 375.481 304.878L366.357 238.549C366.105 236.724 364.678 235.392 363.032 235.455L355.658 235.749C354.106 235.812 352.816 237.102 352.575 238.822L352.564 238.843Z" fill="white"/>
<path d="M359.078 340.183H359.057C357.494 340.183 356.12 339.197 355.47 337.644L342.758 307.322C342.422 306.536 342.317 305.665 342.443 304.805L351.841 238.738C352.134 236.672 353.729 235.12 355.616 235.036L362.99 234.742C365.003 234.69 366.766 236.263 367.059 238.465L376.184 304.794C376.31 305.665 376.184 306.546 375.838 307.343L362.654 337.707C361.983 339.239 360.619 340.193 359.067 340.193L359.078 340.183ZM353.278 238.937L343.88 305.004C343.796 305.602 343.88 306.21 344.1 306.756L356.812 337.078C357.242 338.106 358.081 338.714 359.067 338.725H359.078C360.042 338.725 360.882 338.127 361.322 337.109L374.506 306.745C374.747 306.189 374.831 305.581 374.747 304.973L365.622 238.644C365.423 237.186 364.322 236.147 363.053 236.179L355.679 236.483C354.484 236.525 353.477 237.563 353.288 238.927L353.278 238.937Z" fill="#050004"/>
<path d="M346.019 227.767L352.428 235.906C355.878 240.28 362.496 240.332 366.01 236.011L372.607 227.893L359.151 220.153L346.019 227.767Z" fill="white"/>
<path d="M359.266 239.955H359.193C356.319 239.934 353.645 238.623 351.862 236.357L345.453 228.218C345.327 228.05 345.275 227.841 345.306 227.631C345.348 227.421 345.474 227.243 345.653 227.138L358.784 219.523C359.004 219.397 359.287 219.397 359.508 219.523L372.964 227.264C373.153 227.369 373.279 227.558 373.321 227.767C373.363 227.977 373.3 228.197 373.174 228.355L366.577 236.473C364.773 238.686 362.119 239.955 359.266 239.955ZM347.121 227.977L353.015 235.455C354.526 237.364 356.781 238.476 359.214 238.497C361.637 238.497 363.923 237.448 365.454 235.56L371.506 228.113L359.161 221.013L347.121 227.988V227.977Z" fill="#050004"/>
<path d="M230.911 263.889C216.238 267.382 203.432 266.428 202.32 261.75C201.208 257.072 212.2 250.454 226.873 246.951C241.546 243.458 254.353 244.412 255.464 249.09C256.576 253.768 245.584 260.386 230.911 263.889Z" fill="#000201"/>
<path d="M233.061 264.183C232.411 264.351 231.761 264.519 231.1 264.676C217.832 267.833 202.97 267.949 201.533 261.939C200.107 255.929 213.438 249.342 226.695 246.164C239.963 243.007 254.825 242.892 256.262 248.902C257.625 254.618 245.647 260.869 233.061 264.183ZM225.059 248.251C211.036 251.954 202.289 258.1 203.117 261.572C203.988 265.201 215.535 266.721 230.733 263.103C245.91 259.484 255.548 252.919 254.688 249.279C253.818 245.65 242.27 244.129 227.073 247.748C226.391 247.905 225.72 248.073 225.059 248.251Z" fill="#000201"/>
<path d="M213.354 247.821C208.256 240.605 205.739 231.459 208.561 222.848L213.606 224.044C213.606 224.044 216.689 210.168 216.301 200.34C217.769 196.805 231.362 202.05 231.362 202.05C231.362 202.05 229.6 198.567 228.719 196.826C227.786 194.98 227.513 193.187 227.702 191.131C227.891 189.075 229.747 187.03 231.771 187.439C233.764 187.848 238.326 195.379 239.69 197.12C247.902 207.587 249.538 222.355 249.811 235.246C249.958 242.115 261.17 311.717 260.362 314.958C255.464 334.54 229.118 337.991 219.343 320.328C217.948 316.793 216.962 313.122 216.385 309.399C215.609 304.364 218.724 258.142 218.671 256.59C218.598 254.418 217.36 252.635 215.976 250.978C215.074 249.908 214.119 248.881 213.364 247.821H213.354Z" fill="white"/>
<path d="M244.787 331.645C243.801 331.907 242.784 332.107 241.745 332.243C232.222 333.491 223.422 329.044 218.776 320.643C217.339 317.003 216.332 313.29 215.745 309.504C215.157 305.728 216.699 279.612 217.528 265.578C217.811 260.785 218.031 256.999 218.021 256.611C217.958 254.733 216.961 253.16 215.462 251.377C215.189 251.052 214.916 250.737 214.643 250.412C214.014 249.688 213.364 248.933 212.829 248.167C207.081 240.028 205.298 230.725 207.952 222.639C208.057 222.324 208.382 222.146 208.697 222.219L213.112 223.268C213.7 220.457 215.986 208.804 215.661 200.351C215.661 200.256 215.671 200.172 215.713 200.088C217.119 196.711 226.611 199.627 230.754 201.085L228.834 197.288C227.953 195.547 226.862 193.376 227.072 191.068C227.198 189.694 227.964 188.331 229.065 187.513C229.925 186.873 230.932 186.621 231.897 186.82C233.522 187.146 235.945 190.554 238.714 194.624C239.333 195.536 239.868 196.312 240.183 196.722C248.783 207.682 250.178 223.058 250.43 235.214C250.493 238.266 252.8 254.03 255.233 270.728C258.978 296.372 261.4 313.322 260.96 315.094C258.883 323.391 252.81 329.505 244.787 331.624V331.645ZM213.867 247.454C214.371 248.167 214.969 248.86 215.608 249.604C215.892 249.929 216.164 250.255 216.447 250.58C217.884 252.3 219.216 254.209 219.29 256.579C219.3 256.999 219.143 259.82 218.797 265.662C217.968 279.643 216.437 305.676 217.003 309.315C217.57 313.007 218.556 316.636 219.93 320.108C224.293 327.974 232.599 332.17 241.598 330.995C250.597 329.82 257.551 323.621 259.754 314.811C260.163 313.122 256.754 289.733 254.006 270.927C251.562 254.198 249.255 238.382 249.182 235.256C248.93 223.289 247.566 208.185 239.197 197.508C238.851 197.068 238.326 196.302 237.676 195.337C236.124 193.061 232.904 188.31 231.645 188.058C230.869 187.901 230.229 188.226 229.82 188.53C229.012 189.128 227.576 190.796 227.481 191.813C227.303 193.753 229.149 198.064 229.956 199.658L230.816 201.683C230.932 201.913 232.39 204.556 232.211 204.745C232.033 204.934 231.823 203.896 231.582 203.801C226.002 201.683 218.042 198.609 216.93 200.466C217.276 210.252 214.245 224.033 214.213 224.18C214.182 224.348 214.077 224.484 213.93 224.579C213.783 224.673 213.616 224.694 213.448 224.663L208.98 223.603C206.704 231.176 208.466 239.84 213.857 247.465L213.867 247.454Z" fill="#050004"/>
<path d="M207.302 342.637C208.11 347.86 209.495 353.01 211.456 357.971C225.164 382.745 262.135 377.899 269.016 350.43C269.981 346.56 258.769 275.469 255.245 248.283L251.385 251.125C237.32 261.509 219.658 265.746 202.415 262.883C204.25 265.117 206.212 335.557 207.302 342.626V342.637Z" fill="#2A67DC"/>
<g opacity="0.24">
<path d="M247.148 373.756C245.763 374.123 244.347 374.396 242.889 374.595C229.569 376.336 217.245 370.117 210.743 358.359C208.729 353.272 207.313 348.049 206.495 342.763C206.044 339.878 205.477 326.978 204.817 312.032C203.946 292.313 202.74 265.316 201.744 263.355C201.534 263.092 201.523 262.757 201.691 262.463C201.859 262.169 202.216 262.044 202.551 262.096C219.479 264.907 237.1 260.68 250.913 250.485L254.773 247.643C255.003 247.475 255.307 247.444 255.57 247.549C255.832 247.664 256.021 247.905 256.052 248.188C257.29 257.764 259.461 272.658 261.768 288.433C267.023 324.398 270.421 348.164 269.802 350.64C266.897 362.25 258.402 370.809 247.158 373.777L247.148 373.756ZM203.516 263.879C204.387 268.463 205.163 283.167 206.442 311.948C207.072 326.223 207.67 339.711 208.11 342.511C208.907 347.692 210.292 352.79 212.211 357.667C218.347 368.732 230.041 374.637 242.69 372.98C255.349 371.323 265.125 362.607 268.229 350.231C268.816 347.881 264.023 315.042 260.164 288.653C257.961 273.612 255.884 259.359 254.615 249.751L251.867 251.775C238.044 261.981 220.486 266.354 203.516 263.879Z" fill="#050004"/>
</g>
<path d="M247.148 373.756C245.763 374.123 244.347 374.396 242.889 374.595C229.569 376.336 217.245 370.117 210.743 358.359C208.729 353.272 207.313 348.049 206.495 342.763C206.044 339.878 205.477 326.978 204.817 312.032C203.946 292.313 202.74 265.316 201.744 263.355C201.534 263.092 201.523 262.757 201.691 262.463C201.859 262.169 202.216 262.044 202.551 262.096C219.479 264.907 237.1 260.68 250.913 250.485L254.773 247.643C255.003 247.475 255.307 247.444 255.57 247.549C255.832 247.664 256.021 247.905 256.052 248.188C257.29 257.764 259.461 272.658 261.768 288.433C267.023 324.398 270.421 348.164 269.802 350.64C266.897 362.25 258.402 370.809 247.158 373.777L247.148 373.756ZM203.516 263.879C204.387 268.463 205.163 283.167 206.442 311.948C207.072 326.223 207.67 339.711 208.11 342.511C208.907 347.692 210.292 352.79 212.211 357.667C218.347 368.732 230.041 374.637 242.69 372.98C255.349 371.323 265.125 362.607 268.229 350.231C268.816 347.881 264.023 315.042 260.164 288.653C257.961 273.612 255.884 259.359 254.615 249.751L251.867 251.775C238.044 261.981 220.486 266.354 203.516 263.879Z" fill="#050004"/>
<path d="M232.537 207.734L218.441 226.194L203.663 203.413L204.932 192.127L227.671 198.001L232.537 207.734Z" fill="#111111"/>
<path d="M218.388 227.599L202.813 203.612L204.229 191.121L228.226 197.309L233.481 207.829L218.388 227.61V227.599ZM204.502 203.214L218.504 224.789L231.593 207.64L227.115 198.693L205.645 193.155L204.512 203.224L204.502 203.214Z" fill="#000201"/>
<path d="M229.59 199.354C229.59 199.354 227.66 195.222 226.821 193.491C225.929 191.656 225.027 189.705 225.195 187.659C225.374 185.614 227.125 183.59 229.044 184.01C230.932 184.419 235.274 191.897 236.575 193.617" fill="white"/>
<path d="M229.244 200.78C229.244 200.78 227.104 196.239 226.171 194.351C225.237 192.453 224.083 190.093 224.304 187.596C224.44 186.107 225.237 184.639 226.391 183.758C227.293 183.065 228.342 182.803 229.338 183.013C231.037 183.37 233.596 187.072 236.523 191.509C237.173 192.505 237.739 193.355 238.085 193.806C238.295 194.078 238.243 194.477 237.981 194.687C237.718 194.896 237.33 194.854 237.12 194.582C236.753 194.099 236.208 193.271 235.516 192.211C233.869 189.715 230.45 184.523 229.097 184.24C228.258 184.062 227.555 184.429 227.125 184.765C226.255 185.436 225.625 186.59 225.531 187.712C225.342 189.851 226.412 192.023 227.272 193.774C228.205 195.673 230.355 200.225 230.355 200.225L229.254 200.78H229.244Z" fill="#050004"/>
<path d="M234.373 211.909C234.373 211.909 234.32 211.919 234.289 211.93C233.953 211.972 233.649 211.73 233.607 211.384C233.125 207.514 228.971 200.12 228.929 200.046C228.762 199.742 228.856 199.354 229.15 199.186C229.443 199.018 229.81 199.113 229.989 199.417C230.167 199.732 234.31 207.105 234.824 211.227C234.866 211.542 234.667 211.835 234.373 211.919V211.909Z" fill="#000201"/>
<path d="M235.18 173.92L242.722 175.293C246.403 175.965 249.969 173.322 250.682 169.399L250.955 167.92C251.668 163.997 249.256 160.264 245.574 159.603L238.033 158.229L235.18 173.93V173.92Z" fill="#000201"/>
<path d="M242.637 175.765L235.096 174.391C234.834 174.339 234.656 174.098 234.708 173.836L237.561 158.134C237.582 158.009 237.655 157.893 237.76 157.82C237.865 157.746 237.991 157.715 238.117 157.746L245.658 159.12C247.577 159.466 249.224 160.589 250.315 162.267C251.395 163.945 251.794 165.98 251.427 167.994L251.154 169.472C250.787 171.497 249.706 173.259 248.102 174.444C247.294 175.042 246.413 175.451 245.49 175.682C244.567 175.902 243.592 175.933 242.637 175.765ZM235.736 173.531L242.805 174.811C244.452 175.115 246.13 174.706 247.525 173.668C248.93 172.629 249.885 171.077 250.21 169.294L250.483 167.815C250.808 166.032 250.462 164.249 249.507 162.781C248.563 161.323 247.137 160.358 245.48 160.054L238.411 158.774L235.736 173.531Z" fill="#000201"/>
<path d="M212.274 235.235C215.84 235.885 219.332 233.032 220.087 228.869L227.471 188.184C228.226 184.02 225.95 180.129 222.395 179.478C218.829 178.828 215.336 181.681 214.581 185.845L207.197 226.53C206.442 230.694 208.718 234.585 212.274 235.235Z" fill="#000201"/>
<path d="M212.18 235.707C208.362 235.015 205.908 230.861 206.715 226.446L214.099 185.761C214.896 181.345 218.661 178.314 222.479 179.006C224.346 179.342 225.94 180.506 226.968 182.268C227.985 184.009 228.332 186.139 227.944 188.268L220.56 228.953C220.172 231.082 219.102 232.949 217.539 234.228C216.69 234.92 215.746 235.392 214.76 235.634C213.921 235.833 213.05 235.864 212.19 235.707H212.18ZM215.053 185.939L207.67 226.624C206.967 230.515 209.065 234.165 212.358 234.763C213.942 235.046 215.567 234.595 216.931 233.484C218.315 232.351 219.27 230.683 219.616 228.785L227 188.1C227.346 186.202 227.042 184.303 226.14 182.761C225.248 181.24 223.895 180.244 222.311 179.961C221.577 179.825 220.843 179.856 220.14 180.024C217.686 180.611 215.599 182.908 215.053 185.929V185.939Z" fill="#000201"/>
<path d="M209.723 175.338L209.165 178.413C208.64 181.303 210.557 184.071 213.447 184.595L227.244 187.1C230.134 187.625 232.902 185.708 233.426 182.818L233.985 179.743C234.509 176.853 232.592 174.085 229.702 173.561L215.905 171.056C213.016 170.531 210.248 172.448 209.723 175.338Z" fill="#FFF9F3"/>
<path d="M227.178 187.586L213.375 185.079C211.854 184.807 210.522 183.947 209.641 182.677C208.76 181.408 208.424 179.867 208.708 178.335L209.263 175.262C209.84 172.116 212.861 170.018 216.007 170.595L229.81 173.101C232.957 173.678 235.054 176.699 234.477 179.846L233.922 182.919C233.649 184.44 232.789 185.772 231.52 186.653C230.922 187.072 230.261 187.366 229.579 187.523C228.803 187.712 227.996 187.733 227.188 187.586H227.178ZM210.207 175.43L209.652 178.503C209.18 181.125 210.921 183.653 213.543 184.125L227.345 186.632C228.614 186.862 229.904 186.579 230.964 185.845C232.023 185.111 232.736 183.999 232.967 182.73L233.523 179.657C233.995 177.035 232.254 174.507 229.632 174.035L215.829 171.528C215.147 171.402 214.476 171.434 213.836 171.581C212.032 172.011 210.554 173.479 210.207 175.419V175.43Z" fill="#000201"/>
<path d="M213.689 178.031L229.548 180.915C237.299 182.321 244.787 176.772 246.287 168.518L246.853 165.403C248.353 157.149 243.287 149.314 235.537 147.908L219.678 145.024L213.689 178.021V178.031Z" fill="#C8D5EE"/>
<path d="M229.463 181.387L213.605 178.503C213.343 178.451 213.165 178.209 213.217 177.947L219.206 144.951C219.227 144.825 219.3 144.709 219.405 144.636C219.51 144.562 219.636 144.531 219.762 144.562L235.62 147.447C239.501 148.149 242.857 150.425 245.06 153.834C247.262 157.243 248.07 161.386 247.315 165.497L246.748 168.612C245.584 175.021 240.885 179.867 235.211 181.23C233.365 181.671 231.414 181.755 229.453 181.398L229.463 181.387ZM214.245 177.643L229.631 180.433C237.109 181.786 244.367 176.405 245.815 168.424L246.381 165.309C247.084 161.438 246.329 157.547 244.262 154.348C242.196 151.16 239.071 149.041 235.452 148.38L220.066 145.59L214.245 177.643Z" fill="#050004"/>
<path d="M219.678 145.035L213.689 178.031C201.743 175.86 189.335 177.884 178.155 183.831L160.377 192.925L175.249 111.314L188.444 127.11C196.824 136.612 207.732 142.864 219.678 145.035Z" fill="#F8EEE2"/>
<path d="M160.084 193.313C159.937 193.208 159.863 193.019 159.895 192.841L174.767 111.23C174.799 111.041 174.935 110.895 175.113 110.853C175.292 110.811 175.481 110.863 175.606 111.01L188.801 126.795C197.16 136.256 207.858 142.402 219.752 144.563C220.014 144.615 220.192 144.856 220.14 145.118L214.151 178.115C214.13 178.241 214.057 178.356 213.952 178.43C213.847 178.503 213.721 178.535 213.595 178.503C201.701 176.343 189.514 178.335 178.365 184.261L160.587 193.355C160.587 193.355 160.514 193.386 160.482 193.397C160.346 193.428 160.199 193.397 160.084 193.313ZM213.301 177.475L219.122 145.423C207.197 143.147 196.478 136.937 188.077 127.424L175.533 112.426L161.017 192.065L177.914 183.412C182.319 181.073 186.892 179.332 191.538 178.21C198.691 176.489 206.044 176.227 213.291 177.475H213.301Z" fill="#000201"/>
<path d="M219.678 145.035L213.689 178.031C201.743 175.86 189.335 177.884 178.155 183.831L160.377 192.925L175.249 111.314L188.444 127.11C196.824 136.612 207.732 142.864 219.678 145.035Z" fill="#C8D5EE"/>
<path d="M160.084 193.313C159.937 193.208 159.863 193.019 159.895 192.841L174.767 111.23C174.799 111.041 174.935 110.895 175.113 110.853C175.292 110.811 175.481 110.863 175.606 111.01L188.801 126.795C197.16 136.256 207.858 142.402 219.752 144.563C220.014 144.615 220.192 144.856 220.14 145.118L214.151 178.115C214.13 178.241 214.057 178.356 213.952 178.43C213.847 178.503 213.721 178.535 213.595 178.503C201.701 176.343 189.514 178.335 178.365 184.261L160.587 193.355C160.587 193.355 160.514 193.386 160.482 193.397C160.346 193.428 160.199 193.397 160.084 193.313ZM213.301 177.475L219.122 145.423C207.197 143.147 196.478 136.937 188.077 127.424L175.533 112.426L161.017 192.065L177.914 183.412C182.319 181.073 186.892 179.332 191.538 178.21C198.691 176.489 206.044 176.227 213.291 177.475H213.301Z" fill="#050004"/>
<path d="M179.149 154.355C183.542 131.192 180.502 111.163 172.358 109.618C164.214 108.073 154.05 125.598 149.657 148.761C145.264 171.924 148.304 191.954 156.448 193.498C164.592 195.043 174.755 177.518 179.149 154.355Z" fill="white"/>
<path d="M156.413 193.963C154.598 193.638 152.994 192.484 151.641 190.523C146.774 183.475 145.778 166.714 149.144 148.81C153.623 125.022 163.817 107.58 172.365 109.111C174.18 109.437 175.785 110.59 177.138 112.552C182.004 119.6 183.001 136.36 179.634 154.264C175.606 175.692 166.922 191.96 159.003 193.869C158.133 194.078 157.262 194.12 156.413 193.963ZM150.099 148.999C146.774 166.662 147.718 183.139 152.438 189.988C153.633 191.729 155.028 192.746 156.581 193.03C157.315 193.155 158.059 193.124 158.815 192.946C166.251 191.152 174.778 174.853 178.69 154.096C182.015 136.434 181.071 119.956 176.351 113.107C175.155 111.366 173.76 110.349 172.208 110.066C171.474 109.94 170.729 109.971 169.964 110.15C162.527 111.943 154 128.242 150.088 148.999H150.099Z" fill="#000201"/>
<path d="M154.766 149.251C151.379 167.459 153.235 183.045 158.899 184.062C164.563 185.079 171.904 171.14 175.282 152.932C178.669 134.724 176.813 119.138 171.149 118.121C165.485 117.104 158.144 131.043 154.766 149.251Z" fill="#000201"/>
<mask id="mask0_1_293" style="mask-type:luminance" maskUnits="userSpaceOnUse" x="153" y="118" width="24" height="67">
<path d="M154.766 149.251C151.379 167.459 153.235 183.045 158.899 184.062C164.563 185.079 171.904 171.14 175.282 152.932C178.669 134.724 176.813 119.138 171.149 118.121C165.485 117.104 158.144 131.043 154.766 149.251Z" fill="white"/>
</mask>
<g mask="url(#mask0_1_293)">
<path d="M165.034 151.527C161.741 169.252 163.545 184.429 169.062 185.415C174.579 186.401 181.721 172.829 185.015 155.103C188.308 137.378 186.504 122.201 180.987 121.215C175.47 120.229 168.328 133.801 165.034 151.527Z" fill="#000201"/>
<path d="M184.112 146.608L173.393 144.72C169.009 143.954 164.667 147.636 163.681 152.953C162.695 158.271 165.443 163.211 169.827 163.977L180.546 165.865L184.112 146.608Z" fill="#2A67DC"/>
<path d="M180.452 166.337L169.733 164.449C167.772 164.102 166.02 162.938 164.793 161.176C163.22 158.911 162.643 155.88 163.199 152.869C164.237 147.3 168.842 143.43 173.467 144.248L184.186 146.136C184.312 146.157 184.427 146.23 184.501 146.335C184.574 146.44 184.606 146.576 184.574 146.702L181.008 165.959C180.977 166.148 180.83 166.295 180.651 166.337C180.588 166.347 180.526 166.357 180.452 166.337ZM173.299 145.192C169.188 144.468 165.076 147.992 164.143 153.037C163.629 155.806 164.153 158.565 165.58 160.62C166.66 162.173 168.191 163.19 169.89 163.494L180.137 165.298L183.536 146.985L173.289 145.181L173.299 145.192Z" fill="#050004"/>
<path d="M166.335 154.621C166.608 152.586 166.041 150.646 164.982 149.544C164.174 150.488 163.576 151.841 163.356 153.425C163.094 155.324 163.44 157.159 164.195 158.512C165.255 157.82 166.083 156.393 166.324 154.61L166.335 154.621Z" fill="white"/>
<path d="M164.09 158.984C163.964 158.953 163.849 158.869 163.786 158.753C162.958 157.254 162.622 155.292 162.884 153.362C163.104 151.747 163.723 150.279 164.615 149.23C164.699 149.125 164.824 149.062 164.971 149.062C165.108 149.062 165.234 149.114 165.328 149.209C166.534 150.457 167.1 152.555 166.807 154.684C166.555 156.54 165.685 158.124 164.468 158.921C164.426 158.953 164.373 158.974 164.321 158.984C164.248 159.005 164.164 159.005 164.09 158.984ZM165.852 154.547C166.062 152.964 165.737 151.369 164.992 150.31C164.405 151.17 163.996 152.282 163.839 153.478C163.629 154.988 163.828 156.519 164.373 157.757C165.129 157.044 165.674 155.88 165.863 154.537L165.852 154.547Z" fill="#050004"/>
</g>
<path d="M216.186 144.29L210.365 177.517L213.669 177.926L219.679 145.034L216.186 144.29Z" fill="#FFF9F3"/>
<path d="M213.606 178.398L210.302 177.989C210.176 177.968 210.05 177.905 209.977 177.8C209.893 177.696 209.861 177.559 209.893 177.433L215.724 144.206C215.745 144.08 215.819 143.965 215.934 143.891C216.039 143.818 216.175 143.797 216.301 143.818L219.794 144.552C220.045 144.604 220.213 144.856 220.171 145.108L214.151 178C214.119 178.188 213.973 178.335 213.794 178.377C213.742 178.388 213.679 178.398 213.627 178.377L213.606 178.398ZM216.574 144.867L210.921 177.098L213.27 177.391L219.122 145.402L216.574 144.867Z" fill="#000201"/>
<path d="M199.383 201.934L199.352 202.092C198.817 204.451 200.432 206.707 202.939 207.105L217.245 209.413C219.762 209.822 222.258 208.217 222.793 205.867L222.825 205.721C223.36 203.361 221.745 201.106 219.238 200.697L204.932 198.389C202.415 197.98 199.918 199.585 199.383 201.934Z" fill="white"/>
<path d="M219.469 209.916C218.724 210.115 217.937 210.157 217.14 210.031L202.834 207.724C201.418 207.493 200.17 206.717 199.404 205.584C198.681 204.504 198.44 203.214 198.723 201.945L198.754 201.787C199.362 199.102 202.184 197.298 205.016 197.76L219.322 200.067C220.738 200.298 221.986 201.074 222.751 202.207C223.475 203.287 223.716 204.577 223.423 205.846L223.391 205.993C222.951 207.923 221.367 209.402 219.458 209.905L219.469 209.916ZM203.012 199.092C201.544 199.48 200.338 200.602 200.002 202.071L199.971 202.217C199.761 203.14 199.939 204.084 200.464 204.871C201.041 205.731 201.964 206.297 203.044 206.476L217.35 208.783C219.553 209.14 221.713 207.766 222.185 205.721L222.217 205.574C222.426 204.651 222.248 203.707 221.724 202.92C221.147 202.06 220.224 201.494 219.143 201.315L204.837 199.008C204.219 198.903 203.6 198.945 203.012 199.102V199.092Z" fill="#050004"/>
<path d="M201.218 192.904L201.187 193.051C200.652 195.41 202.256 197.666 204.774 198.075L219.08 200.382C221.597 200.791 224.093 199.186 224.639 196.837L224.67 196.69C225.215 194.33 223.6 192.075 221.083 191.666L206.777 189.359C204.26 188.95 201.764 190.554 201.229 192.904H201.218Z" fill="white"/>
<path d="M221.304 200.885C220.559 201.085 219.772 201.127 218.975 201.001L204.669 198.693C203.253 198.463 202.005 197.686 201.239 196.554C200.516 195.473 200.275 194.183 200.568 192.914L200.6 192.767C201.218 190.093 204.029 188.278 206.872 188.74L221.178 191.047C222.594 191.278 223.842 192.054 224.607 193.187C225.331 194.267 225.572 195.557 225.279 196.826L225.247 196.973C224.807 198.903 223.223 200.382 221.304 200.885ZM201.837 193.05L201.806 193.197C201.596 194.12 201.764 195.064 202.299 195.851C202.876 196.711 203.799 197.277 204.879 197.456L219.185 199.763C221.388 200.12 223.559 198.746 224.02 196.7L224.052 196.554C224.261 195.631 224.094 194.687 223.559 193.9C222.982 193.04 222.059 192.474 220.978 192.295L206.672 189.988C204.48 189.631 202.309 191.005 201.837 193.05Z" fill="#050004"/>
<path d="M200.264 210.829V210.871C199.719 213.199 201.313 215.433 203.799 215.832L213.553 217.405C216.039 217.803 218.503 216.23 219.038 213.902V213.86C219.584 211.531 217.989 209.308 215.504 208.899L205.75 207.325C203.264 206.927 200.799 208.5 200.264 210.829Z" fill="white"/>
<path d="M215.756 217.908C215.022 218.097 214.245 218.149 213.459 218.024L203.705 216.45C202.31 216.23 201.072 215.454 200.317 214.332C199.593 213.262 199.362 211.982 199.646 210.734V210.692C200.264 208.039 203.044 206.255 205.855 206.706L215.609 208.28C217.004 208.51 218.241 209.276 218.997 210.398C219.72 211.468 219.951 212.748 219.668 213.996C219.227 215.936 217.654 217.405 215.756 217.908ZM203.841 208.039C202.394 208.416 201.198 209.528 200.873 210.975V211.017C200.653 211.93 200.831 212.853 201.345 213.629C201.911 214.478 202.824 215.034 203.893 215.202L213.648 216.775C215.808 217.122 217.948 215.769 218.409 213.755C218.63 212.8 218.451 211.877 217.937 211.101C217.371 210.252 216.458 209.696 215.389 209.528L205.634 207.955C205.026 207.86 204.407 207.892 203.841 208.039Z" fill="#050004"/>
<path d="M198.534 219.387L198.502 219.534C197.967 221.894 199.583 224.149 202.089 224.558L206.914 225.334C209.431 225.743 211.927 224.138 212.473 221.789L212.504 221.642C213.05 219.282 211.435 217.027 208.917 216.618L204.082 215.842C201.565 215.433 199.069 217.038 198.534 219.387Z" fill="white"/>
<path d="M209.138 225.848C208.393 226.047 207.606 226.089 206.809 225.963L201.985 225.187C200.569 224.956 199.321 224.18 198.555 223.047C197.831 221.967 197.59 220.677 197.884 219.408L197.915 219.261C198.523 216.587 201.345 214.772 204.187 215.234L209.022 216.01C210.438 216.24 211.686 217.017 212.452 218.149C213.176 219.23 213.417 220.52 213.123 221.789L213.092 221.936C212.651 223.866 211.067 225.344 209.148 225.848H209.138ZM202.163 216.555C200.695 216.943 199.488 218.065 199.153 219.534L199.121 219.681C198.911 220.604 199.079 221.548 199.614 222.334C200.191 223.194 201.104 223.761 202.194 223.939L207.019 224.715C209.222 225.072 211.393 223.698 211.854 221.653L211.886 221.506C212.095 220.583 211.927 219.639 211.393 218.852C210.816 217.992 209.893 217.426 208.812 217.247L203.977 216.471C203.359 216.366 202.729 216.408 202.152 216.566L202.163 216.555Z" fill="#050004"/>
<path d="M72.6006 222.985L96.6818 192.914L98.9053 203.109L122.577 185.992L95.5281 219.46L92.6018 210.094L72.6006 222.985Z" fill="#172252"/>
<path d="M95.3708 220.32C95.0561 220.258 94.7939 220.027 94.6995 219.723L92.1194 211.447L73.0831 223.719C72.695 223.95 72.2545 223.887 71.9609 223.572C71.6777 223.257 71.6567 222.775 71.9294 222.439L96.0001 192.369C96.2099 192.107 96.556 191.991 96.8811 192.065C97.2063 192.138 97.458 192.4 97.5314 192.725L99.4717 201.62L122.064 185.279C122.431 185.037 122.903 185.069 123.207 185.383C123.511 185.698 123.521 186.191 123.249 186.527L96.1994 219.995C96.126 220.09 96.0316 220.163 95.9267 220.216C95.7589 220.31 95.5596 220.341 95.3603 220.3L95.3708 220.32ZM99.4193 203.812C99.1781 203.979 98.8739 204.021 98.6012 203.917C98.3285 203.812 98.1292 203.57 98.0558 203.287L96.2203 194.875L76.6282 219.345L92.1299 209.35C92.3606 209.213 92.6438 209.171 92.8956 209.266C93.1473 209.36 93.3466 209.57 93.4305 209.822L95.8637 217.635L117.774 190.523L99.3983 203.812H99.4193Z" fill="#050004"/>
<path d="M81.9034 74.2583L115.456 88.0611L106.834 92.7704L128.566 109.636L91.1542 94.05L98.8526 88.9212L81.9034 74.2583Z" fill="#172252"/>
<path d="M128.23 110.443L90.8185 94.8471C90.5248 94.7212 90.315 94.4485 90.2836 94.1234C90.2521 93.7982 90.3989 93.4941 90.6716 93.3157L97.4051 88.8267L81.3265 74.9085C81.0014 74.6253 80.928 74.1533 81.1587 73.7862C81.379 73.4296 81.83 73.2723 82.2285 73.4401L115.781 87.2429C116.095 87.3688 116.305 87.6625 116.316 87.9981C116.337 88.3337 116.158 88.6484 115.865 88.8057L108.407 92.8752L129.09 108.923C129.436 109.195 129.531 109.667 129.311 110.055C129.227 110.202 129.101 110.318 128.964 110.391C128.744 110.506 128.472 110.527 128.22 110.422L128.23 110.443ZM86.5182 77.1006L99.4189 88.2603C99.6286 88.4386 99.7335 88.7008 99.723 88.9735C99.7021 89.2462 99.5657 89.4979 99.335 89.6448L93 93.8611L122.871 106.311L106.299 93.4521C106.068 93.2738 105.943 92.9906 105.964 92.6969C105.985 92.4032 106.152 92.141 106.415 92.0047L113.431 88.1659L86.5182 77.0901V77.1006Z" fill="#172252"/>
<path d="M16.288 137.315L77.9488 127.991L69.4008 142.559L116.357 148.202L47.4278 158.302L54.2347 143.954L16.288 137.315Z" fill="#172252"/>
<path d="M116.483 149.062L47.5541 159.162C47.2394 159.215 46.9143 159.078 46.7255 158.816C46.5367 158.554 46.5052 158.218 46.6416 157.925L52.9556 144.604L16.1415 138.175C15.722 138.102 15.4178 137.734 15.4178 137.304C15.4178 136.874 15.743 136.518 16.1625 136.455L77.8234 127.131C78.159 127.078 78.4841 127.225 78.6729 127.508C78.8617 127.791 78.8722 128.148 78.7044 128.442L70.8277 141.867L116.462 147.352C116.892 147.405 117.228 147.772 117.228 148.212C117.228 148.548 117.05 148.842 116.767 148.999C116.683 149.041 116.588 149.072 116.483 149.093V149.062ZM21.7108 137.378L54.3925 143.094C54.6652 143.146 54.8959 143.314 55.0218 143.556C55.1476 143.797 55.1476 144.08 55.0322 144.332L48.9176 157.212L109.76 148.296L69.2964 143.44C69.0027 143.409 68.751 143.23 68.6146 142.958C68.4888 142.695 68.4993 142.381 68.6461 142.129L76.2711 129.134L21.7108 137.388V137.378Z" fill="#172252"/>
<path d="M544.029 338.368C532.671 350.619 533.048 369.446 544.868 380.416C556.699 391.387 575.494 390.339 586.864 378.088L619.891 342.469L641.078 362.114L607.326 398.52C584.724 422.895 547.323 424.971 523.797 403.155C500.272 381.339 499.517 343.885 522.119 319.51L555.871 283.104L577.057 302.749L544.029 338.368Z" fill="#050004"/>
<path d="M521.626 319.038L555.377 282.633C555.503 282.496 555.671 282.423 555.849 282.412C556.028 282.412 556.206 282.475 556.342 282.591L577.529 302.236C577.812 302.498 577.822 302.928 577.56 303.2L544.533 338.819C539.162 344.619 536.289 352.087 536.436 359.849C536.593 367.61 539.75 374.732 545.34 379.903C550.92 385.084 558.262 387.696 566.013 387.266C573.763 386.835 581 383.406 586.37 377.606L619.398 341.987C619.524 341.85 619.692 341.777 619.87 341.767C620.048 341.767 620.227 341.829 620.363 341.945L641.55 361.59C641.833 361.852 641.843 362.282 641.581 362.555L607.83 398.96C585.007 423.577 547.102 425.664 523.336 403.627C508.589 389.961 502.695 370.159 505.799 351.227C507.698 339.637 512.963 328.362 521.626 319.017V319.038ZM619.933 343.434L587.367 378.55C581.745 384.612 574.193 388.188 566.086 388.639C557.968 389.091 550.27 386.343 544.417 380.92C538.565 375.487 535.24 368.019 535.083 359.891C534.915 351.762 537.925 343.969 543.536 337.907L576.102 302.791L555.912 284.07L522.622 319.972C500.314 344.032 501.048 381.119 524.259 402.652C547.469 424.185 584.514 422.119 606.823 398.058L640.113 362.156L619.923 343.434H619.933Z" fill="#050004"/>
<path d="M548.193 339.533C536.834 351.783 537.212 370.61 549.032 381.581C560.863 392.552 579.658 391.503 591.028 379.252L624.055 343.634L645.242 363.278L611.49 399.684C588.888 424.059 551.487 426.136 527.961 404.32C504.436 382.504 503.681 345.049 526.283 320.674L560.035 284.269L581.221 303.914L548.193 339.533Z" fill="#2A67DC"/>
<path d="M525.779 320.202L559.531 283.797C559.782 283.524 560.223 283.503 560.496 283.765L581.682 303.41C581.818 303.536 581.892 303.704 581.902 303.882C581.902 304.061 581.839 304.239 581.724 304.375L548.696 339.994C543.326 345.794 540.453 353.262 540.599 361.023C540.757 368.785 543.914 375.907 549.504 381.077C555.084 386.259 562.426 388.87 570.176 388.44C577.927 388.01 585.164 384.581 590.534 378.78L623.562 343.162C623.688 343.025 623.856 342.952 624.034 342.941C624.212 342.941 624.391 343.004 624.527 343.12L645.713 362.765C645.986 363.027 645.997 363.457 645.745 363.729L611.993 400.135C589.171 424.751 551.266 426.839 527.499 404.802C512.753 391.136 506.858 371.334 509.963 352.402C511.861 340.812 517.126 329.537 525.79 320.192L525.779 320.202ZM624.086 344.599L591.52 379.714C585.898 385.776 578.347 389.353 570.239 389.804C562.121 390.255 554.423 387.507 548.571 382.084C542.718 376.651 539.393 369.183 539.236 361.055C539.068 352.937 542.078 345.123 547.689 339.071L580.256 303.956L560.066 285.234L526.776 321.136C504.467 345.196 505.201 382.294 528.412 403.816C551.633 425.349 588.667 423.283 610.976 399.222L644.266 363.32L624.076 344.599H624.086Z" fill="#050004"/>
<path d="M608.135 360.859L629.3 380.485L645.253 363.281L624.088 343.654L608.135 360.859Z" fill="url(#paint0_linear_1_293)"/>
<path d="M607.63 360.394L623.583 343.193C623.709 343.057 623.877 342.983 624.055 342.973C624.233 342.973 624.412 343.036 624.548 343.151L645.713 362.775C645.986 363.037 645.997 363.467 645.745 363.74L629.792 380.941C629.666 381.077 629.498 381.151 629.32 381.161C629.142 381.161 628.964 381.098 628.827 380.983L607.662 361.359C607.483 361.202 607.421 360.96 607.452 360.751C607.473 360.625 607.536 360.499 607.62 360.394H607.63ZM644.277 363.32L624.118 344.619L609.099 360.824L629.257 379.525L644.277 363.32Z" fill="#050004"/>
<path d="M544.094 301.464L565.259 321.091L581.212 303.886L560.048 284.26L544.094 301.464Z" fill="url(#paint1_linear_1_293)"/>
<path d="M543.578 301.008L559.53 283.807C559.782 283.535 560.223 283.514 560.495 283.776L581.661 303.4C581.797 303.526 581.871 303.694 581.881 303.872C581.881 304.05 581.818 304.228 581.703 304.365L565.75 321.566C565.488 321.839 565.058 321.86 564.785 321.597L543.62 301.973C543.483 301.848 543.41 301.68 543.399 301.501C543.399 301.459 543.399 301.407 543.399 301.365C543.42 301.229 543.483 301.113 543.567 301.008H543.578ZM580.224 303.924L560.065 285.223L545.036 301.428L565.194 320.129L580.224 303.924Z" fill="#050004"/>
<path d="M589.024 248.377L596.502 277.567L589.087 274.158L588.646 297.002L580.455 264.362L587.682 266.942L589.024 248.377Z" fill="#172252"/>
<path d="M579.994 263.858C580.182 263.691 580.445 263.638 580.686 263.722L587.073 265.998L588.353 248.335C588.384 247.989 588.636 247.738 588.972 247.706C589.307 247.675 589.611 247.895 589.695 248.22L597.163 277.399C597.226 277.651 597.142 277.923 596.943 278.091C596.743 278.259 596.46 278.301 596.219 278.186L589.748 275.217L589.339 297.012C589.318 297.358 589.076 297.642 588.73 297.673C588.395 297.715 588.08 297.495 587.996 297.159L579.794 264.519C579.773 264.425 579.763 264.33 579.784 264.246C579.805 264.1 579.878 263.953 579.994 263.848V263.858ZM588.405 274.148C588.405 273.917 588.531 273.707 588.72 273.581C588.919 273.455 589.16 273.445 589.37 273.539L595.485 276.34L589.402 252.594L588.363 266.984C588.342 267.194 588.237 267.393 588.059 267.508C587.881 267.624 587.661 267.655 587.461 267.582L581.43 265.432L588.07 291.873L588.405 274.148Z" fill="#172252"/>
<path d="M677.587 324.114L653.192 338.599L654.303 330.995L633.536 336.648L660.869 320.601L660.46 327.806L677.587 324.114Z" fill="#172252"/>
<path d="M633.201 336.05L660.533 320.003C660.754 319.877 661.016 319.877 661.236 320.003C661.446 320.129 661.572 320.37 661.561 320.622L661.194 326.946L677.451 323.443C677.776 323.37 678.112 323.548 678.227 323.863C678.353 324.167 678.227 324.524 677.944 324.702L653.548 339.176C653.317 339.312 653.034 339.302 652.825 339.155C652.604 339.008 652.489 338.746 652.531 338.494L653.496 331.918L633.736 337.299C633.411 337.393 633.065 337.225 632.928 336.9C632.876 336.774 632.865 336.648 632.886 336.522C632.918 336.323 633.033 336.155 633.211 336.04L633.201 336.05ZM673.644 325.667L660.607 328.478C660.397 328.52 660.177 328.478 660.02 328.331C659.862 328.195 659.768 327.985 659.778 327.775L660.124 321.828L638.298 334.645L654.125 330.334C654.345 330.271 654.587 330.334 654.754 330.481C654.922 330.638 655.006 330.859 654.975 331.089L654.073 337.278L673.644 325.667Z" fill="#172252"/>
<path d="M669.04 253.464L645.871 296.383L640.785 284.196L615.183 310.878L641.288 263.061L647.057 274.064L669.04 253.464Z" fill="#172252"/>
<path d="M614.584 310.553L640.679 262.726C640.795 262.505 641.036 262.369 641.288 262.369C641.539 262.369 641.77 262.516 641.886 262.736L647.235 272.941L668.568 252.961C668.809 252.73 669.187 252.709 669.449 252.919C669.711 253.129 669.785 253.485 669.638 253.779L646.469 296.698C646.343 296.929 646.102 297.065 645.84 297.054C645.577 297.044 645.347 296.876 645.242 296.635L640.554 285.402L615.675 311.34C615.434 311.591 615.056 311.623 614.784 311.413C614.574 311.256 614.469 311.004 614.511 310.752C614.522 310.679 614.542 310.606 614.584 310.532V310.553ZM666.449 256.821L647.518 274.557C647.36 274.704 647.151 274.766 646.941 274.735C646.731 274.704 646.553 274.567 646.448 274.378L641.267 264.509L618.234 306.725L640.291 283.724C640.449 283.556 640.679 283.482 640.91 283.524C641.13 283.566 641.33 283.724 641.414 283.933L645.945 294.799L666.439 256.821H666.449Z" fill="#172252"/>
<path d="M49.5888 339.847V359.492C49.5888 360.279 50.2391 360.929 51.0257 360.929H58.0424C58.7661 364.946 60.1191 368.764 61.9755 372.257L54.7491 380.993C54.2456 381.602 54.3295 382.514 54.9379 383.018L70.0725 395.541C70.6808 396.044 71.5933 395.96 72.0967 395.352L77.9073 388.335C80.4455 389.72 83.1514 390.821 85.9938 391.618V401.687C85.9938 402.474 86.6441 403.124 87.4307 403.124H107.075C107.862 403.124 108.512 402.474 108.512 401.687V391.22C111.124 390.381 113.62 389.29 115.969 387.947L122.095 395.352C122.598 395.96 123.511 396.044 124.119 395.541L139.253 383.018C139.862 382.514 139.946 381.602 139.442 380.993L131.597 371.512C133.254 368.229 134.46 364.673 135.142 360.94H145.599C146.396 360.94 147.036 360.289 147.036 359.503V339.858C147.036 339.071 146.386 338.421 145.599 338.421H132.593C132.111 337.299 131.576 336.197 130.989 335.127L137.817 326.873C138.32 326.265 138.236 325.352 137.628 324.849L122.493 312.325C121.885 311.822 120.972 311.906 120.469 312.514L114.889 319.258C112.865 318.189 110.736 317.287 108.523 316.584V308.204C108.523 307.417 107.872 306.767 107.086 306.767H87.4412C86.6545 306.767 86.0043 307.417 86.0043 308.204V316.185C83.7807 316.804 81.6306 317.622 79.5854 318.608L74.5405 312.514C74.0371 311.906 73.1246 311.822 72.5163 312.325L57.3816 324.849C56.7733 325.352 56.6894 326.265 57.1928 326.873L62.9509 333.837C62.0699 335.306 61.2833 336.837 60.6015 338.421H51.0362C50.2496 338.421 49.5993 339.071 49.5993 339.858L49.5888 339.847ZM72.4219 353.891C72.4219 340.539 83.2458 329.726 96.587 329.726C109.928 329.726 120.752 340.55 120.752 353.891C120.752 367.233 109.928 378.057 96.587 378.057C83.2458 378.057 72.4219 367.233 72.4219 353.891Z" stroke="#121924" stroke-linecap="round" stroke-linejoin="round"/>
<path d="M624.831 157.191V166.798C624.831 167.186 625.146 167.501 625.534 167.501H628.963C629.32 169.473 629.981 171.329 630.883 173.039L627.348 177.307C627.097 177.601 627.138 178.052 627.443 178.293L634.847 184.419C635.141 184.67 635.592 184.628 635.833 184.324L638.676 180.894C639.913 181.566 641.245 182.111 642.63 182.499V187.429C642.63 187.817 642.944 188.131 643.332 188.131H652.94C653.328 188.131 653.643 187.817 653.643 187.429V182.31C654.922 181.901 656.139 181.366 657.292 180.706L660.292 184.324C660.544 184.618 660.984 184.66 661.278 184.419L668.683 178.293C668.976 178.042 669.018 177.601 668.777 177.307L664.938 172.672C665.746 171.067 666.344 169.326 666.669 167.501H671.787C672.175 167.501 672.49 167.186 672.49 166.798V157.191C672.49 156.802 672.175 156.488 671.787 156.488H665.431C665.19 155.942 664.928 155.397 664.645 154.873L667.991 150.835C668.242 150.541 668.2 150.09 667.896 149.849L660.491 143.723C660.198 143.472 659.747 143.514 659.505 143.818L656.779 147.111C655.793 146.587 654.744 146.146 653.663 145.8V141.699C653.663 141.311 653.349 140.996 652.961 140.996H643.353C642.965 140.996 642.651 141.311 642.651 141.699V145.601C641.56 145.905 640.511 146.304 639.515 146.786L637.05 143.807C636.798 143.514 636.358 143.472 636.064 143.713L628.659 149.838C628.366 150.09 628.324 150.53 628.565 150.824L631.386 154.233C630.956 154.956 630.568 155.701 630.243 156.477H625.565C625.177 156.477 624.863 156.792 624.863 157.18L624.831 157.191ZM636.001 164.06C636.001 157.526 641.298 152.24 647.821 152.24C654.345 152.24 659.642 157.537 659.642 164.06C659.642 170.584 654.345 175.881 647.821 175.881C641.298 175.881 636.001 170.584 636.001 164.06Z" stroke="#121924" stroke-linecap="round" stroke-linejoin="round"/>
<path d="M415.726 27.9098V44.1669C415.726 44.8172 416.261 45.3626 416.911 45.3626H422.711C423.309 48.6874 424.431 51.8445 425.962 54.7288L419.984 61.9553C419.564 62.4588 419.638 63.214 420.141 63.6335L432.664 73.9961C433.168 74.4156 433.923 74.3422 434.342 73.8388L439.146 68.0387C441.244 69.1819 443.488 70.0944 445.838 70.7552V79.083C445.838 79.7333 446.373 80.2787 447.023 80.2787H463.28C463.93 80.2787 464.475 79.7438 464.475 79.083V70.4195C466.636 69.7273 468.702 68.8148 470.643 67.7135L475.708 73.8388C476.128 74.3422 476.883 74.4156 477.387 73.9961L489.91 63.6335C490.413 63.214 490.486 62.4588 490.067 61.9553L483.575 54.11C484.949 51.3935 485.945 48.4567 486.501 45.3626H495.154C495.804 45.3626 496.349 44.8277 496.349 44.1669V27.9098C496.349 27.2595 495.815 26.7141 495.154 26.7141H484.393C483.994 25.7806 483.543 24.8786 483.061 23.9871L488.714 17.1591C489.133 16.6557 489.06 15.9005 488.557 15.481L476.034 5.11836C475.53 4.69882 474.775 4.77224 474.355 5.27569L469.741 10.8556C468.062 9.97452 466.3 9.22984 464.475 8.64248V1.70961C464.475 1.05933 463.941 0.524414 463.28 0.524414H447.023C446.373 0.524414 445.838 1.05933 445.838 1.70961V8.31734C443.992 8.83128 442.219 9.50254 440.531 10.3311L436.356 5.28618C435.937 4.78273 435.182 4.70931 434.678 5.12885L422.155 15.4915C421.652 15.911 421.578 16.6662 421.998 17.1696L426.77 22.9278C426.046 24.1444 425.396 25.4135 424.83 26.7246H416.921C416.271 26.7246 415.736 27.2595 415.736 27.9203L415.726 27.9098ZM434.626 39.5415C434.626 28.4971 443.583 19.54 454.627 19.54C465.671 19.54 474.628 28.4971 474.628 39.5415C474.628 50.5859 465.671 59.543 454.627 59.543C443.583 59.543 434.626 50.5859 434.626 39.5415Z" stroke="#121924" stroke-linecap="round" stroke-linejoin="round"/>
<path d="M667.76 418.899C667.361 418.899 667.036 418.574 667.036 418.175V411.725C667.036 411.326 667.361 411.001 667.76 411.001C668.158 411.001 668.483 411.326 668.483 411.725V418.175C668.483 418.574 668.158 418.899 667.76 418.899Z" fill="#121924"/>
<path d="M667.76 435.471C667.361 435.471 667.036 435.145 667.036 434.747V428.296C667.036 427.898 667.361 427.573 667.76 427.573C668.158 427.573 668.483 427.898 668.483 428.296V434.747C668.483 435.145 668.158 435.471 667.76 435.471Z" fill="#121924"/>
<path d="M679.276 423.965H672.825C672.427 423.965 672.102 423.64 672.102 423.241C672.102 422.842 672.427 422.517 672.825 422.517H679.276C679.674 422.517 679.999 422.842 679.999 423.241C679.999 423.64 679.674 423.965 679.276 423.965Z" fill="#121924"/>
<path d="M662.704 423.965H656.254C655.855 423.965 655.53 423.64 655.53 423.241C655.53 422.842 655.855 422.517 656.254 422.517H662.704C663.103 422.517 663.428 422.842 663.428 423.241C663.428 423.64 663.103 423.965 662.704 423.965Z" fill="#121924"/>
<path d="M659.621 432.104C659.432 432.104 659.243 432.03 659.107 431.894C658.824 431.611 658.824 431.149 659.107 430.866L663.669 426.304C663.952 426.021 664.414 426.021 664.697 426.304C664.98 426.587 664.98 427.048 664.697 427.332L660.135 431.894C659.988 432.041 659.81 432.104 659.621 432.104Z" fill="#121924"/>
<path d="M671.337 420.388C671.148 420.388 670.959 420.315 670.823 420.178C670.539 419.895 670.539 419.434 670.823 419.151L675.385 414.588C675.668 414.305 676.13 414.305 676.413 414.588C676.696 414.871 676.696 415.333 676.413 415.616L671.85 420.178C671.704 420.325 671.525 420.388 671.337 420.388Z" fill="#121924"/>
<path d="M664.183 420.388C663.994 420.388 663.806 420.315 663.669 420.178L659.107 415.616C658.824 415.333 658.824 414.871 659.107 414.588C659.39 414.305 659.852 414.305 660.135 414.588L664.697 419.151C664.98 419.434 664.98 419.895 664.697 420.178C664.55 420.325 664.372 420.388 664.183 420.388Z" fill="#121924"/>
<path d="M675.899 432.104C675.71 432.104 675.521 432.03 675.385 431.894L670.823 427.332C670.539 427.048 670.539 426.587 670.823 426.304C671.106 426.021 671.567 426.021 671.85 426.304L676.413 430.866C676.696 431.149 676.696 431.611 676.413 431.894C676.266 432.041 676.088 432.104 675.899 432.104Z" fill="#121924"/>
<path d="M282.357 124.068C281.958 124.068 281.633 123.743 281.633 123.344V116.894C281.633 116.495 281.958 116.17 282.357 116.17C282.755 116.17 283.08 116.495 283.08 116.894V123.344C283.08 123.743 282.755 124.068 282.357 124.068Z" fill="#121924"/>
<path d="M282.357 140.64C281.958 140.64 281.633 140.315 281.633 139.916V133.466C281.633 133.067 281.958 132.742 282.357 132.742C282.755 132.742 283.08 133.067 283.08 133.466V139.916C283.08 140.315 282.755 140.64 282.357 140.64Z" fill="#121924"/>
<path d="M293.862 129.123H287.411C287.013 129.123 286.688 128.798 286.688 128.4C286.688 128.001 287.013 127.676 287.411 127.676H293.862C294.26 127.676 294.585 128.001 294.585 128.4C294.585 128.798 294.26 129.123 293.862 129.123Z" fill="#121924"/>
<path d="M277.29 129.123H270.84C270.441 129.123 270.116 128.798 270.116 128.4C270.116 128.001 270.441 127.676 270.84 127.676H277.29C277.689 127.676 278.014 128.001 278.014 128.4C278.014 128.798 277.689 129.123 277.29 129.123Z" fill="#121924"/>
<path d="M274.207 137.273C274.018 137.273 273.829 137.2 273.693 137.063C273.41 136.78 273.41 136.319 273.693 136.035L278.255 131.473C278.538 131.19 279 131.19 279.283 131.473C279.566 131.756 279.566 132.218 279.283 132.501L274.721 137.063C274.574 137.21 274.395 137.273 274.207 137.273Z" fill="#121924"/>
<path d="M285.922 125.547C285.734 125.547 285.545 125.474 285.409 125.337C285.125 125.054 285.125 124.592 285.409 124.309L289.971 119.747C290.254 119.464 290.716 119.464 290.999 119.747C291.282 120.03 291.282 120.491 290.999 120.775L286.436 125.337C286.29 125.484 286.111 125.547 285.922 125.547Z" fill="#121924"/>
<path d="M278.769 125.547C278.58 125.547 278.391 125.474 278.255 125.337L273.693 120.775C273.41 120.491 273.41 120.03 273.693 119.747C273.976 119.464 274.437 119.464 274.721 119.747L279.283 124.309C279.566 124.592 279.566 125.054 279.283 125.337C279.136 125.484 278.958 125.547 278.769 125.547Z" fill="#121924"/>
<path d="M290.485 137.273C290.296 137.273 290.107 137.2 289.971 137.063L285.409 132.501C285.125 132.218 285.125 131.756 285.409 131.473C285.692 131.19 286.153 131.19 286.436 131.473L290.999 136.035C291.282 136.319 291.282 136.78 290.999 137.063C290.852 137.21 290.674 137.273 290.485 137.273Z" fill="#121924"/>
<path d="M607.746 72.0768C607.348 72.0768 607.022 71.7516 607.022 71.3531V64.9027C607.022 64.5041 607.348 64.179 607.746 64.179C608.145 64.179 608.47 64.5041 608.47 64.9027V71.3531C608.47 71.7516 608.145 72.0768 607.746 72.0768Z" fill="#121924"/>
<path d="M607.746 88.638C607.348 88.638 607.022 88.3129 607.022 87.9143V81.4639C607.022 81.0654 607.348 80.7402 607.746 80.7402C608.145 80.7402 608.47 81.0654 608.47 81.4639V87.9143C608.47 88.3129 608.145 88.638 607.746 88.638Z" fill="#121924"/>
<path d="M619.251 77.1322H612.801C612.402 77.1322 612.077 76.8071 612.077 76.4085C612.077 76.01 612.402 75.6848 612.801 75.6848H619.251C619.65 75.6848 619.975 76.01 619.975 76.4085C619.975 76.8071 619.65 77.1322 619.251 77.1322Z" fill="#121924"/>
<path d="M602.68 77.1322H596.229C595.831 77.1322 595.506 76.8071 595.506 76.4085C595.506 76.01 595.831 75.6848 596.229 75.6848H602.68C603.078 75.6848 603.404 76.01 603.404 76.4085C603.404 76.8071 603.078 77.1322 602.68 77.1322Z" fill="#121924"/>
<path d="M599.607 85.2713C599.418 85.2713 599.23 85.1979 599.093 85.0615C598.81 84.7783 598.81 84.3169 599.093 84.0337L603.656 79.4712C603.939 79.188 604.4 79.188 604.684 79.4712C604.967 79.7544 604.967 80.2159 604.684 80.4991L600.121 85.0615C599.974 85.2084 599.796 85.2713 599.607 85.2713Z" fill="#121924"/>
<path d="M611.323 73.5557C611.134 73.5557 610.945 73.4823 610.809 73.346C610.526 73.0628 610.526 72.6013 610.809 72.3181L615.371 67.7556C615.655 67.4724 616.116 67.4724 616.399 67.7556C616.683 68.0388 616.683 68.5003 616.399 68.7835L611.837 73.346C611.69 73.4928 611.512 73.5557 611.323 73.5557Z" fill="#121924"/>
<path d="M604.17 73.5557C603.981 73.5557 603.792 73.4823 603.656 73.346L599.093 68.7835C598.81 68.5003 598.81 68.0388 599.093 67.7556C599.376 67.4724 599.838 67.4724 600.121 67.7556L604.684 72.3181C604.967 72.6013 604.967 73.0628 604.684 73.346C604.537 73.4928 604.358 73.5557 604.17 73.5557Z" fill="#121924"/>
<path d="M615.885 85.2713C615.697 85.2713 615.508 85.1979 615.371 85.0615L610.809 80.4991C610.526 80.2159 610.526 79.7544 610.809 79.4712C611.092 79.188 611.554 79.188 611.837 79.4712L616.399 84.0337C616.683 84.3169 616.683 84.7783 616.399 85.0615C616.253 85.2084 616.074 85.2713 615.885 85.2713Z" fill="#121924"/>
<path d="M31.2237 209.056C30.8251 209.056 30.5 208.731 30.5 208.332V201.882C30.5 201.483 30.8251 201.158 31.2237 201.158C31.6223 201.158 31.9474 201.483 31.9474 201.882V208.332C31.9474 208.731 31.6223 209.056 31.2237 209.056Z" fill="#121924"/>
<path d="M31.2237 225.628C30.8251 225.628 30.5 225.303 30.5 224.894V218.443C30.5 218.045 30.8251 217.719 31.2237 217.719C31.6223 217.719 31.9474 218.045 31.9474 218.443V224.894C31.9474 225.292 31.6223 225.628 31.2237 225.628Z" fill="#121924"/>
<path d="M42.7287 214.111H36.2784C35.8798 214.111 35.5547 213.786 35.5547 213.388C35.5547 212.989 35.8798 212.664 36.2784 212.664H42.7287C43.1273 212.664 43.4524 212.989 43.4524 213.388C43.4524 213.786 43.1273 214.111 42.7287 214.111Z" fill="#121924"/>
<path d="M26.1574 214.111H19.7071C19.3085 214.111 18.9834 213.786 18.9834 213.388C18.9834 212.989 19.3085 212.664 19.7071 212.664H26.1574C26.556 212.664 26.8811 212.989 26.8811 213.388C26.8811 213.786 26.556 214.111 26.1574 214.111Z" fill="#121924"/>
<path d="M23.0847 222.251C22.8959 222.251 22.7071 222.177 22.5708 222.041C22.2876 221.758 22.2876 221.296 22.5708 221.013L27.1332 216.45C27.4164 216.167 27.8779 216.167 28.1611 216.45C28.4442 216.734 28.4442 217.195 28.1611 217.478L23.5986 222.041C23.4518 222.188 23.2735 222.251 23.0847 222.251Z" fill="#121924"/>
<path d="M34.8005 210.535C34.6117 210.535 34.423 210.462 34.2866 210.325C34.0034 210.042 34.0034 209.581 34.2866 209.297L38.849 204.735C39.1322 204.452 39.5937 204.452 39.8769 204.735C40.1601 205.018 40.1601 205.48 39.8769 205.763L35.3145 210.325C35.1676 210.472 34.9893 210.535 34.8005 210.535Z" fill="#121924"/>
<path d="M27.6471 210.535C27.4583 210.535 27.2696 210.462 27.1332 210.325L22.5708 205.763C22.2876 205.48 22.2876 205.018 22.5708 204.735C22.854 204.452 23.3155 204.452 23.5986 204.735L28.1611 209.297C28.4442 209.581 28.4442 210.042 28.1611 210.325C28.0142 210.472 27.8359 210.535 27.6471 210.535Z" fill="#121924"/>
<path d="M39.363 222.251C39.1742 222.251 38.9854 222.177 38.849 222.041L34.2866 217.478C34.0034 217.195 34.0034 216.734 34.2866 216.45C34.5698 216.167 35.0313 216.167 35.3145 216.45L39.8769 221.013C40.1601 221.296 40.1601 221.758 39.8769 222.041C39.73 222.188 39.5517 222.251 39.363 222.251Z" fill="#121924"/>
<path d="M170.131 376.043C170.131 377.91 168.621 379.42 166.754 379.42C164.887 379.42 163.377 377.91 163.377 376.043C163.377 374.176 164.887 372.666 166.754 372.666C168.621 372.666 170.131 374.176 170.131 376.043Z" fill="black"/>
<path d="M570.628 237.385C570.628 239.084 569.244 240.469 567.545 240.469C565.845 240.469 564.461 239.084 564.461 237.385C564.461 235.686 565.845 234.302 567.545 234.302C569.244 234.302 570.628 235.686 570.628 237.385Z" fill="black"/>
<path d="M555.221 451.916C555.221 453.616 553.836 455 552.137 455C550.438 455 549.054 453.616 549.054 451.916C549.054 450.217 550.438 448.833 552.137 448.833C553.836 448.833 555.221 450.217 555.221 451.916Z" fill="black"/>
<path d="M6.16713 273.004C6.16713 274.703 4.78268 276.088 3.08357 276.088C1.38446 276.088 0 274.703 0 273.004C0 271.305 1.38446 269.921 3.08357 269.921C4.78268 269.921 6.16713 271.305 6.16713 273.004Z" fill="black"/>
<path d="M67.0304 253.747C67.0304 255.447 65.646 256.831 63.9469 256.831C62.2477 256.831 60.8633 255.447 60.8633 253.747C60.8633 252.048 62.2477 250.664 63.9469 250.664C65.646 250.664 67.0304 252.048 67.0304 253.747Z" fill="black"/>
<path d="M599.24 199.019C599.24 199.837 598.579 200.498 597.761 200.498C596.943 200.498 596.282 199.837 596.282 199.019C596.282 198.201 596.943 197.54 597.761 197.54C598.579 197.54 599.24 198.201 599.24 199.019Z" fill="black"/>
<path d="M575.243 435.292C576.059 435.292 576.721 434.63 576.721 433.813C576.721 432.997 576.059 432.334 575.243 432.334C574.426 432.334 573.764 432.997 573.764 433.813C573.764 434.63 574.426 435.292 575.243 435.292Z" fill="black"/>
<path d="M83.2035 281.678C84.0202 281.678 84.6823 281.016 84.6823 280.199C84.6823 279.383 84.0202 278.72 83.2035 278.72C82.3867 278.72 81.7246 279.383 81.7246 280.199C81.7246 281.016 82.3867 281.678 83.2035 281.678Z" fill="black"/>
<path d="M522.801 445.823C522.801 446.641 522.141 447.302 521.323 447.302C520.504 447.302 519.844 446.641 519.844 445.823C519.844 445.005 520.504 444.344 521.323 444.344C522.141 444.344 522.801 445.005 522.801 445.823Z" fill="black"/>
<path d="M552.839 199.596C552.839 200.414 552.179 201.074 551.361 201.074C550.543 201.074 549.882 200.414 549.882 199.596C549.882 198.777 550.543 198.117 551.361 198.117C552.179 198.117 552.839 198.777 552.839 199.596Z" fill="black"/>
<path d="M226.359 40.4016C225.888 41.0729 224.975 41.2302 224.304 40.7687C223.633 40.2967 223.475 39.3842 223.937 38.713C224.409 38.0417 225.321 37.8844 225.992 38.3459C226.664 38.8178 226.821 39.7303 226.359 40.4016Z" fill="black"/>
<path d="M227.135 81.0026C226.254 82.2612 224.513 82.5758 223.244 81.6843C221.985 80.8033 221.671 79.0622 222.562 77.7931C223.443 76.5345 225.184 76.2198 226.453 77.1113C227.712 77.9924 228.027 79.7335 227.135 81.0026Z" fill="black"/>
<path d="M253.251 43.6949C252.37 44.9536 250.629 45.2682 249.36 44.3767C248.101 43.4957 247.787 41.7546 248.678 40.4855C249.559 39.2269 251.3 38.9122 252.569 39.8037C253.828 40.6848 254.143 42.4258 253.251 43.6949Z" fill="black"/>
<path d="M195.114 379.609C195.827 379.609 196.404 379.031 196.404 378.319C196.404 377.606 195.827 377.029 195.114 377.029C194.402 377.029 193.824 377.606 193.824 378.319C193.824 379.031 194.402 379.609 195.114 379.609Z" fill="black"/>
<path d="M160.377 398.289C160.377 399.799 159.15 401.026 157.64 401.026C156.129 401.026 154.902 399.799 154.902 398.289C154.902 396.779 156.129 395.552 157.64 395.552C159.15 395.552 160.377 396.779 160.377 398.289Z" fill="black"/>
<path d="M560.884 169.567C560.884 170.888 559.814 171.958 558.493 171.958C557.171 171.958 556.101 170.888 556.101 169.567C556.101 168.245 557.171 167.176 558.493 167.176C559.814 167.176 560.884 168.245 560.884 169.567Z" fill="black"/>
<path d="M470.275 93.2633H494.273C502.81 93.2633 509.722 86.3514 509.722 77.8138C509.722 69.2762 502.81 62.3643 494.273 62.3643H470.275C461.748 62.3643 454.826 69.2762 454.826 77.8138C454.826 86.3514 461.738 93.2633 470.275 93.2633Z" fill="#000201"/>
<path d="M494.284 93.9975H470.286C461.361 93.9975 454.113 86.7395 454.113 77.8243C454.113 68.9091 461.371 61.6511 470.286 61.6511H494.284C503.209 61.6511 510.457 68.9091 510.457 77.8243C510.457 86.7395 503.199 93.9975 494.284 93.9975ZM470.276 63.0985C462.158 63.0985 455.561 69.7063 455.561 77.8138C455.561 85.9214 462.168 92.5396 470.276 92.5396H494.273C502.391 92.5396 508.988 85.9319 508.988 77.8138C508.988 69.6958 502.381 63.0985 494.273 63.0985H470.276Z" fill="#000201"/>
<path d="M493.812 80.5095C492.322 80.5095 491.116 79.3033 491.116 77.8139C491.116 76.3246 492.322 75.1184 493.812 75.1184C495.301 75.1184 496.507 76.3246 496.507 77.8139C496.507 79.3033 495.301 80.5095 493.812 80.5095ZM493.812 76.5763C493.13 76.5763 492.574 77.1322 492.574 77.8139C492.574 78.4957 493.13 79.0516 493.812 79.0516C494.493 79.0516 495.049 78.4957 495.049 77.8139C495.049 77.1322 494.493 76.5763 493.812 76.5763Z" fill="white"/>
<path d="M470.748 80.5095C469.259 80.5095 468.053 79.3033 468.053 77.8139C468.053 76.3246 469.259 75.1184 470.748 75.1184C472.238 75.1184 473.444 76.3246 473.444 77.8139C473.444 79.3033 472.238 80.5095 470.748 80.5095ZM470.748 76.5763C470.066 76.5763 469.511 77.1322 469.511 77.8139C469.511 78.4957 470.066 79.0516 470.748 79.0516C471.43 79.0516 471.986 78.4957 471.986 77.8139C471.986 77.1322 471.43 76.5763 470.748 76.5763Z" fill="white"/>
<path d="M481.845 80.5095C480.356 80.5095 479.149 79.3033 479.149 77.8139C479.149 76.3246 480.356 75.1184 481.845 75.1184C483.334 75.1184 484.54 76.3246 484.54 77.8139C484.54 79.3033 483.334 80.5095 481.845 80.5095ZM481.845 76.5763C481.163 76.5763 480.607 77.1322 480.607 77.8139C480.607 78.4957 481.163 79.0516 481.845 79.0516C482.527 79.0516 483.083 78.4957 483.083 77.8139C483.083 77.1322 482.527 76.5763 481.845 76.5763Z" fill="white"/>
</g>
<defs>
<linearGradient id="paint0_linear_1_293" x1="637.326" y1="371.736" x2="616.162" y2="352.11" gradientUnits="userSpaceOnUse">
<stop stop-color="white"/>
<stop offset="0.94" stop-color="#F9F9F9"/>
</linearGradient>
<linearGradient id="paint1_linear_1_293" x1="573.285" y1="312.327" x2="552.128" y2="292.708" gradientUnits="userSpaceOnUse">
<stop stop-color="white"/>
<stop offset="0.94" stop-color="#F9F9F9"/>
</linearGradient>
<clipPath id="clip0_1_293">
<rect width="680" height="455" fill="white"/>
</clipPath>
</defs>
</svg>
