<svg width="36" height="41" viewBox="0 0 36 41" fill="none" xmlns="http://www.w3.org/2000/svg">
<g clip-path="url(#clip0_1_18)">
<path d="M35.8041 11.9124V21.8432C34.8877 20.6589 33.4419 19.8912 31.818 19.8912C30.194 19.8912 28.7482 20.6589 27.8319 21.8432V11.9124C27.8319 9.7446 29.6137 7.98325 31.818 7.98325C32.9227 7.98325 33.9154 8.42484 34.6383 9.13239C35.3561 9.84496 35.8041 10.8285 35.8041 11.9124Z" fill="#AAC2F1"/>
<path d="M35.8035 36.41V24.8183C35.8035 22.6482 34.0188 20.8891 31.8174 20.8891H31.8123C29.6108 20.8891 27.8262 22.6482 27.8262 24.8183V36.41C27.8262 38.5801 29.6108 40.3392 31.8123 40.3392H31.8174C34.0188 40.3392 35.8035 38.5801 35.8035 36.41Z" fill="#2A67DC"/>
<path d="M21.8904 4.76087V20.5879C20.974 19.4036 19.5282 18.6359 17.9043 18.6359C16.2803 18.6359 14.8294 19.4036 13.9131 20.5879V4.76087C13.9131 2.59306 15.7 0.831709 17.9043 0.831709C19.0039 0.831709 20.0017 1.2733 20.7246 1.98587C21.4475 2.69844 21.8904 3.67696 21.8904 4.76087Z" fill="#2A67DC"/>
<path d="M13.9129 29.2589V23.5684C13.9129 21.3956 15.6998 19.6392 17.899 19.6392C20.1034 19.6392 21.8851 21.4006 21.8851 23.5684V29.2589C21.8851 31.4317 20.0983 33.1881 17.899 33.1881C15.6947 33.1881 13.9129 31.4267 13.9129 29.2589Z" fill="#AAC2F1"/>
<path d="M7.97696 27.9044V36.4101C7.97696 38.5829 6.19009 40.3392 3.98577 40.3392C2.88616 40.3392 1.88836 39.9027 1.16547 39.1901C0.44767 38.4775 -0.000320435 37.494 -0.000320435 36.4101V27.9094C0.916023 29.0937 2.36181 29.8615 3.98577 29.8615C5.60974 29.8615 7.06061 29.0937 7.97696 27.9044Z" fill="#2A67DC"/>
<path d="M-0.000228882 24.9288V11.9169C-0.000228882 9.74405 1.78664 7.98772 3.98586 7.98772C6.19018 7.98772 7.97196 9.74906 7.97196 11.9169V24.9288C7.97196 27.1016 6.18509 28.8579 3.98586 28.8579C1.78155 28.8579 -0.000228882 27.0966 -0.000228882 24.9288Z" fill="#AAC2F1"/>
</g>
<defs>
<clipPath id="clip0_1_18">
<rect width="35.8036" height="39.5074" fill="white" transform="translate(0 0.831774)"/>
</clipPath>
</defs>
</svg>
