<svg width="87" height="95" viewBox="0 0 87 95" fill="none" xmlns="http://www.w3.org/2000/svg">
<g clip-path="url(#clip0_1_61)">
<path d="M86.5017 26.6446V50.5244C84.3006 47.6766 80.8279 45.8305 76.9271 45.8305C73.0264 45.8305 69.5536 47.6766 67.3525 50.5244V26.6446C67.3525 21.4319 71.6324 17.1965 76.9271 17.1965C79.5806 17.1965 81.9651 18.2584 83.7015 19.9598C85.4256 21.6732 86.5017 24.0383 86.5017 26.6446Z" fill="#AAC2F1"/>
<path d="M86.5 85.552V57.6782C86.5 52.4602 82.2133 48.2301 76.9254 48.2301H76.9132C71.6253 48.2301 67.3386 52.4602 67.3386 57.6782V85.552C67.3386 90.77 71.6253 95.0001 76.9132 95.0001H76.9254C82.2133 95.0001 86.5 90.77 86.5 85.552Z" fill="#2A67DC"/>
<path d="M53.0795 9.44796V47.5059C50.8785 44.6582 47.4057 42.812 43.505 42.812C39.6042 42.812 36.1192 44.6582 33.9182 47.5059V9.44796C33.9182 4.23521 38.2102 -0.000152588 43.505 -0.000152588C46.1462 -0.000152588 48.5429 1.0617 50.2793 2.77516C52.0157 4.48861 53.0795 6.84159 53.0795 9.44796Z" fill="#2A67DC"/>
<path d="M33.9182 68.3563V54.6728C33.9182 49.448 38.2102 45.2247 43.4927 45.2247C48.7875 45.2247 53.0673 49.4601 53.0673 54.6728V68.3563C53.0673 73.5811 48.7753 77.8044 43.4927 77.8044C38.198 77.8044 33.9182 73.569 33.9182 68.3563Z" fill="#AAC2F1"/>
<path d="M19.6606 65.0992V85.5521C19.6606 90.7769 15.3685 95.0002 10.0738 95.0002C7.43252 95.0002 5.03582 93.9504 3.29943 92.2369C1.57528 90.5235 0.499207 88.1584 0.499207 85.5521V65.1113C2.70026 67.959 6.17303 69.8052 10.0738 69.8052C13.9745 69.8052 17.4595 67.959 19.6606 65.0992Z" fill="#2A67DC"/>
<path d="M0.49939 57.944V26.6554C0.49939 21.4306 4.79144 17.2073 10.074 17.2073C15.3687 17.2073 19.6485 21.4426 19.6485 26.6554V57.944C19.6485 63.1688 15.3565 67.3921 10.074 67.3921C4.77921 67.3921 0.49939 63.1567 0.49939 57.944Z" fill="#AAC2F1"/>
</g>
<defs>
<clipPath id="clip0_1_61">
<rect width="86" height="95" fill="white" transform="translate(0.5)"/>
</clipPath>
</defs>
</svg>
