<svg width="61" height="61" viewBox="0 0 61 61" fill="none" xmlns="http://www.w3.org/2000/svg">
<path d="M42.6211 0.683097C42.7342 0.738332 42.8472 0.793568 42.9637 0.850477C44.4542 1.64903 45.3225 2.98687 46.1194 4.43241C46.2495 4.66317 46.3797 4.89392 46.51 5.12459C46.6438 5.3619 46.7769 5.5996 46.9099 5.83736C47.3252 6.57841 47.7524 7.31269 48.1782 8.04782C48.3456 8.33792 48.513 8.62804 48.6803 8.9182C48.8046 9.13362 48.8046 9.13362 48.9314 9.35339C49.852 10.9491 50.7725 12.5448 51.6931 14.1405C51.776 14.2841 51.8588 14.4276 51.9442 14.5756C52.1117 14.8659 52.2792 15.1563 52.4466 15.4466C52.8632 16.1687 53.2799 16.8907 53.697 17.6126C54.3818 18.798 55.0664 19.9834 55.7448 21.1725C55.7896 21.251 55.8344 21.3295 55.8805 21.4104C56.0612 21.7271 56.2418 22.0438 56.4221 22.3606C56.9016 23.203 57.3845 24.0431 57.8789 24.8769C57.9633 25.0196 58.0477 25.1623 58.1346 25.3094C58.2918 25.5744 58.4498 25.839 58.6088 26.103C59.761 28.0479 60.3825 29.9182 59.8697 32.184C59.4014 33.8284 58.3451 35.2389 56.8684 36.1236C55.5659 36.8451 54.0776 37.1837 52.6554 37.5906C52.3975 37.665 52.1396 37.7393 51.8817 37.8138C51.1848 38.0147 50.4876 38.2148 49.7903 38.4145C49.3546 38.5394 48.919 38.6644 48.4834 38.7895C46.9636 39.2258 45.4436 39.6613 43.9234 40.0961C42.5058 40.5016 41.0889 40.909 39.6722 41.3174C38.4551 41.6681 37.2375 42.0173 36.0197 42.3654C35.2925 42.5733 34.5656 42.7818 33.8391 42.9918C33.1571 43.1889 32.4745 43.3842 31.7915 43.5781C31.5406 43.6496 31.29 43.7218 31.0395 43.7948C30.6984 43.894 30.3566 43.9908 30.0147 44.087C29.915 44.1166 29.8154 44.1462 29.7127 44.1766C29.3184 44.2853 29.0406 44.36 28.6439 44.2368C28.3302 43.9923 28.1667 43.7105 27.9628 43.3697C27.8762 43.2266 27.7895 43.0835 27.7002 42.9361C27.6078 42.7806 27.5154 42.6251 27.423 42.4695C27.3267 42.3098 27.2302 42.1501 27.1335 41.9905C26.9876 41.7495 26.8417 41.5084 26.6964 41.2671C26.2975 40.6049 25.8882 39.9498 25.473 39.2977C24.878 38.3598 24.2871 37.4194 23.6988 36.4773C23.6144 36.3422 23.53 36.207 23.443 36.0677C23.271 35.7922 23.099 35.5167 22.927 35.2411C22.5066 34.5679 22.0859 33.8948 21.6651 33.2218C21.4978 32.954 21.3304 32.6862 21.163 32.4184C21.0801 32.2858 20.9973 32.1532 20.9119 32.0167C19.9913 30.5437 19.0707 29.0708 18.1502 27.5978C18.0671 27.465 17.9841 27.3323 17.8985 27.1955C17.7327 26.93 17.5672 26.6644 17.4019 26.3986C17.0093 25.7677 16.614 25.1391 16.2087 24.5163C16.0636 24.2931 15.9195 24.0692 15.7754 23.8454C15.5932 23.5625 15.4094 23.2807 15.2236 23.0001C15.1019 22.8101 15.1019 22.8101 14.9778 22.6162C14.905 22.5048 14.8322 22.3934 14.7573 22.2787C14.6352 21.9739 14.6352 21.9739 14.7246 21.6909C14.8943 21.4505 15.0634 21.2451 15.2723 21.0381C15.3815 20.9292 15.3815 20.9292 15.493 20.8181C15.5689 20.7438 15.6449 20.6695 15.7231 20.593C15.8324 20.4838 15.8324 20.4838 15.9439 20.3725C16.3338 19.9867 16.7325 19.6177 17.149 19.2607C17.8417 18.6609 18.478 18.0063 19.121 17.3542C20.4623 15.9936 20.4623 15.9936 21.0584 15.4837C21.7683 14.8757 22.4154 14.203 23.0711 13.5379C23.8074 12.7911 24.5433 12.0545 25.3407 11.3724C25.927 10.8497 26.4701 10.2808 27.0213 9.72162C28.3626 8.36105 28.3626 8.36105 28.9587 7.85115C29.6687 7.24315 30.3158 6.57044 30.9715 5.90536C31.7168 5.14943 32.462 4.40423 33.2697 3.71418C33.6092 3.41172 33.9169 3.08322 34.2288 2.75269C36.3675 0.501657 39.6303 -0.914673 42.6211 0.683097Z" fill="#2A67DC"/>
<path d="M11.2867 24.1179C11.4971 24.3865 11.4971 24.3865 11.724 24.7665C11.809 24.907 11.894 25.0476 11.9816 25.1924C12.0736 25.3475 12.1656 25.5027 12.2575 25.6578C12.3534 25.8171 12.4495 25.9762 12.5457 26.1353C12.6941 26.3807 12.8424 26.6262 12.9902 26.872C13.4648 27.6615 13.952 28.4429 14.4418 29.223C14.608 29.4884 14.7742 29.7537 14.9403 30.0191C15.0223 30.15 15.1043 30.2809 15.1888 30.4157C15.6071 31.0835 16.0245 31.7518 16.442 32.42C16.6094 32.6878 16.7768 32.9556 16.9442 33.2234C18.6258 35.914 20.3075 38.6047 21.9891 41.2953C22.0756 41.4336 22.1621 41.5719 22.2512 41.7144C22.4213 41.9868 22.5913 42.2593 22.7611 42.5319C23.1368 43.1346 23.5143 43.7357 23.9004 44.3317C23.9644 44.4313 24.0283 44.5309 24.0943 44.6335C24.2114 44.8154 24.3295 44.9966 24.449 45.177C24.5802 45.3817 24.6972 45.5955 24.811 45.8104C24.647 46.3025 24.5326 46.3323 24.0892 46.5756C23.9651 46.6447 23.8409 46.7137 23.7131 46.7849C23.5109 46.8949 23.5109 46.8949 23.3046 47.0072C23.0224 47.1631 22.7403 47.3191 22.4583 47.4753C22.2428 47.5941 22.2428 47.5941 22.023 47.7153C21.6218 47.9392 21.2245 48.1685 20.8284 48.4011C18.4093 49.8214 18.4093 49.8214 17.0446 50.2292C16.9143 50.2713 16.7839 50.3135 16.6497 50.3568C13.6067 51.1803 10.1809 50.7253 7.40349 49.2919C4.19373 47.429 1.81392 44.3151 0.81238 40.7388C-0.0131169 37.4202 0.401734 33.9514 2.13939 30.9889C3.73613 28.5391 5.7285 27.1109 8.23719 25.6718C8.59074 25.4673 8.94143 25.2588 9.29123 25.0479C9.39546 24.9853 9.4997 24.9228 9.60709 24.8583C9.8017 24.7413 9.996 24.6237 10.1899 24.5055C10.84 24.1179 10.84 24.1179 11.2867 24.1179Z" fill="#2A67DC"/>
<path d="M34.3182 47.2818C34.5108 47.4971 34.5108 47.4971 34.6624 47.7751C34.7187 47.8765 34.775 47.9779 34.833 48.0824C34.9179 48.2454 34.9179 48.2454 35.0045 48.4117C35.0928 48.5782 35.0928 48.5782 35.1828 48.748C36.086 50.4853 36.4313 52.3915 35.9 54.3285C35.8257 54.5264 35.7449 54.722 35.6573 54.9144C35.6133 55.0135 35.5693 55.1125 35.5239 55.2146C34.7424 56.7776 33.5351 57.6917 32.0419 58.5298C31.8796 58.6261 31.7177 58.7229 31.5559 58.8201C29.5796 59.9981 27.7753 60.4363 25.5078 59.8641C22.4852 58.9537 21.2523 56.1454 19.8566 53.5753C20.2096 53.2223 20.6255 53.052 21.0701 52.8389C22.1445 52.3121 23.1669 51.7179 24.1936 51.1048C24.8379 50.7224 25.4856 50.3456 26.1339 49.97C26.3629 49.8372 26.5915 49.7037 26.8201 49.5702C26.9625 49.4877 27.1049 49.4052 27.2517 49.3202C27.3781 49.2467 27.5046 49.1732 27.6349 49.0974C28.4138 48.6804 29.2104 48.3944 30.0553 48.1501C30.1564 48.1207 30.2575 48.0912 30.3617 48.0608C30.5738 47.9993 30.786 47.9381 30.9984 47.8772C31.3226 47.7839 31.6461 47.6882 31.9697 47.5925C32.1768 47.5328 32.3839 47.4731 32.5911 47.4137C32.6872 47.3849 32.7833 47.3562 32.8824 47.3266C33.4015 47.1806 33.8068 47.0802 34.3182 47.2818Z" fill="#2A67DC"/>
</svg>
