<svg width="71" height="71" viewBox="0 0 71 71" fill="none" xmlns="http://www.w3.org/2000/svg">
<path d="M39.6606 4.85351C40.4746 5.51277 41.2152 6.25634 41.9394 7.01159C42.0179 7.09265 42.0964 7.1737 42.1773 7.25721C42.3264 7.41216 42.4738 7.56873 42.6192 7.7272C43.4426 8.58672 44.2376 8.75232 45.4008 8.79266C45.7899 8.80025 46.179 8.80362 46.5682 8.80566C48.998 8.8185 50.9782 9.18137 52.7992 10.9112C54.8466 13.0154 54.951 15.471 54.9808 18.2768C54.9863 18.5327 54.9863 18.5327 54.9919 18.7938C54.9938 18.9465 54.9957 19.0991 54.9976 19.2564C55.1088 20.1269 55.5376 20.6361 56.1625 21.2168C60.1528 25.0533 60.1528 25.0533 60.3508 27.8557C60.3887 30.377 59.5871 32.1431 57.8699 33.9269C57.5564 34.2464 57.2379 34.5601 56.9165 34.8716C56.8355 34.9508 56.7544 35.0299 56.6709 35.1114C56.5157 35.262 56.3591 35.4112 56.2009 35.5587C56.1295 35.6276 56.058 35.6966 55.9843 35.7676C55.9215 35.8266 55.8588 35.8855 55.7941 35.9463C55.274 36.6361 55.1404 37.3251 55.1355 38.1711C55.1332 38.3108 55.1332 38.3108 55.1309 38.4534C55.1262 38.7488 55.124 39.0441 55.1225 39.3395C55.1094 41.8134 54.7795 43.871 53.0169 45.7265C50.9127 47.774 48.4571 47.8783 45.6514 47.9081C45.3954 47.9136 45.3954 47.9136 45.1343 47.9193C44.9817 47.9211 44.829 47.923 44.6717 47.9249C43.8987 48.0236 43.3522 48.3988 42.7893 48.9165C42.6708 49.0254 42.5523 49.1342 42.4302 49.2464C42.1176 49.5438 41.8154 49.8501 41.5148 50.1597C39.7898 51.934 38.1885 53.1074 35.6217 53.146C33.4174 53.1234 31.765 52.288 30.2309 50.7539C30.05 50.5693 29.8695 50.3844 29.6892 50.1992C29.5928 50.1009 29.4964 50.0025 29.397 49.9012C29.2059 49.7054 29.0162 49.5083 28.8281 49.3096C27.7879 48.2397 27.0124 47.9255 25.5131 47.896C25.3453 47.8952 25.1775 47.8945 25.0047 47.8938C22.4087 47.8657 20.1167 47.6375 18.1664 45.7617C16.4352 43.8885 16.1831 41.9572 16.1617 39.5092C16.1458 37.9746 16.1314 36.7022 15.003 35.5433C14.9376 35.4748 14.8722 35.4063 14.8049 35.3357C14.4257 34.9414 14.0347 34.5597 13.6423 34.1788C11.9268 32.5096 10.8232 30.8976 10.7735 28.4277C10.7664 26.3055 11.6535 24.5969 13.0989 23.0958C13.3512 22.8424 13.609 22.5954 13.8676 22.3484C14.0151 22.2057 14.0151 22.2057 14.1656 22.0602C14.3609 21.8723 14.558 21.6863 14.7572 21.5025C15.7824 20.5157 16.117 19.5844 16.1513 18.1671C16.1587 17.6528 16.1565 17.1386 16.1544 16.6243C16.1519 14.3858 16.616 12.5256 18.2011 10.8511C19.5961 9.5263 21.2379 8.86826 23.1521 8.85062C23.3401 8.8474 23.528 8.84406 23.716 8.8406C24.0087 8.83575 24.3013 8.83167 24.594 8.8298C26.2417 8.81724 27.2605 8.68536 28.4558 7.49911C28.6451 7.29966 28.8344 7.10018 29.0218 6.89901C31.8379 3.89379 35.8772 2.18723 39.6606 4.85351ZM41.683 23.8463C41.561 23.9681 41.561 23.9681 41.4365 24.0924C41.1711 24.3583 40.9077 24.626 40.6443 24.8938C40.4594 25.0796 40.2745 25.2654 40.0894 25.451C39.6049 25.9377 39.122 26.4259 38.6395 26.9146C38.146 27.4138 37.6508 27.9115 37.1558 28.4093C36.1864 29.3846 35.2188 30.3617 34.2524 31.3398C33.4075 30.9343 32.8485 30.238 32.2416 29.5371C31.1085 28.1503 31.1085 28.1503 29.5364 27.4094C28.8792 27.3794 28.4155 27.5116 27.8735 27.873C27.3534 28.3875 27.0693 28.8315 26.9981 29.5718C27.0973 30.7622 27.9761 31.5022 28.7835 32.3003C28.8984 32.4152 29.0132 32.5301 29.1316 32.6485C29.3735 32.8901 29.6159 33.1313 29.8589 33.3719C30.2309 33.7406 30.6009 34.1111 30.9708 34.4819C31.2065 34.7168 31.4423 34.9517 31.6783 35.1864C31.7889 35.2971 31.8996 35.4079 32.0136 35.5221C32.1173 35.6244 32.2209 35.7268 32.3277 35.8322C32.4185 35.9223 32.5092 36.0124 32.6026 36.1052C33.0785 36.5156 33.4717 36.6516 34.0964 36.6614C34.2104 36.6653 34.3244 36.6692 34.442 36.6733C35.4945 36.489 36.2303 35.4906 36.9391 34.7633C37.1652 34.5324 37.3916 34.3018 37.6184 34.0716C37.7177 33.9698 37.817 33.868 37.9192 33.7632C38.2002 33.4912 38.4843 33.2359 38.7805 32.9814C39.4867 32.3682 40.1453 31.7096 40.8068 31.049C40.9406 30.9155 41.0745 30.7821 41.2084 30.6487C41.487 30.371 41.7652 30.093 42.0433 29.8148C42.3982 29.4599 42.754 29.106 43.1101 28.7523C43.3861 28.4779 43.6614 28.2028 43.9366 27.9275C44.1307 27.7337 44.3254 27.5405 44.5201 27.3473C45.7084 26.1898 45.7084 26.1898 46.2301 24.6576C46.1623 23.9683 45.9477 23.5325 45.4848 23.0195C45.0291 22.6915 44.5777 22.5053 44.0287 22.3955C43.0634 22.5886 42.3534 23.1577 41.683 23.8463Z" fill="#2A67DC"/>
<path d="M58.797 43.2656C59.2319 43.6662 59.5117 44.0576 59.7927 44.5765C59.9157 44.8015 59.9157 44.8015 60.0413 45.0311C60.1057 45.1502 60.1057 45.1502 60.1714 45.2718C60.4011 45.6966 60.6341 46.1197 60.8668 46.5428C60.9142 46.6291 60.9615 46.7153 61.0103 46.8042C61.4632 47.6264 61.9349 48.437 62.4112 49.2458C63.0981 50.4156 63.7743 51.5909 64.4392 52.7733C64.5209 52.9177 64.6025 53.0621 64.6866 53.2108C65.5281 54.7132 66.125 56.0048 65.7095 57.7547C65.3295 58.8824 64.694 59.7436 63.6506 60.3223C61.8687 61.2008 60.0339 60.8535 58.1383 60.5996C57.9322 60.5728 57.726 60.5461 57.5197 60.5194C57.0209 60.4548 56.5222 60.3889 56.0236 60.3223C55.9702 60.4908 55.9167 60.6594 55.8616 60.8331C55.5723 61.6995 55.2235 62.5394 54.8709 63.3817C54.807 63.5388 54.7431 63.6958 54.6772 63.8576C54.1917 65.017 53.6977 66.1205 52.5568 66.7532C52.4453 66.8172 52.3337 66.8812 52.2188 66.9471C51.004 67.5286 49.7294 67.5963 48.44 67.1952C46.4677 66.3471 45.722 64.6404 44.7531 62.8401C44.3621 62.1248 43.9479 61.4234 43.5345 60.7209C43.3739 60.4454 43.2134 60.1699 43.0529 59.8943C42.7291 59.3395 42.4009 58.7875 42.0703 58.2368C41.9141 57.9728 41.7579 57.7088 41.6017 57.4448C41.5275 57.3234 41.4533 57.202 41.3769 57.077C41.3109 56.9645 41.245 56.8521 41.177 56.7363C41.1182 56.6384 41.0594 56.5405 40.9988 56.4396C40.9084 56.1621 40.9084 56.1621 41.0126 55.8628C41.2346 55.5353 41.4769 55.3787 41.8097 55.1654C42.3222 54.8191 42.796 54.4598 43.2571 54.0474C43.3746 53.9437 43.492 53.84 43.613 53.7332C43.9721 53.3959 43.9721 53.3959 44.249 52.9748C44.7347 52.3338 45.0961 51.9307 45.896 51.7918C46.7365 51.727 47.5753 51.7322 48.4178 51.7344C51.2478 51.7382 53.8524 50.3375 55.9023 48.4485C57.2899 46.9982 58.1283 45.131 58.797 43.2656Z" fill="#2A67DC"/>
<path d="M12.4806 44.6523C12.8962 45.0105 13.0944 45.4224 13.3386 45.9091C13.8003 46.7819 14.3231 47.5201 14.9767 48.2578C15.0555 48.3513 15.1343 48.4448 15.2156 48.5411C16.5271 49.9853 18.3881 50.9317 20.2462 51.4473C20.3333 51.4732 20.4204 51.4991 20.5101 51.5258C21.1637 51.6993 21.7622 51.735 22.4384 51.7246C25.5638 51.7007 25.5638 51.7007 26.7692 52.8662C27.1547 53.2943 27.514 53.7396 27.8724 54.1903C28.5583 54.9494 29.488 55.4731 30.3866 55.9454C30.5157 56.0139 30.6447 56.0824 30.7777 56.1529C30.8717 56.2017 30.9657 56.2505 31.0626 56.3008C30.8368 57.158 30.3773 57.8693 29.9272 58.6235C29.7516 58.9209 29.5761 59.2182 29.4007 59.5157C29.3095 59.6701 29.2182 59.8245 29.1242 59.9836C28.8424 60.4635 28.5639 60.9451 28.287 61.4278C28.1961 61.5864 28.1051 61.7449 28.0114 61.9082C27.8375 62.2117 27.6638 62.5153 27.4904 62.819C25.3226 66.5944 25.3226 66.5944 23.5164 67.2364C22.2111 67.5435 21.0322 67.4044 19.8605 66.7537C18.3867 65.8378 17.8409 64.3979 17.2049 62.8547C17.0817 62.5557 16.9568 62.2574 16.8317 61.9592C16.7526 61.7693 16.6736 61.5794 16.5947 61.3894C16.5574 61.3003 16.5202 61.2111 16.4818 61.1193C16.2247 60.4931 16.2247 60.4931 16.2247 60.1836C16.0603 60.2104 15.8958 60.2372 15.7264 60.2648C14.6116 60.4449 13.4967 60.6204 12.3766 60.7643C12.2057 60.7863 12.0348 60.8083 11.8587 60.8309C10.5738 60.9523 9.35324 60.8506 8.2771 60.0796C8.10317 59.9334 7.93251 59.7832 7.76575 59.6289C7.6887 59.5608 7.61166 59.4927 7.53228 59.4225C6.72971 58.6159 6.37083 57.3971 6.31836 56.2748C6.48031 54.8635 7.09543 53.7481 7.80908 52.5393C7.90854 52.3684 8.00787 52.1975 8.10708 52.0264C8.35933 51.5923 8.61321 51.1591 8.8675 50.7261C9.09381 50.3401 9.31838 49.953 9.54302 49.566C9.93901 48.8843 10.3366 48.2036 10.7353 47.5236C10.9503 47.1567 11.1649 46.7897 11.3793 46.4226C11.5066 46.2052 11.6339 45.9878 11.7612 45.7704C11.8188 45.6719 11.8763 45.5733 11.9356 45.4718C12.326 44.807 12.326 44.807 12.4806 44.6523Z" fill="#2A67DC"/>
</svg>
