<svg width="63" height="63" viewBox="0 0 63 63" fill="none" xmlns="http://www.w3.org/2000/svg">
<path d="M8.34048 33.4052C8.51653 33.4045 8.69257 33.4036 8.86861 33.4026C9.34174 33.4003 9.81481 33.4012 10.2879 33.4027C10.786 33.404 11.284 33.4028 11.7821 33.4021C12.6179 33.4012 13.4536 33.4023 14.2894 33.4047C15.2523 33.4074 16.2151 33.4065 17.1779 33.4038C18.0085 33.4015 18.8391 33.4012 19.6697 33.4025C20.1641 33.4033 20.6584 33.4034 21.1528 33.4018C21.6177 33.4003 22.0826 33.4014 22.5475 33.4042C22.797 33.4051 23.0465 33.4037 23.296 33.4021C25.0742 33.4184 26.5747 33.9907 27.8936 35.1915C29.2254 36.5846 29.569 38.2632 29.5674 40.1235C29.5682 40.2993 29.569 40.475 29.5699 40.6507C29.5721 41.1264 29.5727 41.6021 29.5728 42.0779C29.573 42.3758 29.5735 42.6737 29.5742 42.9716C29.5765 44.013 29.5775 45.0544 29.5773 46.0958C29.5771 47.0631 29.5797 48.0303 29.5836 48.9976C29.5868 49.8307 29.5881 50.6638 29.588 51.4969C29.5879 51.9933 29.5886 52.4896 29.5912 52.986C29.5936 53.4536 29.5936 53.9212 29.5918 54.3889C29.5915 54.6397 29.5935 54.8905 29.5956 55.1413C29.5853 56.6728 29.2508 57.9706 28.3012 59.1856C28.2471 59.2612 28.193 59.3367 28.1373 59.4144C27.236 60.5884 25.7206 61.3005 24.2739 61.498C23.6435 61.5556 23.0092 61.5428 22.3767 61.5434C22.2149 61.544 22.0531 61.5446 21.8864 61.5452C21.4443 61.5468 21.0021 61.5476 20.56 61.5482C20.2829 61.5485 20.0058 61.549 19.7288 61.5496C18.8596 61.5513 17.9904 61.5525 17.1212 61.5529C16.1222 61.5535 15.1233 61.5556 14.1244 61.5592C13.3494 61.5619 12.5744 61.5631 11.7994 61.5633C11.3379 61.5634 10.8764 61.5641 10.4149 61.5663C9.97987 61.5684 9.54489 61.5686 9.10988 61.5675C8.87715 61.5674 8.64442 61.5691 8.4117 61.5708C6.40406 61.5612 4.71161 61.1331 3.23953 59.7326C2.05001 58.4811 1.46488 56.9939 1.4597 55.2646C1.459 55.1232 1.4583 54.9818 1.45757 54.8361C1.45744 54.6827 1.4573 54.5293 1.45716 54.3712C1.45659 54.2066 1.45597 54.042 1.4553 53.8774C1.4537 53.4314 1.4529 52.9854 1.45235 52.5395C1.45199 52.2601 1.45148 51.9807 1.45093 51.7013C1.44925 50.825 1.44806 49.9487 1.44759 49.0724C1.44704 48.065 1.44488 47.0575 1.44131 46.0501C1.43864 45.2689 1.43741 44.4876 1.43725 43.7063C1.43712 43.241 1.43641 42.7756 1.43419 42.3102C1.43214 41.8715 1.43191 41.4328 1.43298 40.994C1.43312 40.7593 1.43145 40.5245 1.42969 40.2897C1.43922 38.2836 1.89247 36.5582 3.29192 35.0766C4.74561 33.7416 6.41799 33.3933 8.34048 33.4052Z" fill="#2A67DC"/>
<path d="M40.6792 1.44284C40.841 1.44222 41.0029 1.44159 41.1696 1.44094C41.6097 1.43931 42.0498 1.43922 42.4899 1.43953C42.8592 1.43966 43.2285 1.43906 43.5979 1.43847C44.4703 1.43711 45.3427 1.43705 46.2151 1.4378C47.1107 1.43854 48.0062 1.43703 48.9018 1.43441C49.6747 1.43223 50.4476 1.4315 51.2206 1.4319C51.6804 1.43212 52.1403 1.43181 52.6001 1.43009C53.0331 1.42853 53.4661 1.4288 53.8991 1.43039C54.1306 1.43081 54.3622 1.42944 54.5937 1.42798C56.5991 1.44015 58.29 1.86867 59.7604 3.26755C60.9499 4.51905 61.5351 6.00632 61.5402 7.73558C61.5409 7.87699 61.5416 8.01839 61.5424 8.16407C61.5426 8.3942 61.5426 8.3942 61.5428 8.62898C61.5434 8.79359 61.544 8.9582 61.5446 9.1228C61.5462 9.56878 61.547 10.0148 61.5476 10.4607C61.5479 10.7401 61.5485 11.0195 61.549 11.2989C61.5507 12.1752 61.5519 13.0515 61.5523 13.9278C61.5529 14.9352 61.5551 15.9426 61.5586 16.9501C61.5613 17.7313 61.5625 18.5126 61.5627 19.2939C61.5628 19.7592 61.5635 20.2246 61.5657 20.6899C61.5678 21.1287 61.568 21.5674 61.567 22.0061C61.5668 22.2409 61.5685 22.4757 61.5702 22.7105C61.561 24.6493 61.145 26.382 59.7969 27.8279C58.6486 28.9012 57.3062 29.5431 55.7273 29.5494C55.5009 29.5508 55.5009 29.5508 55.27 29.5521C55.1037 29.5525 54.9375 29.5528 54.7712 29.5531C54.5953 29.5539 54.4194 29.5547 54.2435 29.5556C53.6667 29.5581 53.0899 29.5594 52.5131 29.5606C52.314 29.5611 52.1149 29.5617 51.9157 29.5622C50.9796 29.5645 50.0436 29.5663 49.1075 29.5673C48.0298 29.5685 46.9522 29.5717 45.8746 29.5767C45.0398 29.5804 44.2051 29.5822 43.3703 29.5826C42.8726 29.5829 42.3749 29.584 41.8773 29.5871C41.4083 29.59 40.9394 29.5905 40.4705 29.5893C40.2995 29.5892 40.1284 29.59 39.9574 29.5917C38.0759 29.6093 36.5082 29.085 35.1063 27.8087C33.7746 26.4155 33.431 24.737 33.4325 22.8766C33.4318 22.7009 33.4309 22.5252 33.43 22.3494C33.4278 21.8737 33.4273 21.398 33.4271 20.9223C33.4269 20.6244 33.4264 20.3265 33.4258 20.0286C33.4235 18.9872 33.4225 17.9458 33.4227 16.9044C33.4228 15.9371 33.4202 14.9698 33.4163 14.0026C33.4131 13.1695 33.4118 12.3364 33.412 11.5033C33.412 11.0069 33.4113 10.5105 33.4087 10.0142C33.4063 9.54653 33.4063 9.07895 33.4081 8.61131C33.4085 8.36051 33.4064 8.1097 33.4043 7.8589C33.4161 6.10999 33.8935 4.6169 35.0631 3.29591C36.66 1.74945 38.5389 1.4385 40.6792 1.44284Z" fill="#2A67DC"/>
<path d="M8.75506 1.45667C8.91684 1.45606 9.07862 1.45545 9.2453 1.45482C9.68746 1.45321 10.1296 1.45241 10.5718 1.45186C10.8488 1.4515 11.1259 1.45099 11.4029 1.45045C12.2721 1.44877 13.1413 1.44758 14.0105 1.4471C15.0095 1.44655 16.0084 1.44439 17.0073 1.44082C17.7823 1.43815 18.5573 1.43692 19.3323 1.43676C19.7938 1.43663 20.2553 1.43592 20.7168 1.4337C21.1519 1.43166 21.5868 1.43142 22.0218 1.43249C22.2546 1.43263 22.4873 1.43096 22.72 1.4292C24.7223 1.4388 26.4455 1.89499 27.9239 3.29144C29.259 4.74512 29.6073 6.4175 29.5954 8.33999C29.596 8.51604 29.5969 8.69208 29.598 8.86812C29.6002 9.34125 29.5994 9.81432 29.5978 10.2875C29.5965 10.7855 29.5977 11.2835 29.5985 11.7816C29.5994 12.6174 29.5982 13.4532 29.5959 14.289C29.5932 15.2518 29.594 16.2146 29.5968 17.1774C29.599 18.008 29.5993 18.8386 29.598 19.6692C29.5973 20.1636 29.5971 20.6579 29.5988 21.1523C29.6002 21.6172 29.5992 22.0821 29.5964 22.547C29.5954 22.7965 29.5969 23.046 29.5984 23.2955C29.5821 25.0737 29.0098 26.5743 27.809 27.8931C26.4159 29.2249 24.7374 29.5685 22.877 29.5669C22.7013 29.5677 22.5255 29.5685 22.3498 29.5694C21.8741 29.5716 21.3984 29.5722 20.9227 29.5723C20.6248 29.5725 20.3269 29.573 20.0289 29.5737C18.9875 29.576 17.9461 29.577 16.9047 29.5768C15.9374 29.5766 14.9702 29.5792 14.0029 29.5831C13.1698 29.5863 12.3367 29.5877 11.5036 29.5875C11.0073 29.5874 10.5109 29.5881 10.0145 29.5907C9.54689 29.5931 9.07931 29.5931 8.61167 29.5914C8.36087 29.591 8.11006 29.593 7.85926 29.5952C6.32775 29.5848 5.02996 29.2503 3.81489 28.3007C3.73939 28.2466 3.66389 28.1925 3.5861 28.1368C2.41224 27.2356 1.70015 25.7204 1.50267 24.2739C1.44459 23.6409 1.4566 23.0039 1.45522 22.3688C1.45445 22.2046 1.45363 22.0403 1.45277 21.8761C1.4502 21.339 1.44891 20.8018 1.44768 20.2647C1.44718 20.0787 1.44668 19.8928 1.44616 19.7068C1.44382 18.8324 1.44207 17.9579 1.44104 17.0835C1.43984 16.0792 1.43661 15.0749 1.43163 14.0706C1.4279 13.2911 1.42609 12.5116 1.42569 11.7321C1.4254 11.2681 1.42433 10.8041 1.4212 10.3401C1.38847 5.21086 1.38847 5.21086 3.29963 3.1607C4.87844 1.67619 6.68025 1.45855 8.75506 1.45667Z" fill="#2A67DC"/>
<path d="M56.1129 36.3682C59.1504 38.8588 61.0166 42.0887 61.4852 46.0273C61.5005 46.2297 61.5133 46.4322 61.5236 46.6349C61.5334 46.8033 61.5334 46.8033 61.5433 46.9752C61.6585 50.8816 60.2025 54.3391 57.6289 57.2121C54.9919 59.9769 51.5483 61.3005 47.7847 61.5538C43.8789 61.636 40.357 60.1037 37.5295 57.463C35.76 55.6935 34.4882 53.4791 33.8381 51.0646C33.7989 50.9207 33.7597 50.7768 33.7194 50.6286C32.8584 46.8632 33.6444 42.9642 35.6646 39.7167C36.0342 39.1488 36.4559 38.6424 36.9143 38.1447C36.9733 38.0804 37.0323 38.0162 37.0931 37.95C38.8118 36.1006 40.8343 34.8507 43.2204 34.038C43.306 34.0086 43.3916 33.9792 43.4798 33.949C47.7557 32.5712 52.6186 33.6426 56.1129 36.3682Z" fill="#2A67DC"/>
</svg>
