<svg width="227" height="227" viewBox="0 0 227 227" fill="none" xmlns="http://www.w3.org/2000/svg">
<g opacity="0.1" clip-path="url(#clip0_1446_3897)">
<path d="M0 127.244C18.7275 127.244 37.455 127.244 56.75 127.244C57.6278 131.633 57.6278 131.633 58.5234 136.111C63.1767 150.443 71.2363 161.132 83.7966 169.348C87.5595 171.851 87.5595 171.851 88.2285 174.24C88.8962 177.817 87.3651 180.12 85.5684 183.107C85.077 183.987 84.5943 184.871 84.1113 185.755C81.9403 189.72 79.67 193.626 77.3853 197.526C75.0911 201.442 72.8216 205.372 70.5605 209.308C69.3238 211.457 68.0823 213.604 66.8226 215.739C66.6165 216.089 66.4105 216.44 66.1982 216.8C64.8469 218.868 63.1181 219.837 60.7402 220.35C58.1073 220.199 56.2945 219.62 54.0621 218.188C53.7794 218.012 53.4966 217.837 53.2053 217.656C42.397 210.824 32.2647 202.066 24.3848 191.975C24.0401 191.549 23.6955 191.123 23.3404 190.684C9.36404 173.108 0 149.809 0 127.244Z" fill="#2966DC"/>
<path d="M170.25 127.244C188.978 127.244 207.705 127.244 227 127.244C227 150.889 216.968 174.257 202.172 192.418C201.878 192.781 201.878 192.781 201.578 193.151C196.604 199.234 191.116 204.912 184.881 209.709C184.246 210.222 184.246 210.222 183.598 210.746C180.744 213.019 177.788 215.063 174.712 217.024C174.355 217.253 173.998 217.483 173.63 217.719C170.914 219.421 168.611 220.696 165.349 220.138C162.148 219.277 160.736 216.826 159.166 214.143C158.3 212.615 157.451 211.078 156.606 209.538C154.788 206.234 152.89 202.979 150.983 199.724C148.689 195.808 146.42 191.878 144.158 187.942C142.714 185.432 141.249 182.938 139.731 180.471C138.58 178.44 138.524 176.513 138.772 174.24C139.81 171.283 141.772 170.191 144.366 168.56C145.979 167.539 147.489 166.402 148.997 165.234C149.361 164.955 149.361 164.955 149.733 164.669C151.073 163.632 151.073 163.632 152.257 162.424C152.959 161.826 152.959 161.826 153.806 161.768C154.278 161.844 154.278 161.844 154.759 161.921C155.113 161.973 155.468 162.026 155.832 162.08C156.385 162.174 156.385 162.174 156.95 162.27C157.303 162.323 157.656 162.377 158.02 162.432C159.148 162.605 160.274 162.789 161.4 162.976C161.811 163.043 162.221 163.111 162.643 163.18C163.941 163.393 165.239 163.607 166.537 163.821C167.838 164.035 169.139 164.249 170.441 164.463C171.246 164.595 172.052 164.728 172.858 164.861C178.928 166.195 178.928 166.195 184.826 165.124C186.498 163.819 186.996 162.983 187.541 160.939C187.425 158.234 186.827 156.583 185.158 154.428C184.962 154.164 184.766 153.9 184.564 153.628C182.78 151.261 180.871 149.001 178.934 146.759C177.641 145.251 176.407 143.707 175.183 142.143C174.454 141.25 173.712 140.395 172.938 139.542C172.714 139.29 172.489 139.039 172.258 138.779C171.817 138.287 171.37 137.801 170.917 137.321C169.878 136.151 169.383 135.363 169.17 133.803C169.424 131.602 169.854 129.424 170.25 127.244Z" fill="#2966DC"/>
<path d="M110.405 6.62096C128.356 6.11554 148.928 9.14267 164.486 18.6211C164.228 20.3084 163.748 21.5147 162.875 22.9768C162.631 23.3902 162.387 23.8036 162.135 24.2296C161.868 24.674 161.602 25.1184 161.327 25.5763C160.757 26.5396 160.187 27.5031 159.618 28.4668C159.323 28.9644 159.027 29.462 158.723 29.9746C157.31 32.3683 155.924 34.7774 154.538 37.1868C153.98 38.1555 153.422 39.1242 152.863 40.0929C152.448 40.8145 152.448 40.8145 152.024 41.5507C150.364 44.4309 148.703 47.3101 147.04 50.1888C145.741 52.4392 144.444 54.6904 143.151 56.9447C142.541 58.0093 141.93 59.0735 141.318 60.1376C140.887 60.8887 140.457 61.6406 140.028 62.3924C139.766 62.8474 139.505 63.3023 139.235 63.771C139.006 64.1713 138.777 64.5716 138.54 64.984C137.93 65.9854 137.275 66.9103 136.554 67.834C133.974 67.4057 131.504 66.5324 129.021 65.7324C117.491 62.1583 104.122 62.8489 92.9786 67.4547C91.6627 67.8694 91.2532 67.907 90.0015 67.3906C89.336 66.5465 89.336 66.5465 88.7044 65.425C88.3444 64.7963 88.3444 64.7963 87.9771 64.1549C87.7216 63.6956 87.4661 63.2363 87.2028 62.7631C86.9316 62.2866 86.6604 61.8102 86.381 61.3193C85.8055 60.3083 85.2321 59.296 84.6609 58.2825C83.5604 56.3359 82.4414 54.4004 81.3211 52.4652C80.4862 51.0231 79.6539 49.5796 78.8223 48.1357C77.1558 45.2427 75.4876 42.3507 73.8189 39.459C72.2489 36.738 70.679 34.017 69.1104 31.2953C68.4995 30.2352 67.8884 29.1753 67.2773 28.1153C66.8469 27.3687 66.4167 26.6219 65.9865 25.8751C65.5943 25.1948 65.5943 25.1948 65.1942 24.5008C64.9649 24.1029 64.7356 23.7049 64.4993 23.2949C64.0491 22.5215 63.5692 21.7647 63.0662 21.0246C62.5133 19.9512 62.5133 19.9512 62.5513 18.9835C63.0739 17.9446 63.5103 17.7301 64.5655 17.2564C64.9092 17.1002 65.2529 16.9441 65.607 16.7832C66.1742 16.5408 66.1742 16.5408 66.7529 16.2935C67.147 16.1216 67.5411 15.9497 67.9472 15.7726C81.4935 10.0029 95.7137 7.10381 110.405 6.62096Z" fill="#2966DC"/>
<path d="M51.4297 25.2715C51.6777 25.7241 51.9258 26.1768 52.1813 26.6431C54.5872 31.0134 57.0662 35.3361 59.5888 39.64C61.622 43.1131 63.6253 46.6026 65.6172 50.0996C67.8766 54.0659 70.1559 58.0198 72.4615 61.9595C73.2031 63.2304 73.9443 64.5016 74.6853 65.7728C75.1331 66.5398 75.5822 67.306 76.0327 68.0715C76.6199 69.0706 77.2017 70.0728 77.7819 71.076C77.9521 71.3625 78.1224 71.649 78.2979 71.9442C78.6874 72.6242 79.0294 73.3311 79.3613 74.041C78.8234 75.6547 78.2671 75.9701 76.9229 76.9783C69.1219 83.0973 63.4692 91.5273 59.9366 100.753C59.8188 101.053 59.7009 101.353 59.5794 101.662C58.1336 105.672 57.5996 109.695 56.75 113.943C38.0225 113.943 19.295 113.943 0 113.943C0 107.943 0 107.943 0.294418 105.94C0.360607 105.49 0.426796 105.039 0.494991 104.575C0.606598 103.877 0.606598 103.877 0.720459 103.164C0.79915 102.667 0.877841 102.169 0.958916 101.656C5.40529 74.8423 19.9409 48.6002 41.6758 31.9219C41.9794 31.6872 42.283 31.4525 42.5958 31.2107C50.2808 25.2715 50.2808 25.2715 51.4297 25.2715Z" fill="#2966DC"/>
<path d="M175.57 25.2715C177.817 25.9809 179.474 27.335 181.306 28.7629C181.806 29.1497 181.806 29.1497 182.315 29.5442C189.622 35.2462 196.496 41.4046 202.172 48.7695C202.622 49.335 203.072 49.9001 203.523 50.465C206.998 54.864 210.04 59.4161 212.812 64.2871C213.003 64.6195 213.193 64.9519 213.389 65.2944C221.646 79.8862 227 97.1321 227 113.943C208.272 113.943 189.545 113.943 170.25 113.943C169.665 111.017 169.08 108.091 168.477 105.076C164.611 93.17 158.107 82.2016 147.639 74.9277C148.196 73.106 148.871 71.5342 149.833 69.8914C150.096 69.4394 150.359 68.9873 150.63 68.5215C150.914 68.0386 151.198 67.5557 151.49 67.0581C151.79 66.545 152.089 66.0318 152.387 65.5185C153.008 64.4531 153.629 63.3883 154.252 62.324C155.679 59.8811 157.089 57.4283 158.501 54.9766C159.055 54.0159 159.609 53.0553 160.164 52.0947C160.438 51.6192 160.712 51.1437 160.995 50.6538C163.489 46.3311 163.489 46.3311 164.322 44.8875C164.871 43.9356 165.42 42.9837 165.969 42.0317C167.273 39.7712 168.577 37.5108 169.883 35.2512C170.503 34.1784 171.122 33.1054 171.742 32.0325C172.182 31.271 172.622 30.5097 173.062 29.7484C173.326 29.2906 173.59 28.8328 173.863 28.3611C174.097 27.9562 174.331 27.5513 174.572 27.1341C174.92 26.5218 175.255 25.9016 175.57 25.2715Z" fill="#2966DC"/>
<path d="M125.01 109.834C125.677 110.332 125.677 110.332 126.358 110.84C126.596 111.015 126.834 111.19 127.079 111.371C129.992 113.522 132.78 115.783 135.441 118.244C136.038 118.79 136.637 119.333 137.254 119.856C140.153 122.321 142.819 125.017 145.503 127.71C146.335 128.545 147.169 129.377 148.004 130.208C150.637 132.841 153.209 135.487 155.619 138.328C156.338 139.115 157.058 139.901 157.781 140.683C160.602 143.775 163.205 147.031 165.817 150.299C165.67 150.591 165.524 150.884 165.373 151.186C109.035 140.418 109.035 140.418 101.031 129.433C98.6398 125.68 97.8 121.449 98.6859 117.102C99.8208 113.021 101.937 110.027 105.554 107.773C112.521 104.161 118.685 105.335 125.01 109.834Z" fill="#2966DC"/>
</g>
<defs>
<clipPath id="clip0_1446_3897">
<rect width="227" height="227" fill="white"/>
</clipPath>
</defs>
</svg>
