<svg width="24" height="24" viewBox="0 0 24 24" fill="none" xmlns="http://www.w3.org/2000/svg">
<path d="M11.3189 1.12832C11.4029 1.14164 11.487 1.1549 11.571 1.1681C11.7963 1.20365 12.0214 1.24009 12.2464 1.27673C12.4836 1.31519 12.7209 1.35287 12.9582 1.39065C13.3562 1.45413 13.754 1.51816 14.1518 1.58256C14.6101 1.65674 15.0684 1.73021 15.5269 1.80325C16.0177 1.88147 16.5086 1.96017 16.9993 2.03903C17.1396 2.06154 17.2799 2.08397 17.4202 2.10639C17.6415 2.14176 17.8626 2.17745 18.0838 2.21339C18.1644 2.22644 18.245 2.23939 18.3256 2.25223C19.3667 2.41813 20.2889 2.61911 20.981 3.49282C21.3599 4.04871 21.4922 4.5969 21.4895 5.26463C21.4897 5.32513 21.4899 5.38562 21.4903 5.44611C21.4909 5.61117 21.4909 5.77621 21.4906 5.94126C21.4905 6.11974 21.4911 6.29821 21.4916 6.47669C21.4925 6.82591 21.4927 7.17513 21.4926 7.52436C21.4926 7.80841 21.4928 8.09246 21.4931 8.3765C21.4932 8.45847 21.4932 8.54044 21.4933 8.62241C21.4934 8.68362 21.4934 8.68362 21.4935 8.74607C21.4943 9.51706 21.4942 10.2881 21.4939 11.059C21.4937 11.7633 21.4946 12.4676 21.496 13.1718C21.4974 13.896 21.4981 14.6202 21.4979 15.3444C21.4978 15.7506 21.498 16.1567 21.499 16.5629C21.4999 16.9087 21.5001 17.2545 21.4993 17.6004C21.4989 17.7766 21.4988 17.9528 21.4997 18.129C21.5045 19.1602 21.457 19.9968 20.7259 20.7873C20.0296 21.4858 19.1335 21.6149 18.2073 21.7624C18.1237 21.7759 18.0401 21.7895 17.9564 21.8031C17.7313 21.8395 17.5062 21.8756 17.281 21.9116C17.1397 21.9342 16.9985 21.9569 16.8573 21.9796C16.3631 22.059 15.8689 22.138 15.3746 22.2168C14.9163 22.2898 14.4581 22.3636 14 22.4378C13.6046 22.5018 13.2091 22.5652 12.8135 22.6281C12.5782 22.6656 12.3429 22.7033 12.1077 22.7416C11.8862 22.7777 11.6646 22.813 11.4429 22.8478C11.3623 22.8605 11.2818 22.8736 11.2013 22.8868C10.1969 23.0523 9.23871 23.1131 8.35893 22.5185C7.80271 22.1029 7.37076 21.458 7.25906 20.7579C7.24703 20.5399 7.24835 20.3222 7.24946 20.104C7.24948 20.0379 7.24947 19.9719 7.24942 19.9058C7.24939 19.7273 7.24989 19.5489 7.25048 19.3704C7.25101 19.1835 7.25106 18.9967 7.25116 18.8099C7.25142 18.4565 7.25212 18.103 7.25297 17.7496C7.25392 17.3471 7.25438 16.9446 7.2548 16.5421C7.25569 15.7144 7.25717 14.8867 7.25906 14.0591C7.17882 14.0596 7.17882 14.0596 7.09696 14.0602C6.59279 14.0637 6.08862 14.0663 5.58444 14.068C5.32524 14.0689 5.06604 14.0701 4.80684 14.072C4.55669 14.0739 4.30655 14.0749 4.0564 14.0754C3.96097 14.0757 3.86554 14.0763 3.77011 14.0772C3.63643 14.0785 3.50278 14.0786 3.36909 14.0786C3.32965 14.0792 3.29022 14.0798 3.24959 14.0804C3.01308 14.0789 2.8778 14.0479 2.69036 13.8873C2.53687 13.7233 2.50804 13.5917 2.5 13.372C2.50804 13.1523 2.53687 13.0207 2.69036 12.8567C2.92347 12.6488 3.13585 12.6611 3.43722 12.6643C3.48719 12.6641 3.53716 12.664 3.58864 12.6638C3.72698 12.6636 3.8653 12.6641 4.00364 12.665C4.15295 12.6657 4.30226 12.6655 4.45158 12.6654C4.71015 12.6653 4.96872 12.6658 5.22729 12.6668C5.60115 12.6682 5.97499 12.6686 6.34885 12.6688C6.95542 12.6692 7.56198 12.6704 8.16855 12.672C8.75773 12.6736 9.34691 12.6748 9.9361 12.6755C9.97242 12.6755 10.0087 12.6756 10.0462 12.6756C10.2284 12.6759 10.4106 12.6761 10.5929 12.6763C12.1044 12.6781 13.6159 12.6811 15.1274 12.6849C15.0873 12.7327 15.0473 12.7804 15.0072 12.8282C14.9737 12.868 14.9737 12.868 14.9395 12.9087C14.8505 13.0124 14.756 13.1094 14.6597 13.2061C14.64 13.226 14.6203 13.2459 14.6 13.2664C14.5578 13.3089 14.5155 13.3514 14.4733 13.3938C14.4063 13.461 14.3395 13.5284 14.2727 13.5958C14.083 13.7873 13.8931 13.9786 13.703 14.1696C13.5862 14.287 13.4697 14.4046 13.3532 14.5223C13.309 14.567 13.2647 14.6115 13.2203 14.656C13.1583 14.7181 13.0966 14.7804 13.035 14.8428C12.9999 14.8781 12.9648 14.9134 12.9286 14.9498C12.7603 15.1404 12.7396 15.2918 12.745 15.5417C12.7704 15.7432 12.8722 15.8559 13.0175 15.986C13.1967 16.0572 13.3729 16.071 13.5622 16.0344C13.7933 15.8982 13.9704 15.718 14.158 15.5265C14.1913 15.4929 14.2247 15.4592 14.259 15.4245C14.3687 15.3135 14.478 15.2023 14.5874 15.091C14.6636 15.0137 14.7399 14.9363 14.8161 14.859C14.9757 14.6971 15.1351 14.5351 15.2945 14.373C15.4785 14.1857 15.6629 13.9987 15.8474 13.8119C16.0252 13.6318 16.2028 13.4515 16.3803 13.2711C16.4557 13.1945 16.5312 13.1179 16.6067 13.0414C16.7122 12.9346 16.8173 12.8276 16.9224 12.7204C16.9694 12.673 16.9694 12.673 17.0174 12.6245C17.0459 12.5953 17.0745 12.566 17.104 12.5359C17.1288 12.5106 17.1537 12.4854 17.1793 12.4593C17.301 12.315 17.3401 12.1917 17.343 12.0032C17.3442 11.9679 17.3454 11.9326 17.3466 11.8962C17.2953 11.5987 17.0286 11.382 16.8268 11.1783C16.7771 11.1276 16.7771 11.1276 16.7263 11.0758C16.617 10.9645 16.5074 10.8535 16.3978 10.7425C16.3216 10.6651 16.2454 10.5877 16.1693 10.5103C16.0098 10.3483 15.8502 10.1865 15.6905 10.0247C15.506 9.8379 15.3217 9.65076 15.1377 9.46346C14.9603 9.28296 14.7827 9.1027 14.605 8.92254C14.5295 8.84597 14.454 8.76934 14.3787 8.69264C14.2735 8.58563 14.168 8.47889 14.0625 8.37223C14.0157 8.32452 14.0157 8.32452 13.968 8.27584C13.9392 8.24682 13.9104 8.21781 13.8807 8.18792C13.8558 8.16268 13.8309 8.13745 13.8052 8.11145C13.6277 7.95721 13.4709 7.94271 13.2437 7.94781C13.0452 7.9736 12.9342 8.07691 12.806 8.22441C12.7359 8.40625 12.7223 8.58519 12.7584 8.77728C12.8698 8.96447 12.9961 9.11481 13.1488 9.26847C13.1703 9.29022 13.1917 9.31197 13.2139 9.33438C13.2842 9.40546 13.3548 9.47625 13.4254 9.54704C13.4744 9.59661 13.5235 9.6462 13.5726 9.69581C13.7012 9.8258 13.83 9.95555 13.959 10.0852C14.166 10.2935 14.3727 10.502 14.5792 10.7107C14.6515 10.7836 14.7239 10.8564 14.7963 10.9292C14.8403 10.9735 14.8842 11.0178 14.9281 11.0621C14.9667 11.1009 15.0053 11.1397 15.045 11.1797C15.1274 11.2679 15.1274 11.2679 15.1274 11.3108C12.5308 11.3108 9.93429 11.3108 7.25906 11.3108C7.25224 9.30882 7.25224 9.30882 7.2508 8.46839C7.2498 7.88863 7.24862 7.30887 7.2463 6.72911C7.24461 6.30683 7.24352 5.88455 7.24314 5.46227C7.24292 5.23883 7.24241 5.0154 7.24117 4.79196C7.24002 4.58129 7.23967 4.37064 7.23992 4.15997C7.23988 4.083 7.23954 4.00602 7.23889 3.92905C7.23184 3.05473 7.46775 2.37458 8.06232 1.72954C8.97126 0.839896 10.1618 0.937321 11.3189 1.12832Z" fill="white"/>
</svg>
