<svg width="76" height="76" viewBox="0 0 76 76" fill="none" xmlns="http://www.w3.org/2000/svg">
<path d="M46.6097 9.79685C46.0658 10.4499 45.5043 11.0596 44.8942 11.6509C42.8053 13.6771 41.7262 15.723 41.6643 18.688C41.6596 18.8739 41.6596 18.8739 41.6549 19.0636C41.6453 19.4568 41.6365 19.8499 41.6277 20.2431C41.6213 20.5108 41.6149 20.7785 41.6083 21.0462C41.5925 21.7001 41.5774 22.3539 41.5628 23.0078C41.1073 23.2355 40.771 23.0661 40.2825 22.9521C35.8614 21.926 31.2932 22.8542 27.4612 25.2343C23.5806 27.7714 21.1174 31.6628 20.1041 36.1437C19.2172 40.4929 20.1895 44.9978 22.5369 48.7233C22.9877 49.3983 23.512 50.0079 24.0472 50.6172C24.2217 50.8468 24.2217 50.8468 24.3997 51.081C25.009 51.7484 25.7089 52.2913 26.4222 52.8437C26.5385 52.9344 26.6549 53.0251 26.7747 53.1186C30.3487 55.7629 34.9357 56.7799 39.3108 56.1354C43.7721 55.3675 47.7757 52.9246 50.4288 49.2561C53.0013 45.551 54.0543 40.9749 53.3381 36.5057C53.2681 36.145 53.1824 35.7956 53.0899 35.4394C52.994 35.0377 52.9853 34.6998 52.9925 34.289C53.154 34.2869 53.3156 34.2847 53.482 34.2825C54.0896 34.2738 54.6971 34.2623 55.3046 34.2501C55.566 34.2452 55.8274 34.241 56.0888 34.2376C59.5511 34.1914 61.7897 33.3746 64.2569 30.8877C64.3577 30.7863 64.4585 30.6849 64.5623 30.5804C64.7639 30.3766 64.9646 30.1719 65.1643 29.9661C65.2561 29.8724 65.348 29.7788 65.4427 29.6823C65.525 29.5975 65.6072 29.5127 65.692 29.4254C65.9066 29.2422 65.9066 29.2422 66.2034 29.2422C66.7218 30.5987 67.0711 31.9561 67.3538 33.3799C67.385 33.5367 67.4163 33.6936 67.4484 33.8553C67.7001 35.163 67.8577 36.4448 67.8716 37.7767C67.8731 37.8929 67.8745 38.0091 67.876 38.1288C67.9031 40.8609 67.8377 43.4843 67.2425 46.164C67.196 46.3745 67.196 46.3745 67.1485 46.5893C65.9645 51.7378 63.4089 56.4982 59.8316 60.3752C59.5532 60.6787 59.2877 60.9894 59.0228 61.3047C54.0096 67.0307 46.0395 70.1461 38.5941 70.6562C32.7587 70.9081 26.9624 69.7737 21.8206 66.9453C21.6447 66.8517 21.4689 66.7582 21.293 66.6646C18.9385 65.3747 16.6975 63.6919 14.8441 61.75C14.7247 61.6306 14.6053 61.5112 14.4822 61.3882C14.3567 61.2626 14.2312 61.1371 14.1019 61.0078C14.0221 60.9349 13.9423 60.862 13.8601 60.7869C12.0898 59.1201 10.7163 57.0133 9.5003 54.9218C9.44776 54.8321 9.39521 54.7423 9.34107 54.6498C6.68135 50.0492 5.45953 44.804 5.45538 39.5215C5.45528 39.4064 5.45518 39.2913 5.45508 39.1728C5.4577 37.2665 5.5649 35.4209 5.9378 33.5468C5.96249 33.4197 5.98717 33.2926 6.0126 33.1617C6.96009 28.433 8.99861 23.9482 12.0237 20.1875C12.1416 20.0394 12.2595 19.8913 12.3809 19.7387C17.7334 13.1441 25.3761 9.17889 33.7878 8.25333C38.0348 7.89001 42.6156 8.22901 46.6097 9.79685Z" fill="#2A67DC"/>
<path d="M61.0449 5.57571C61.6666 5.93489 62.0461 6.32193 62.3437 6.97659C62.6377 8.30563 62.7172 9.67583 62.8076 11.0308C62.8204 11.2132 62.8332 11.3957 62.8464 11.5837C62.8775 12.0271 62.9078 12.4706 62.9375 12.9141C63.0886 12.9252 63.2398 12.9364 63.3955 12.9479C63.9611 12.9901 64.5265 13.0347 65.0919 13.0799C65.3357 13.0991 65.5796 13.1176 65.8235 13.1356C66.1759 13.1616 66.5281 13.1898 66.8803 13.2185C67.0416 13.2297 67.0416 13.2297 67.2061 13.2411C68.1539 13.3221 68.9953 13.5303 69.7378 14.1573C69.8449 14.2858 69.9521 14.4144 70.0625 14.5469C70.1513 14.651 70.24 14.7551 70.3315 14.8623C70.6321 15.59 70.6921 16.4423 70.4056 17.1879C70.0263 17.9866 69.55 18.5577 68.9229 19.175C68.8246 19.2741 68.7263 19.3732 68.625 19.4754C68.3021 19.8 67.9772 20.1225 67.6521 20.445C67.4257 20.6714 67.1994 20.8979 66.9732 21.1245C66.4999 21.5981 66.0255 22.0706 65.5504 22.5423C64.9427 23.1458 64.3373 23.7516 63.7327 24.3581C63.266 24.8258 62.7983 25.2924 62.3302 25.7586C62.1066 25.9815 61.8833 26.2048 61.6604 26.4283C61.3482 26.7409 61.0346 27.052 60.7206 27.3628C60.6295 27.4546 60.5384 27.5464 60.4445 27.6409C59.8255 28.2494 59.1621 28.8985 58.2587 28.9784C58.1436 28.96 58.0285 28.9417 57.9099 28.9227C57.7763 28.9048 57.6427 28.8869 57.5051 28.8685C57.3623 28.8479 57.2195 28.8274 57.0724 28.8062C53.1581 28.3966 53.1581 28.3966 49.6678 29.9315C48.7693 30.6787 47.9551 31.5084 47.166 32.3687C47.0586 32.4857 47.0586 32.4857 46.9491 32.6051C46.0584 33.5827 45.2051 34.589 44.3828 35.625C44.4619 35.8755 44.4619 35.8755 44.5425 36.131C44.6115 36.3557 44.6804 36.5803 44.7492 36.805C44.784 36.9144 44.8188 37.0238 44.8546 37.1365C45.5014 39.2692 45.2095 41.4583 44.2158 43.4366C42.9495 45.6558 41.0753 47.0908 38.6134 47.765C36.3102 48.2363 33.9602 47.844 31.9796 46.5723C30.0386 45.181 28.7556 43.3398 28.2599 40.9775C27.9407 38.4269 28.4961 36.131 29.9791 34.0229C31.2358 32.5135 33.0775 31.3254 35.0312 31.0235C36.6502 30.8858 38.2423 30.834 39.7453 31.5163C40.0737 31.6536 40.0737 31.6536 40.366 31.5027C40.6734 31.3194 40.8963 31.132 41.1479 30.8785C41.235 30.7911 41.3222 30.7036 41.412 30.6135C41.5015 30.5223 41.5909 30.431 41.6831 30.3369C41.7708 30.2491 41.8585 30.1613 41.9489 30.0708C42.4031 29.6121 42.8303 29.1462 43.2399 28.6473C43.6316 28.1889 44.0263 27.8833 44.5347 27.5607C45.6216 26.8044 46.5705 26.0126 46.8417 24.6707C47.0315 23.1383 46.9983 21.5934 46.9522 20.0532C46.9474 19.8851 46.9425 19.717 46.9374 19.5438C46.9262 19.2243 46.9113 18.905 46.8921 18.5859C46.8856 18.4409 46.879 18.296 46.8723 18.1466C46.8647 18.0208 46.857 17.8949 46.8492 17.7652C47.0016 16.7016 47.7895 15.9735 48.5183 15.2498C48.6195 15.1476 48.7208 15.0453 48.825 14.94C49.1578 14.6045 49.4923 14.2707 49.8268 13.9369C50.0598 13.7032 50.2928 13.4695 50.5257 13.2357C51.0132 12.7469 51.5015 12.2589 51.9905 11.7715C52.6161 11.1475 53.2394 10.5212 53.8621 9.8942C54.3423 9.41129 54.8238 8.92977 55.3058 8.44864C55.5362 8.2183 55.7661 7.98749 55.9955 7.75621C56.3166 7.4329 56.6396 7.11154 56.963 6.79061C57.1039 6.64764 57.1039 6.64764 57.2475 6.50178C58.3221 5.44476 59.5914 4.94067 61.0449 5.57571Z" fill="#2A67DC"/>
</svg>
