<svg width="72" height="72" viewBox="0 0 72 72" fill="none" xmlns="http://www.w3.org/2000/svg">
<path d="M9.81606 37.0843C10.0183 37.0828 10.0183 37.0828 10.2246 37.0814C10.6684 37.0787 11.1121 37.0782 11.5559 37.0779C11.866 37.077 12.1762 37.076 12.4864 37.075C13.1361 37.0734 13.7857 37.0728 14.4354 37.073C15.2649 37.073 16.0944 37.0692 16.9238 37.0643C17.5645 37.0612 18.2051 37.0606 18.8457 37.0608C19.1514 37.0605 19.457 37.0592 19.7627 37.057C21.7511 37.0442 23.4316 37.0479 25.0267 38.3889C26.0776 39.4283 26.68 40.7885 27.2993 42.1085C27.3836 42.2855 27.468 42.4625 27.5525 42.6394C27.7929 43.1439 28.0299 43.6499 28.2661 44.1564C28.336 44.3058 28.4059 44.4552 28.478 44.6091C28.5411 44.7455 28.6042 44.882 28.6693 45.0226C28.7242 45.1412 28.7791 45.2598 28.8357 45.3819C29.3526 46.6256 29.3103 48.3119 28.8374 49.5616C28.1983 50.8722 27.2283 51.8972 25.8755 52.4532C24.7182 52.823 23.6319 52.9364 22.4225 52.9297C22.2548 52.9304 22.0872 52.9312 21.9145 52.9319C21.4601 52.9335 21.0057 52.9331 20.5513 52.9318C20.0724 52.9307 19.5935 52.9317 19.1145 52.9324C18.3108 52.9331 17.507 52.9321 16.7032 52.9301C15.7782 52.9278 14.8532 52.9286 13.9282 52.9309C13.1294 52.9328 12.3306 52.9331 11.5319 52.932C11.0568 52.9313 10.5817 52.9312 10.1067 52.9326C9.5764 52.9337 9.04621 52.932 8.51596 52.9297C8.36163 52.9306 8.20729 52.9314 8.04828 52.9323C6.27006 52.9179 4.69643 52.5304 3.34415 51.3326C2.26217 50.2163 1.77279 48.9931 1.74948 47.4523C1.7474 47.3578 1.74531 47.2634 1.74316 47.1661C1.77758 45.4618 2.77668 43.8691 3.52099 42.3809C3.70056 42.0208 3.87739 41.6595 4.05414 41.298C5.42302 38.5309 5.42302 38.5309 6.75046 37.7755C6.86067 37.7106 6.97089 37.6457 7.08444 37.5789C8.00206 37.1501 8.8173 37.0832 9.81606 37.0843Z" fill="#2A67DC"/>
<path d="M50.8779 37.0841C51.0801 37.0827 51.0801 37.0827 51.2864 37.0813C51.7302 37.0786 52.1739 37.0781 52.6177 37.0778C52.9279 37.0769 53.2381 37.0759 53.5482 37.0749C54.1979 37.0732 54.8476 37.0727 55.4972 37.0729C56.3267 37.0729 57.1562 37.0691 57.9857 37.0642C58.6263 37.0611 59.2669 37.0605 59.9076 37.0607C60.2132 37.0604 60.5189 37.0591 60.8245 37.0569C64.4227 37.0336 64.4227 37.0336 65.8562 38.1973C65.963 38.2803 66.0698 38.3633 66.1798 38.4489C67.2095 39.5646 67.8163 41.085 68.4888 42.4337C68.6606 42.7776 68.8338 43.1207 69.0071 43.4638C69.1178 43.6849 69.2284 43.906 69.3389 44.1271C69.3902 44.2284 69.4414 44.3296 69.4943 44.4339C70.2296 45.918 70.4392 47.5186 70.0585 49.1375C69.4955 50.6362 68.4834 51.6796 67.0873 52.4312C65.9214 52.8708 64.7503 52.9164 63.5162 52.9136C63.3486 52.9143 63.1811 52.9151 63.0084 52.9158C62.5528 52.9174 62.0972 52.9178 61.6416 52.9174C61.2594 52.9173 60.8771 52.918 60.4949 52.9186C59.592 52.9202 58.6892 52.9202 57.7863 52.9194C56.8592 52.9185 55.9321 52.9203 55.005 52.9233C54.2051 52.9258 53.4051 52.9266 52.6051 52.9261C52.1291 52.9259 51.6531 52.9262 51.1771 52.9282C50.6455 52.9299 50.1139 52.929 49.5823 52.9274C49.3501 52.929 49.3501 52.929 49.1132 52.9306C47.3368 52.9187 45.6867 52.5273 44.3406 51.3193C43.3369 50.2595 42.8637 48.8989 42.8377 47.4697C42.8324 47.365 42.8272 47.2604 42.8218 47.1525C42.7972 45.5456 43.7433 44.0945 44.4491 42.6974C44.5784 42.4415 44.7068 42.185 44.835 41.9285C46.8047 38.0005 46.8047 38.0005 48.9449 37.2571C49.5867 37.0797 50.2158 37.0835 50.8779 37.0841Z" fill="#2A67DC"/>
<path d="M20.9008 18.708C22.8244 20.3706 24.019 22.3626 24.2933 24.8993C24.4515 27.4327 23.6979 29.7456 22.0796 31.6971C20.7007 33.1745 18.7305 34.3113 16.6879 34.4801C14.1945 34.5637 12.1653 34.3272 10.1254 32.7655C10.0057 32.6747 9.88608 32.5839 9.76281 32.4903C8.16969 31.1733 7.11155 29.3157 6.75036 27.2811C6.64799 25.7483 6.56146 24.0744 7.17224 22.6405C7.23587 22.4855 7.29949 22.3305 7.36505 22.1709C8.34721 20.0016 10.0157 18.384 12.221 17.4473C15.1619 16.4311 18.3983 16.7678 20.9008 18.708Z" fill="#2A67DC"/>
<path d="M62.0305 18.7707C63.7748 20.2734 65.0789 22.2059 65.2811 24.5473C65.4032 27.3523 64.9196 29.5406 63.0615 31.7373C61.3952 33.479 59.3254 34.4446 56.9174 34.5286C54.2798 34.5524 52.1682 33.7966 50.2284 31.9559C48.5659 30.2457 47.6748 27.9744 47.6719 25.5938C47.8199 23.0881 48.7297 20.8756 50.5613 19.1344C51.1514 18.6373 51.7811 18.2362 52.4531 17.8594C52.5523 17.803 52.6514 17.7466 52.7536 17.6886C55.6891 16.2068 59.5066 16.7548 62.0305 18.7707Z" fill="#2A67DC"/>
<path d="M40.1595 1.354C40.8862 1.36703 41.2952 1.67446 41.8618 2.10052C42.0935 2.26684 42.3255 2.43269 42.5578 2.59821C42.6935 2.6956 42.8291 2.79298 42.9689 2.89333C43.549 3.30536 44.1394 3.70189 44.7298 4.09894C44.8436 4.17549 44.9574 4.25204 45.0747 4.33091C45.4246 4.56607 45.7745 4.80108 46.1245 5.03607C49.8993 7.57158 49.8993 7.57158 50.3433 8.01556C50.4136 8.46381 50.4136 8.46381 50.3433 8.99994C49.4934 9.84485 48.4583 10.4631 47.4605 11.1181C47.0839 11.3664 46.7077 11.6152 46.3316 11.8641C46.2348 11.928 46.1381 11.992 46.0384 12.0579C45.3269 12.5294 44.6213 13.0089 43.9179 13.4922C43.7189 13.6287 43.5198 13.7651 43.3208 13.9015C43.0322 14.0994 42.7438 14.2976 42.4563 14.4971C42.1898 14.6819 41.9224 14.8653 41.6547 15.0485C41.5026 15.1535 41.3505 15.2586 41.1938 15.3669C40.7989 15.5987 40.5314 15.7156 40.0776 15.7499C39.6909 15.5742 39.6909 15.5742 39.3745 15.3281C39.2468 14.9449 39.2081 14.678 39.1894 14.2805C39.1835 14.1613 39.1776 14.0421 39.1716 13.9193C39.166 13.7954 39.1605 13.6715 39.1548 13.5439C39.1457 13.3556 39.1457 13.3556 39.1364 13.1635C39.1215 12.8538 39.1071 12.5441 39.0933 12.2343C38.1435 12.4554 37.1938 12.6772 36.2443 12.8996C35.9121 12.9773 35.5799 13.055 35.2476 13.1327C33.2218 13.6064 31.1978 14.0805 29.1974 14.6541C28.4545 14.8589 27.8907 14.983 27.1401 14.7656C26.8058 14.264 26.797 14.0919 26.8589 13.4999C27.0095 13.1242 27.1636 12.7836 27.3511 12.4277C27.4019 12.3291 27.4528 12.2306 27.5052 12.1291C29.1809 8.94321 31.5971 6.56973 35.0613 5.46207C36.417 5.05363 37.8109 4.7522 39.2339 4.78119C39.2306 4.60662 39.2274 4.43205 39.224 4.2522C39.2214 4.0213 39.2188 3.79041 39.2163 3.55951C39.214 3.44467 39.2116 3.32983 39.2092 3.21152C39.2042 2.59386 39.2174 2.10586 39.5151 1.54681C39.6558 1.40619 39.6558 1.40619 40.1595 1.354Z" fill="#2A67DC"/>
<path d="M34.5146 56.3203C34.875 56.5313 34.875 56.5313 35.1563 56.9532C35.2011 57.2592 35.2011 57.2592 35.2145 57.6096C35.2199 57.7351 35.2254 57.8607 35.231 57.99C35.2353 58.1206 35.2397 58.2512 35.2441 58.3858C35.2496 58.518 35.255 58.6502 35.2606 58.7865C35.2739 59.1129 35.2859 59.4392 35.2969 59.7657C36.3366 59.5211 37.3763 59.2761 38.416 59.0309C38.768 58.948 39.1201 58.8651 39.4722 58.7822C39.9847 58.6617 40.4973 58.5408 41.0098 58.4198C41.1788 58.3801 41.3478 58.3404 41.5219 58.2995C42.3535 58.1028 43.1828 57.9003 44.0096 57.6839C44.1635 57.6439 44.3173 57.604 44.4759 57.5628C44.7642 57.4874 45.0521 57.4107 45.3395 57.3322C46.586 57.007 46.586 57.007 47.25 57.2344C47.5846 57.7363 47.5938 57.9077 47.5313 58.5C47.3775 58.8782 47.2202 59.2224 47.0303 59.5811C46.9787 59.6803 46.9272 59.7795 46.8741 59.8817C45.1999 63.0632 42.8941 65.3096 39.4497 66.5508C38.0717 66.9729 36.6024 67.2516 35.1563 67.2188C35.1585 67.301 35.1607 67.3833 35.1629 67.468C35.1717 67.842 35.1772 68.2159 35.1826 68.5899C35.1862 68.7193 35.1897 68.8487 35.1933 68.9821C35.1947 69.1072 35.196 69.2322 35.1974 69.3611C35.1997 69.476 35.2019 69.5909 35.2041 69.7092C35.1414 70.1313 35.0552 70.3092 34.7344 70.5938C33.9337 70.7463 33.472 70.4834 32.8278 70.0545C32.7148 69.976 32.6019 69.8974 32.4855 69.8165C32.3651 69.7355 32.2448 69.6544 32.1208 69.571C31.7307 69.3076 31.3429 69.0411 30.9551 68.7744C30.6884 68.5934 30.4216 68.4127 30.1547 68.2321C29.6266 67.8742 29.0993 67.5151 28.5728 67.1547C27.9445 66.7247 27.3141 66.2976 26.6825 65.8724C26.0933 65.4751 25.5042 65.0778 24.917 64.6776C24.8088 64.604 24.7006 64.5304 24.5891 64.4545C24.1807 64.1589 24.0594 64.0425 23.9502 63.5362C24.0981 62.716 24.6518 62.4798 25.3125 62.0157C25.9468 61.5797 26.5883 61.1548 27.2309 60.7314C27.7489 60.3901 28.2658 60.0473 28.7825 59.7041C28.8841 59.6367 28.9856 59.5693 29.0902 59.4998C30.0359 58.8699 30.9679 58.222 31.8899 57.5579C33.7742 56.2126 33.7742 56.2126 34.5146 56.3203Z" fill="#2A67DC"/>
</svg>
