<svg width="80" height="80" viewBox="0 0 80 80" fill="none" xmlns="http://www.w3.org/2000/svg">
<path d="M39.9027 17.461C40.0821 17.4609 40.0821 17.4609 40.2651 17.4607C41.9917 17.4631 43.637 17.5131 45.3128 17.9688C45.4176 17.9973 45.5224 18.0258 45.6304 18.0551C51.727 19.7487 56.6899 23.524 59.811 29.0311C61.6839 32.4336 62.5363 36.0257 62.5394 39.9024C62.5395 40.022 62.5396 40.1416 62.5397 40.2648C62.5373 41.9915 62.4873 43.6368 62.0316 45.3126C61.9889 45.4698 61.9889 45.4698 61.9453 45.6302C60.3022 51.5449 56.576 56.6207 51.2168 59.6778C47.7293 61.6054 44.0853 62.536 40.098 62.5391C39.9784 62.5392 39.8588 62.5393 39.7355 62.5395C38.0084 62.537 36.3644 62.4856 34.6878 62.0313C34.5863 62.0045 34.4848 61.9777 34.3803 61.9501C28.4954 60.3644 23.4494 56.5984 20.3867 51.3209C18.4086 47.8079 17.4644 44.1311 17.4613 40.0977C17.4612 39.9781 17.461 39.8585 17.4609 39.7353C17.4634 38.0087 17.5133 36.3634 17.9691 34.6876C17.9975 34.5828 18.026 34.478 18.0554 34.37C19.7404 28.3039 23.4702 23.3946 28.9285 20.2473C32.3477 18.3344 35.9956 17.4641 39.9027 17.461ZM38.2816 25.7813C37.4731 26.8083 37.4777 27.7031 37.4906 28.9552C37.4913 29.0858 37.492 29.2164 37.4927 29.351C37.4945 29.6715 37.4973 29.992 37.5003 30.3126C37.336 30.3299 37.1716 30.3472 37.0023 30.3651C35.7187 30.5886 34.5296 31.4641 33.7503 32.5001C32.7213 34.2718 32.3447 35.9707 32.7579 37.9969C33.2859 39.59 34.3554 40.8459 35.7816 41.7188C37.4022 42.4794 39.0263 42.5317 40.7843 42.5672C40.9182 42.572 41.052 42.5769 41.1899 42.5819C41.3104 42.585 41.4309 42.5881 41.5551 42.5912C41.9536 42.6722 42.0955 42.8089 42.3441 43.1251C42.4063 43.4278 42.4063 43.4278 42.4027 43.7501C42.4045 43.9096 42.4045 43.9096 42.4063 44.0723C42.3249 44.4683 42.1879 44.5918 41.8753 44.8438C41.5674 44.903 41.5674 44.903 41.2133 44.9039C41.0137 44.9063 41.0137 44.9063 40.8101 44.9087C40.6665 44.9083 40.523 44.9078 40.3751 44.9073C40.2265 44.909 40.0779 44.9107 39.9248 44.9124C39.4486 44.9178 38.9726 44.9202 38.4964 44.922C37.8726 44.9242 37.2489 44.9295 36.6251 44.9366C36.4834 44.9361 36.3418 44.9357 36.1958 44.9352C35.2158 44.9466 34.1047 45.0133 33.3398 45.6957C32.7071 46.4381 32.6009 46.9368 32.6132 47.8846C32.6775 48.4727 32.8883 48.7841 33.2816 49.2188C34.262 49.9906 35.0857 50.0239 36.2991 50.0098C36.4727 50.0088 36.4727 50.0088 36.6498 50.0077C36.9333 50.0059 37.2168 50.0031 37.5003 50.0001C37.4922 50.2463 37.4922 50.2463 37.4838 50.4975C37.3775 52.456 37.3775 52.456 38.198 54.1584C38.9341 54.7973 39.4397 54.8994 40.3848 54.8872C40.9729 54.8229 41.2844 54.6121 41.7191 54.2188C42.5275 53.1919 42.5229 52.297 42.5101 51.045C42.5094 50.9144 42.5087 50.7838 42.5079 50.6492C42.5061 50.3286 42.5033 50.0081 42.5003 49.6876C42.6647 49.6703 42.829 49.6529 42.9984 49.6351C44.2819 49.4115 45.471 48.536 46.2503 47.5001C47.2794 45.7283 47.656 44.0294 47.2428 42.0033C46.7147 40.4102 45.6452 39.1542 44.2191 38.2813C42.5985 37.5207 40.9743 37.4685 39.2163 37.4329C39.0825 37.4281 38.9486 37.4233 38.8107 37.4183C38.6902 37.4152 38.5697 37.4121 38.4456 37.4089C38.047 37.3279 37.9051 37.1913 37.6566 36.8751C37.5943 36.5723 37.5943 36.5723 37.598 36.2501C37.5968 36.1437 37.5956 36.0374 37.5943 35.9278C37.6757 35.5318 37.8127 35.4084 38.1253 35.1563C38.4332 35.0972 38.4332 35.0972 38.7873 35.0962C38.9204 35.0946 39.0535 35.093 39.1906 35.0914C39.3341 35.0919 39.4777 35.0924 39.6256 35.0928C39.7742 35.0912 39.9228 35.0895 40.0759 35.0877C40.552 35.0824 41.0281 35.0799 41.5042 35.0782C42.1281 35.0759 42.7518 35.0706 43.3756 35.0636C43.5172 35.064 43.6589 35.0645 43.8048 35.065C44.7848 35.0536 45.896 34.9869 46.6608 34.3045C47.2935 33.5621 47.3997 33.0634 47.3874 32.1156C47.3232 31.5275 47.1124 31.216 46.7191 30.7813C45.7386 30.0095 44.915 29.9762 43.7015 29.9903C43.5858 29.991 43.4701 29.9917 43.3508 29.9924C43.0673 29.9943 42.7838 29.9971 42.5003 30.0001C42.5058 29.8359 42.5112 29.6718 42.5168 29.5026C42.6231 27.5441 42.6231 27.5441 41.8027 25.8418C41.0666 25.2028 40.5609 25.1007 39.6158 25.113C39.0277 25.1772 38.7163 25.388 38.2816 25.7813Z" fill="#2A67DC"/>
<path d="M50.4686 9.06254C50.5816 9.1 50.6947 9.13747 50.8112 9.17606C52.4345 9.72559 53.9587 10.4427 55.4686 11.25C55.5632 11.3004 55.6579 11.3507 55.7554 11.4026C57.8139 12.5082 59.6582 13.8542 61.4189 15.3852C61.6953 15.6253 61.9742 15.8626 62.2575 16.0944C63.0545 16.7529 63.6603 17.3302 63.8084 18.3869C63.8391 19.0962 63.802 19.5772 63.4959 20.2246C62.789 20.9874 62.1628 21.3553 61.1278 21.4191C59.9997 21.3774 59.3628 20.6741 58.5789 19.9457C54.0132 15.7788 47.8331 12.821 41.5642 12.7808C41.3915 12.7791 41.3915 12.7791 41.2155 12.7775C37.6898 12.7355 37.6898 12.7355 34.2186 13.2813C34.0898 13.3123 33.9611 13.3434 33.8285 13.3754C28.8106 14.618 24.4947 17.0455 20.7811 20.625C20.6713 20.7268 20.5615 20.8285 20.4484 20.9333C18.0734 23.1931 16.3593 26.1065 14.9998 29.0625C14.9164 29.2428 14.8331 29.4231 14.7471 29.6088C13.9795 31.3926 13.5622 33.2698 13.1248 35.1563C13.2704 35.1982 13.4161 35.2401 13.5661 35.2832C14.2962 35.5562 14.6494 36.018 14.9998 36.7188C15.2227 38.2958 14.7218 39.3775 13.9647 40.7325C13.8682 40.9134 13.7717 41.0944 13.6723 41.2809C11.9927 44.3943 11.9927 44.3943 10.9373 44.8438C10.0801 44.956 9.33621 44.9604 8.53498 44.6192C7.43546 43.5458 6.75039 42.0744 6.03498 40.7325C5.93488 40.5533 5.83477 40.3741 5.73164 40.1896C5.10968 39.0179 4.78993 38.0511 4.99983 36.7188C5.35397 35.956 5.81116 35.5319 6.56233 35.1563C6.99411 35.108 7.37564 35.1262 7.81233 35.1563C7.82582 35.0441 7.83932 34.9319 7.85322 34.8163C8.74662 28.2347 11.9429 22.1872 16.5005 17.4162C16.6457 17.2639 16.7901 17.1109 16.9336 16.9571C21.2962 12.2901 27.3895 9.25678 33.5936 7.96879C33.7689 7.93042 33.7689 7.93042 33.9478 7.89127C39.3178 6.7605 45.3041 7.34792 50.4686 9.06254Z" fill="#2A67DC"/>
<path d="M70.9375 35.1562C71.9855 35.6615 72.5111 36.5292 73.0286 37.5397C73.099 37.6762 73.099 37.6762 73.1708 37.8156C73.3191 38.1039 73.4662 38.3927 73.6133 38.6816C73.7131 38.8761 73.813 39.0705 73.913 39.2648C74.1723 39.7697 74.4305 40.2751 74.6875 40.7812C74.7481 40.8957 74.8088 41.0101 74.8713 41.1279C75.1546 41.7405 75.0617 42.4676 75 43.125C74.7346 43.8031 74.235 44.3354 73.5938 44.6875C73.1247 44.7925 72.6674 44.832 72.1875 44.8437C72.1645 44.9974 72.1416 45.1511 72.1179 45.3094C71.1431 51.485 68.3628 57.0656 64.2188 61.7187C64.1472 61.7999 64.0757 61.881 64.0021 61.9646C58.4519 68.2474 50.3642 71.9783 42.0312 72.5C35.8048 72.7533 29.8754 71.55 24.375 68.5937C24.1982 68.5015 24.0213 68.4092 23.8391 68.3142C21.6801 67.1424 19.7002 65.6523 17.9004 63.9844C17.7578 63.8525 17.7578 63.8525 17.6123 63.7179C16.9731 63.1073 16.3406 62.4994 16.167 61.6022C16.1784 60.6184 16.2544 59.9985 16.875 59.2187C17.6295 58.6303 18.2119 58.4981 19.1644 58.5455C20.1636 58.6769 20.6723 59.2543 21.3385 59.9432C26.3871 64.8459 33.4884 67.2573 40.4336 67.2348C47.1188 67.1214 53.5715 64.5986 58.4375 60C58.6549 59.8136 58.873 59.6281 59.0918 59.4434C59.7179 58.8947 60.2556 58.3009 60.7812 57.6562C60.8985 57.5136 61.0157 57.371 61.1365 57.2241C64.0465 53.5705 66.0615 49.2974 66.875 44.6875C66.6943 44.6588 66.6943 44.6588 66.51 44.6295C65.9131 44.4886 65.6955 44.2238 65.3125 43.75C64.8296 42.9423 64.8113 42.3025 65.0103 41.4005C65.2772 40.5539 65.7029 39.7852 66.1297 39.0105C66.289 38.7208 66.4445 38.4294 66.5997 38.1375C67.6909 36.1099 68.4815 34.8896 70.9375 35.1562Z" fill="#2A67DC"/>
</svg>
