<svg width="86" height="86" viewBox="0 0 86 86" fill="none" xmlns="http://www.w3.org/2000/svg">
<g clip-path="url(#clip0_1446_3909)">
<path d="M31.2421 22.3398C31.8184 22.585 32.1539 22.8994 32.5754 23.3582C35.3753 26.2037 39.0516 27.594 42.9999 27.6309C47.2421 27.588 50.8047 26.0054 53.7814 22.9907C53.8981 22.8656 54.0148 22.7404 54.1351 22.6115C54.4218 22.3398 54.4218 22.3398 54.7578 22.3398C57.3018 25.3917 58.2414 28.7412 58.2047 32.6522C58.2011 33.1162 58.2047 33.5798 58.209 34.0439C58.2085 34.3422 58.2077 34.6405 58.2064 34.9388C58.2077 35.0758 58.2091 35.2128 58.2105 35.354C58.1959 36.2407 58.047 36.7639 57.4453 37.457C56.781 37.9467 56.3106 38.0228 55.4924 38.0181C55.3824 38.0182 55.2724 38.0183 55.1591 38.0183C54.8055 38.018 54.452 38.0141 54.0983 38.0101C53.8813 38.0096 53.6642 38.0091 53.4405 38.0086C52.6303 38.006 51.8201 37.9989 51.0099 37.9924C49.1981 37.982 47.3862 37.9716 45.5195 37.9609C45.5749 43.2268 45.6303 48.4926 45.6874 53.918C48.9677 55.4388 48.9677 55.4388 52.2604 56.9321C55.7193 58.554 55.7193 58.554 56.2146 59.8278C56.3902 60.532 56.4211 61.2087 56.414 61.9316C56.4535 62.5794 56.7002 63.1363 56.9623 63.7231C57.2679 64.4244 57.5498 65.1142 57.7812 65.8438C56.9501 65.5931 56.2101 65.2451 55.4414 64.8503C55.3118 64.7844 55.1823 64.7185 55.0487 64.6507C54.7687 64.5084 54.4888 64.3657 54.2091 64.2229C53.7661 63.9969 53.3225 63.7721 52.8787 63.5477C51.6174 62.9099 50.3564 62.2714 49.0977 61.6285C48.3266 61.2348 47.5542 60.8438 46.7809 60.4544C46.4869 60.3057 46.1933 60.156 45.9002 60.0053C45.4906 59.7949 45.0795 59.5878 44.6678 59.3814C44.5474 59.3185 44.4269 59.2556 44.3028 59.1908C43.5711 58.8294 43.1149 58.7233 42.3281 58.957C41.9536 59.1128 41.5849 59.2827 41.2212 59.4622C41.1134 59.515 41.0057 59.5677 40.8947 59.622C40.6595 59.7374 40.4245 59.8533 40.1898 59.9698C39.8128 60.1569 39.435 60.3423 39.057 60.5274C37.8383 61.1247 36.6221 61.7269 35.4057 62.3289C34.5015 62.7764 33.5967 63.2227 32.6916 63.6684C32.1584 63.9317 31.626 64.1965 31.0936 64.4614C30.765 64.6235 30.4363 64.7855 30.1077 64.9475C29.9554 65.0238 29.8031 65.1001 29.6462 65.1787C29.4373 65.2811 29.4373 65.2811 29.2242 65.3855C29.1024 65.4459 28.9806 65.5063 28.8552 65.5685C28.7064 65.6216 28.7064 65.6216 28.5546 65.6758C28.4438 65.6203 28.3329 65.5649 28.2187 65.5078C28.2979 65.3428 28.2979 65.3428 28.3788 65.1745C29.0747 63.6905 29.6915 62.2794 29.7932 60.6307C29.8604 59.8862 29.938 59.2306 30.5089 58.7035C31.2734 58.1904 32.1138 57.8365 32.9596 57.4798C33.7489 57.137 34.508 56.7355 35.2734 56.343C36.9385 55.5034 38.6266 54.7165 40.3124 53.918C40.3679 48.6521 40.4233 43.3863 40.4804 37.9609C36.8774 37.9875 36.8774 37.9875 33.2744 38.0215C32.8222 38.0234 32.3701 38.0251 31.9179 38.0266C31.743 38.0292 31.743 38.0292 31.5646 38.0319C31.2185 38.0368 30.8727 38.0375 30.5265 38.0372C30.2345 38.0395 30.2345 38.0395 29.9365 38.0417C29.1274 37.9211 28.598 37.54 28.0763 36.9205C27.8047 36.2591 27.8074 35.664 27.8099 34.9552C27.809 34.8099 27.8082 34.6646 27.8073 34.5149C27.8062 34.207 27.8064 33.8991 27.8078 33.5912C27.8092 33.1292 27.8045 32.6676 27.7991 32.2057C27.7894 29.8425 28.0415 27.5924 29.1845 25.4788C29.2411 25.3694 29.2977 25.2601 29.3561 25.1474C29.8914 24.1421 30.5324 23.2308 31.2421 22.3398Z" fill="#2965DC"/>
<path d="M58.957 67.6914C59.5332 67.9365 59.8687 68.251 60.2902 68.7097C63.0901 71.5553 66.7665 72.9456 70.7148 72.9824C74.9569 72.9396 78.5195 71.3569 81.4963 68.3423C81.613 68.2171 81.7297 68.092 81.8499 67.963C82.1367 67.6914 82.1367 67.6914 82.4726 67.6914C83.3809 68.6864 84.0942 69.8252 84.7087 71.0193C84.7612 71.1183 84.8137 71.2174 84.8679 71.3195C85.931 73.4763 86.1096 75.6283 86.0875 77.9911C86.0839 78.4566 86.0875 78.9217 86.0918 79.3872C86.0914 79.6863 86.0905 79.9854 86.0892 80.2845C86.0905 80.422 86.0919 80.5595 86.0933 80.7012C86.0788 81.5897 85.9314 82.1143 85.3281 82.8086C84.6594 83.3024 84.1786 83.3759 83.3546 83.3776C83.2428 83.3785 83.131 83.3794 83.0158 83.3804C82.6423 83.3828 82.269 83.3816 81.8956 83.3804C81.6273 83.3813 81.3591 83.3825 81.0909 83.3839C80.3631 83.3869 79.6354 83.3867 78.9077 83.3857C78.2999 83.3852 77.6921 83.3862 77.0844 83.3872C75.6505 83.3896 74.2166 83.3893 72.7827 83.3874C71.3039 83.3855 69.8251 83.3879 68.3463 83.3924C67.0761 83.3961 65.806 83.3972 64.5358 83.3962C63.7774 83.3956 63.0191 83.396 62.2607 83.3989C61.5474 83.4015 60.8343 83.4009 60.1211 83.3977C59.8596 83.3971 59.5981 83.3976 59.3366 83.3994C58.9791 83.4016 58.6218 83.3997 58.2643 83.3967C58.0644 83.3967 57.8645 83.3966 57.6586 83.3966C56.846 83.2722 56.3157 82.895 55.7911 82.2721C55.5195 81.6106 55.5222 81.0156 55.5248 80.3068C55.5239 80.1615 55.523 80.0162 55.5221 79.8665C55.521 79.5586 55.5212 79.2506 55.5227 78.9427C55.5241 78.4808 55.5193 78.0192 55.5139 77.5573C55.5042 75.194 55.7564 72.944 56.8994 70.8303C56.956 70.721 57.0126 70.6116 57.0709 70.499C57.6062 69.4936 58.2472 68.5824 58.957 67.6914Z" fill="#2965DC"/>
<path d="M3.52725 67.6914C4.10353 67.9365 4.439 68.251 4.8605 68.7097C7.66039 71.5553 11.3368 72.9456 15.2851 72.9824C19.5272 72.9396 23.0898 71.3569 26.0666 68.3423C26.1833 68.2171 26.3 68.092 26.4202 67.963C26.7069 67.6914 26.7069 67.6914 27.0429 67.6914C29.5869 70.7433 30.5265 74.0928 30.4898 78.0038C30.4862 78.4678 30.4899 78.9314 30.4941 79.3954C30.4937 79.6937 30.4928 79.9921 30.4915 80.2904C30.4928 80.4274 30.4942 80.5644 30.4956 80.7055C30.4811 81.5923 30.3321 82.1154 29.7304 82.8086C29.0617 83.3024 28.5809 83.3759 27.7569 83.3776C27.6451 83.3785 27.5333 83.3794 27.4181 83.3804C27.0447 83.3828 26.6713 83.3816 26.2979 83.3804C26.0297 83.3813 25.7614 83.3825 25.4932 83.3839C24.7654 83.3869 24.0377 83.3867 23.31 83.3857C22.7022 83.3852 22.0944 83.3862 21.4867 83.3872C20.0528 83.3896 18.6189 83.3893 17.185 83.3874C15.7062 83.3855 14.2274 83.3879 12.7486 83.3924C11.4784 83.3961 10.2083 83.3972 8.93812 83.3962C8.17972 83.3956 7.42136 83.396 6.66297 83.3989C5.94976 83.4015 5.23662 83.4009 4.52341 83.3977C4.26191 83.3971 4.0004 83.3976 3.73891 83.3994C3.38138 83.4016 3.0241 83.3997 2.66658 83.3967C2.46669 83.3967 2.26681 83.3966 2.06087 83.3966C1.24844 83.2722 0.718263 82.895 0.193422 82.2725C-0.0786891 81.6092 -0.0754571 81.0115 -0.0729251 80.3009C-0.0738056 80.1552 -0.074686 80.0095 -0.0755932 79.8594C-0.0766706 79.5508 -0.0764483 79.2421 -0.0750165 78.9335C-0.0736035 78.4697 -0.0783925 78.0063 -0.0837512 77.5425C-0.093367 75.196 0.191524 73.0913 1.31216 70.9878C1.36946 70.8765 1.42676 70.7651 1.48579 70.6504C1.96142 69.7518 2.53303 68.9692 3.19131 68.1953C3.30217 68.029 3.41303 67.8627 3.52725 67.6914Z" fill="#2965DC"/>
<path d="M76.5935 49.7188C78.7225 51.3757 80.332 53.5575 80.7927 56.2696C81.0567 59.2691 80.6579 62.011 78.7653 64.4429C77.0573 66.4157 74.8183 67.9968 72.1443 68.2321C69.0295 68.3696 66.3762 67.8885 63.9538 65.7913C62.0727 64.0025 60.6971 61.7533 60.58 59.1021C60.5279 55.9027 61.1746 53.3186 63.4348 50.9418C66.9991 47.4668 72.4376 46.94 76.5935 49.7188Z" fill="#2965DC"/>
<path d="M21.1638 49.7188C23.2928 51.3757 24.9023 53.5575 25.363 56.2696C25.627 59.2691 25.2283 62.011 23.3356 64.4429C21.6276 66.4157 19.3886 67.9968 16.7146 68.2321C13.5998 68.3696 10.9465 67.8885 8.52414 65.7913C6.64306 64.0025 5.26738 61.7533 5.15033 59.1021C5.09824 55.9027 5.74494 53.3186 8.00514 50.9418C11.5694 47.4668 17.008 46.94 21.1638 49.7188Z" fill="#2965DC"/>
<path d="M48.8786 4.36721C51.0076 6.02415 52.6171 8.20592 53.0778 10.918C53.3419 13.9175 52.9431 16.6594 51.0504 19.0914C49.3424 21.0642 47.1034 22.6452 44.4295 22.8806C41.3146 23.0181 38.6614 22.5369 36.239 20.4397C34.3579 18.6509 32.9822 16.4018 32.8652 13.7505C32.8131 10.5511 33.4598 7.96701 35.72 5.59023C39.2842 2.11522 44.7228 1.58842 48.8786 4.36721Z" fill="#2965DC"/>
</g>
<defs>
<clipPath id="clip0_1446_3909">
<rect width="86" height="86" fill="white"/>
</clipPath>
</defs>
</svg>
