<svg width="81" height="81" viewBox="0 0 81 81" fill="none" xmlns="http://www.w3.org/2000/svg">
<path d="M51.0555 42.9853C51.2563 42.9842 51.4571 42.9831 51.664 42.982C52.2125 42.9793 52.761 42.9785 53.3096 42.9783C53.6532 42.9781 53.9968 42.9774 54.3404 42.9766C55.5417 42.9736 56.743 42.9723 57.9443 42.9726C59.0598 42.9728 60.1753 42.9694 61.2908 42.9644C62.2518 42.9603 63.2129 42.9586 64.174 42.9588C64.7465 42.9589 65.319 42.958 65.8915 42.9546C66.5313 42.951 67.171 42.9525 67.8108 42.9544C67.9975 42.9526 68.1842 42.9508 68.3766 42.949C70.6436 42.966 72.3514 43.7665 73.9995 45.2955C75.5917 46.9778 76.01 48.8566 76.0014 51.1094C76.0025 51.3103 76.0036 51.5111 76.0047 51.7181C76.0075 52.2646 76.0073 52.8111 76.0064 53.3577C76.006 53.816 76.0069 54.2744 76.0079 54.7327C76.0101 55.8152 76.0098 56.8976 76.008 57.9801C76.0062 59.0921 76.0085 60.2041 76.0127 61.3161C76.0162 62.2752 76.0172 63.2342 76.0163 64.1933C76.0158 64.7642 76.0162 65.3351 76.0189 65.906C76.0218 66.5435 76.0196 67.1809 76.0168 67.8184C76.0191 68.0973 76.0191 68.0973 76.0215 68.3819C76.0014 70.6509 75.1996 72.3715 73.6534 74.0094C71.9999 75.5678 70.0523 76.0348 67.8234 76.0194C67.6225 76.0205 67.4216 76.0216 67.2146 76.0227C66.6693 76.0256 66.1242 76.0245 65.5789 76.0225C65.0047 76.0209 64.4304 76.0224 63.8562 76.0234C62.8924 76.0245 61.9286 76.023 60.9647 76.02C59.855 76.0165 58.7454 76.0177 57.6358 76.0211C56.678 76.024 55.7203 76.0244 54.7625 76.0228C54.1927 76.0218 53.6229 76.0216 53.0531 76.0237C52.4171 76.0259 51.7813 76.0229 51.1453 76.0194C50.9599 76.0206 50.7744 76.0219 50.5833 76.0232C48.3162 76.0002 46.5959 75.1983 44.9593 73.6534C43.4028 72.0019 42.9344 70.0547 42.9468 67.8284C42.9455 67.628 42.9441 67.4276 42.9427 67.2211C42.9392 66.6772 42.9396 66.1333 42.941 65.5894C42.9418 65.1326 42.9407 64.6758 42.9395 64.2191C42.9368 63.1401 42.9374 62.0611 42.94 60.9821C42.9427 59.8749 42.9402 58.7679 42.9351 57.6607C42.9309 56.7046 42.9297 55.7484 42.9311 54.7923C42.9318 54.2237 42.9315 53.6551 42.9283 53.0865C42.9248 52.4514 42.9278 51.8164 42.9314 51.1812C42.9295 50.9969 42.9277 50.8126 42.9258 50.6227C42.9511 48.3979 43.7239 46.6392 45.2615 45.0644C46.982 43.4319 48.7471 42.9835 51.0555 42.9853Z" fill="#2A67DC"/>
<path d="M13.0868 42.9853C13.2876 42.9842 13.4884 42.9831 13.6952 42.982C14.2438 42.9793 14.7923 42.9785 15.3408 42.9783C15.6844 42.9781 16.028 42.9774 16.3716 42.9766C17.5729 42.9736 18.7742 42.9723 19.9756 42.9726C21.0911 42.9728 22.2065 42.9694 23.322 42.9644C24.2831 42.9603 25.2442 42.9586 26.2053 42.9588C26.7778 42.9589 27.3502 42.958 27.9227 42.9546C28.5625 42.951 29.2023 42.9525 29.8421 42.9544C30.0288 42.9526 30.2155 42.9508 30.4079 42.949C32.6749 42.966 34.3827 43.7665 36.0307 45.2955C37.6229 46.9778 38.0412 48.8566 38.0326 51.1094C38.0337 51.3103 38.0348 51.5111 38.0359 51.7181C38.0388 52.2646 38.0386 52.8111 38.0377 53.3577C38.0372 53.816 38.0382 54.2744 38.0391 54.7327C38.0413 55.8152 38.0411 56.8976 38.0393 57.9801C38.0375 59.0921 38.0397 60.2041 38.0439 61.3161C38.0475 62.2752 38.0485 63.2342 38.0476 64.1933C38.047 64.7642 38.0474 65.3351 38.0501 65.906C38.0531 66.5435 38.0508 67.1809 38.0481 67.8184C38.0504 68.0973 38.0504 68.0973 38.0527 68.3819C38.0327 70.6509 37.2308 72.3715 35.6847 74.0094C34.0312 75.5678 32.0835 76.0348 29.8546 76.0194C29.6537 76.0205 29.4528 76.0216 29.2458 76.0227C28.7006 76.0256 28.1554 76.0245 27.6102 76.0225C27.0359 76.0209 26.4617 76.0224 25.8874 76.0234C24.9236 76.0245 23.9598 76.023 22.996 76.02C21.8863 76.0165 20.7767 76.0177 19.667 76.0211C18.7093 76.024 17.7515 76.0244 16.7938 76.0228C16.2239 76.0218 15.6541 76.0216 15.0843 76.0237C14.4483 76.0259 13.8125 76.0229 13.1766 76.0194C12.9911 76.0206 12.8056 76.0219 12.6146 76.0232C10.3475 76.0002 8.62719 75.1983 6.99058 73.6534C5.4341 72.0019 4.96566 70.0547 4.97809 67.8284C4.97672 67.628 4.97536 67.4276 4.97396 67.2211C4.97043 66.6772 4.97085 66.1333 4.97227 65.5894C4.97308 65.1326 4.97192 64.6758 4.97077 64.2191C4.96809 63.1401 4.96863 62.0611 4.97129 60.9821C4.97396 59.8749 4.97146 58.7679 4.96635 57.6607C4.9621 56.7046 4.96098 55.7484 4.96232 54.7923C4.96309 54.2237 4.96278 53.6551 4.9595 53.0865C4.95602 52.4514 4.95906 51.8164 4.96264 51.1812C4.96079 50.9969 4.95894 50.8126 4.95703 50.6227C4.98234 48.3979 5.75518 46.6392 7.29277 45.0644C9.01323 43.4319 10.7784 42.9835 13.0868 42.9853Z" fill="#2A67DC"/>
<path d="M13.0868 5.01651C13.2876 5.01545 13.4884 5.01439 13.6952 5.01329C14.2438 5.01051 14.7923 5.00976 15.3408 5.00955C15.6844 5.00933 16.028 5.00865 16.3716 5.00781C17.5729 5.00489 18.7742 5.00359 19.9756 5.00384C21.0911 5.00403 22.2065 5.0007 23.322 4.9957C24.2831 4.99154 25.2442 4.98986 26.2053 4.99007C26.7778 4.99015 27.3502 4.98927 27.9227 4.9859C28.5625 4.98223 29.2023 4.98371 29.8421 4.98561C30.0288 4.98383 30.2155 4.98206 30.4079 4.98022C32.6749 4.99725 34.3827 5.7977 36.0307 7.32676C37.6229 9.00907 38.0412 10.8879 38.0326 13.1406C38.0337 13.3415 38.0348 13.5424 38.0359 13.7493C38.0388 14.2959 38.0386 14.8424 38.0377 15.3889C38.0372 15.8473 38.0382 16.3056 38.0391 16.764C38.0413 17.8465 38.0411 18.9289 38.0393 20.0114C38.0375 21.1234 38.0397 22.2353 38.0439 23.3473C38.0475 24.3064 38.0485 25.2655 38.0476 26.2246C38.047 26.7955 38.0474 27.3663 38.0501 27.9372C38.0531 28.5747 38.0508 29.2121 38.0481 29.8496C38.0504 30.1286 38.0504 30.1286 38.0527 30.4131C38.0327 32.6822 37.2308 34.4027 35.6847 36.0406C34.0312 37.599 32.0835 38.066 29.8546 38.0506C29.6537 38.0517 29.4528 38.0528 29.2458 38.054C28.7006 38.0568 28.1554 38.0557 27.6102 38.0537C27.0359 38.0521 26.4617 38.0536 25.8874 38.0546C24.9236 38.0558 23.9598 38.0543 22.996 38.0512C21.8863 38.0478 20.7767 38.0489 19.667 38.0524C18.7093 38.0553 17.7515 38.0557 16.7938 38.054C16.2239 38.053 15.6541 38.0529 15.0843 38.055C14.4483 38.0572 13.8125 38.0541 13.1766 38.0506C12.9911 38.0519 12.8056 38.0532 12.6146 38.0545C10.3475 38.0315 8.62719 37.2296 6.99058 35.6847C5.4341 34.0332 4.96566 32.0859 4.97809 29.8597C4.97672 29.6593 4.97536 29.4589 4.97396 29.2524C4.97043 28.7084 4.97085 28.1646 4.97227 27.6206C4.97308 27.1638 4.97192 26.7071 4.97077 26.2503C4.96809 25.1713 4.96863 24.0923 4.97129 23.0134C4.97396 21.9062 4.97146 20.7991 4.96635 19.6919C4.9621 18.7358 4.96098 17.7797 4.96232 16.8235C4.96309 16.2549 4.96278 15.6864 4.9595 15.1178C4.95602 14.4826 4.95906 13.8476 4.96264 13.2125C4.96079 13.0282 4.95894 12.8438 4.95703 12.6539C4.98234 10.4291 5.75518 8.67045 7.29277 7.09563C9.01323 5.46317 10.7784 5.01475 13.0868 5.01651Z" fill="#2A67DC"/>
<path d="M64.3887 4.90436C64.8287 5.26502 65.2283 5.65708 65.6279 6.06168C65.7408 6.17346 65.8537 6.28524 65.97 6.40042C66.3385 6.76616 66.7047 7.13415 67.0707 7.50235C67.3286 7.75977 67.5865 8.01709 67.8445 8.27433C68.3833 8.81215 68.9209 9.35108 69.4577 9.89084C70.1431 10.5799 70.8314 11.2661 71.5205 11.9514C72.0531 12.4818 72.5843 13.0136 73.1149 13.5459C73.368 13.7994 73.6216 14.0525 73.8756 14.305C74.2314 14.6592 74.5851 15.0154 74.9384 15.3722C75.042 15.4745 75.1455 15.5768 75.2522 15.6822C76.8459 17.305 77.7303 19.2393 77.7568 21.5157C77.7281 23.9873 76.6761 25.9429 74.9384 27.6592C74.8266 27.7721 74.7148 27.885 74.5996 28.0013C74.2339 28.3698 73.8659 28.736 73.4977 29.102C73.2403 29.3599 72.983 29.6178 72.7257 29.8758C72.1879 30.4146 71.649 30.9522 71.1092 31.489C70.4202 32.1744 69.734 32.8627 69.0486 33.5518C68.5183 34.0844 67.9864 34.6156 67.4541 35.1463C67.2006 35.3993 66.9476 35.6529 66.695 35.9069C66.3408 36.2627 65.9846 36.6164 65.6279 36.9697C65.5256 37.0733 65.4233 37.1768 65.3179 37.2835C63.712 38.8606 61.7495 39.7578 59.4844 39.7881C57.0175 39.7551 55.0433 38.6934 53.3409 36.9697C53.228 36.8579 53.1151 36.7461 52.9988 36.631C52.6303 36.2652 52.2641 35.8972 51.898 35.529C51.6402 35.2716 51.3823 35.0143 51.1242 34.757C50.5855 34.2192 50.0479 33.6803 49.5111 33.1405C48.8256 32.4515 48.1374 31.7653 47.4483 31.08C46.9156 30.5496 46.3845 30.0177 45.8538 29.4854C45.6007 29.2319 45.3472 28.9789 45.0931 28.7263C44.7373 28.3721 44.3836 28.0159 44.0304 27.6592C43.875 27.5058 43.875 27.5058 43.7165 27.3492C42.1228 25.7263 41.2384 23.7921 41.2119 21.5157C41.2407 19.0441 42.2926 17.0884 44.0304 15.3722C44.1422 15.2593 44.2539 15.1464 44.3691 15.0301C44.7349 14.6616 45.1028 14.2954 45.471 13.9293C45.7285 13.6715 45.9858 13.4136 46.243 13.1555C46.7808 12.6168 47.3198 12.0792 47.8595 11.5424C48.5486 10.857 49.2348 10.1687 49.9201 9.47957C50.4505 8.94692 50.9823 8.4158 51.5146 7.88512C51.7681 7.63203 52.0212 7.37849 52.2737 7.12446C52.6279 6.76864 52.9841 6.41493 53.3409 6.06168C53.4432 5.95811 53.5455 5.85454 53.6508 5.74783C56.7494 2.70491 60.8624 2.55758 64.3887 4.90436Z" fill="#2A67DC"/>
</svg>
