<svg width="25" height="25" viewBox="0 0 25 25" fill="none" xmlns="http://www.w3.org/2000/svg">
<path d="M11.8798 1.0012C12.0008 1.00216 12.1217 1.0012 12.2427 1.00006C12.6393 0.999433 12.9928 0.999958 13.346 1.20388C13.3754 1.22036 13.4048 1.23684 13.4352 1.25381C13.7727 1.45476 13.9729 1.81343 14.0796 2.18084C14.1405 2.48826 14.1255 2.80394 14.1234 3.1161C14.1233 3.19565 14.1233 3.27521 14.1234 3.35477C14.1235 3.56961 14.1227 3.78444 14.1217 3.99928C14.1209 4.22422 14.1208 4.44916 14.1207 4.67411C14.1202 5.09956 14.1191 5.52501 14.1178 5.95046C14.1163 6.43503 14.1155 6.91961 14.1149 7.40419C14.1135 8.40053 14.1111 9.39687 14.1081 10.3932C14.1493 10.3931 14.1904 10.393 14.2329 10.3928C15.2357 10.3899 16.2384 10.3876 17.2412 10.3862C17.7262 10.3855 18.2111 10.3846 18.6961 10.3831C19.1188 10.3817 19.5416 10.3808 19.9644 10.3805C20.1882 10.3804 20.4119 10.38 20.6357 10.379C20.8465 10.3781 21.0574 10.3778 21.2682 10.378C21.3454 10.378 21.4225 10.3777 21.4997 10.3772C22.1075 10.3733 22.6024 10.4203 23.0741 10.8415C23.3717 11.1904 23.4987 11.5626 23.497 12.015C23.4973 12.0532 23.4975 12.0914 23.4977 12.1308C23.498 12.2112 23.498 12.2916 23.4976 12.372C23.4972 12.4938 23.4985 12.6155 23.4999 12.7373C23.5022 13.2843 23.4634 13.7087 23.0701 14.122C22.5636 14.6036 22.0566 14.6266 21.3859 14.6221C21.3063 14.6221 21.2267 14.6221 21.1472 14.6222C20.9323 14.6222 20.7175 14.6214 20.5026 14.6205C20.2776 14.6196 20.0527 14.6196 19.8277 14.6194C19.4022 14.619 18.9767 14.6179 18.5512 14.6165C18.0666 14.615 17.582 14.6143 17.0974 14.6136C16.101 14.6122 15.1045 14.6098 14.1081 14.6068C14.1082 14.648 14.1083 14.6892 14.1085 14.7316C14.1114 15.7343 14.1137 16.737 14.1151 17.7397C14.1158 18.2246 14.1167 18.7095 14.1182 19.1944C14.1196 19.6171 14.1205 20.0399 14.1207 20.4626C14.1209 20.6863 14.1213 20.9101 14.1223 21.1338C14.1232 21.3447 14.1235 21.5555 14.1233 21.7663C14.1233 21.8435 14.1236 21.9206 14.1241 21.9978C14.1282 22.6324 14.0739 23.0941 13.6232 23.568C13.1789 23.9908 12.7057 24.0044 12.1223 23.9988C12.0013 23.9979 11.8804 23.9988 11.7594 24C11.2147 24.0009 10.7903 23.9593 10.379 23.568C9.89733 23.0616 9.8743 22.5546 9.8788 21.884C9.87884 21.8044 9.87881 21.7248 9.87874 21.6453C9.8787 21.4304 9.87949 21.2156 9.88043 21.0008C9.88127 20.7758 9.88135 20.5509 9.88151 20.3259C9.88193 19.9005 9.88303 19.475 9.88438 19.0496C9.88589 18.565 9.88662 18.0804 9.8873 17.5959C9.8887 16.5995 9.89107 15.6032 9.89407 14.6068C9.85289 14.607 9.81172 14.6071 9.7693 14.6072C8.76651 14.6102 7.76372 14.6124 6.76093 14.6138C6.27598 14.6145 5.79104 14.6154 5.3061 14.617C4.88332 14.6183 4.46055 14.6192 4.03777 14.6195C3.814 14.6197 3.59024 14.6201 3.36647 14.6211C3.15563 14.622 2.9448 14.6223 2.73395 14.6221C2.65679 14.6221 2.57963 14.6224 2.50246 14.6229C1.86773 14.6269 1.40603 14.5726 0.932075 14.122C0.509275 13.6777 0.495683 13.2046 0.501198 12.6213C0.50216 12.5003 0.501204 12.3794 0.50006 12.2584C0.499433 11.8619 0.499958 11.5084 0.703897 11.1552C0.720378 11.1258 0.736858 11.0964 0.753838 11.0661C0.954804 10.7285 1.31351 10.5284 1.68095 10.4217C1.9884 10.3608 2.30411 10.3758 2.61629 10.3779C2.69586 10.378 2.77542 10.378 2.85499 10.3779C3.06985 10.3778 3.2847 10.3786 3.49955 10.3796C3.72452 10.3804 3.94948 10.3805 4.17445 10.3806C4.59994 10.3811 5.02542 10.3822 5.45091 10.3835C5.93553 10.385 6.42016 10.3858 6.90478 10.3864C7.90121 10.3878 8.89764 10.3902 9.89407 10.3932C9.89394 10.352 9.89382 10.3109 9.89369 10.2684C9.89072 9.26575 9.88849 8.26305 9.8871 7.26035C9.8864 6.77545 9.88546 6.29055 9.88392 5.80565C9.88258 5.38292 9.88171 4.96018 9.88141 4.53744C9.88124 4.3137 9.88083 4.08995 9.87985 3.86621C9.87893 3.65539 9.87865 3.44457 9.87885 3.23375C9.87882 3.15659 9.87855 3.07943 9.87803 3.00228C9.87399 2.36761 9.92828 1.90594 10.379 1.43204C10.8233 1.00927 11.2964 0.995683 11.8798 1.0012Z" fill="white"/>
</svg>
