<svg width="76" height="76" viewBox="0 0 76 76" fill="none" xmlns="http://www.w3.org/2000/svg">
<path d="M45.8856 8.87846C46.1292 9.08282 46.3704 9.29001 46.6092 9.50004C46.7788 9.64843 46.7788 9.64843 46.9519 9.79981C49.2725 11.9676 50.6059 15.1684 50.7956 18.3124C50.8419 21.7754 49.8377 25.1309 47.421 27.6871C47.349 27.7594 47.2771 27.8318 47.2029 27.9063C47.4048 28.4428 47.6452 28.9284 47.9324 29.4243C48.0196 29.5754 48.1069 29.7264 48.1968 29.8821C48.2913 30.0444 48.3858 30.2068 48.4832 30.3741C48.583 30.5462 48.6827 30.7183 48.7824 30.8904C49.5832 32.2705 50.3969 33.6429 51.2128 35.0142C51.7981 35.9992 52.3768 36.9876 52.9465 37.9817C53.1305 38.3015 53.316 38.6203 53.5031 38.9382C53.9824 39.7548 54.43 40.5736 54.8422 41.4263C55.609 43.1041 55.609 43.1041 56.9494 44.2765C57.8163 44.5081 58.6799 44.518 59.5724 44.5168C61.7766 44.5974 64.0152 46.0796 65.6092 47.5C65.7219 47.5988 65.8346 47.6975 65.9507 47.7992C68.1264 49.8284 69.648 52.9856 69.7654 55.961C69.7769 56.186 69.7769 56.186 69.7886 56.4156C69.8878 60.0511 68.6345 63.2094 66.2029 65.9063C63.9765 68.236 60.8591 69.6226 57.6391 69.7617C53.932 69.8048 50.5561 68.5805 47.8821 65.9958C46.304 64.3898 45.3884 62.5408 44.6795 60.4141C40.2709 60.4141 35.8623 60.4141 31.3201 60.4141C31.0262 61.1978 30.7323 61.9816 30.4295 62.7891C30.0968 63.3729 29.7842 63.8871 29.3904 64.4219C29.2913 64.5574 29.1922 64.6929 29.0901 64.8324C27.0616 67.4541 24.2488 69.0877 21.0037 69.6636C17.4762 70.1115 13.9656 69.3312 11.1233 67.1309C8.43481 64.8763 6.59097 62.0474 6.23418 58.4844C5.96294 54.8237 6.8328 51.4135 9.27215 48.5835C10.3518 47.3813 11.4793 46.4757 12.9139 45.7188C13.0478 45.6476 13.1818 45.5764 13.3198 45.5031C14.9918 44.6819 16.9048 44.2042 18.7679 44.2251C18.9238 44.2265 19.0798 44.2278 19.2404 44.2292C19.357 44.2309 19.4735 44.2326 19.5936 44.2344C19.633 44.1293 19.6723 44.0242 19.7129 43.9159C19.8988 43.4723 20.1166 43.0689 20.3555 42.6515C20.4494 42.487 20.5434 42.3225 20.6402 42.1531C20.7428 41.9748 20.8454 41.7965 20.9481 41.6182C21.0549 41.4318 21.1618 41.2454 21.2687 41.059C22.0817 39.6436 22.9123 38.2391 23.748 36.8371C24.5699 35.4553 25.3694 34.0617 26.1607 32.6624C26.6178 31.8567 27.081 31.0577 27.5709 30.2714C27.656 30.1342 27.7411 29.997 27.8288 29.8557C27.9872 29.6022 28.1476 29.35 28.3104 29.0993C28.3794 28.9888 28.4484 28.8783 28.5195 28.7644C28.5806 28.6696 28.6417 28.5748 28.7046 28.4771C28.8311 28.1956 28.8311 28.1956 28.681 27.8899C28.4669 27.5585 28.222 27.2751 27.9617 26.9786C25.9274 24.4708 25.0206 21.1545 25.2342 17.961C25.5426 15.1011 26.5918 12.5597 28.4998 10.3907C28.5987 10.2776 28.6977 10.1645 28.7996 10.048C33.182 5.35659 40.8869 4.99658 45.8856 8.87846ZM34.5857 31.3204C32.9643 33.8986 31.4679 36.554 29.9497 39.1938C29.1549 40.5724 28.3448 41.9417 27.5281 43.3074C26.938 44.2972 26.3715 45.2965 25.8279 46.3125C25.9517 46.4025 26.0755 46.4924 26.2031 46.5851C28.5615 48.3272 30.1413 50.4 31.0418 53.1952C31.1342 53.5706 31.1342 53.5706 31.3201 53.7344C31.7357 53.7485 32.1477 53.753 32.5633 53.7513C32.7588 53.7513 32.7588 53.7513 32.9582 53.7513C33.3912 53.7512 33.8241 53.7501 34.257 53.7489C34.5563 53.7486 34.8556 53.7484 35.1549 53.7483C35.9443 53.7477 36.7338 53.7462 37.5232 53.7446C38.3281 53.7431 39.133 53.7424 39.9379 53.7417C41.5184 53.7401 43.099 53.7375 44.6795 53.7344C44.7304 53.6118 44.7813 53.4892 44.8337 53.3629C44.9005 53.2023 44.9673 53.0416 45.0362 52.8761C45.1024 52.7167 45.1686 52.5574 45.2368 52.3933C45.7918 51.072 46.4229 49.9288 47.3514 48.836C47.4287 48.7372 47.506 48.6385 47.5856 48.5368C48.3202 47.631 49.2267 46.9828 50.1717 46.3125C49.676 45.2868 49.1344 44.3017 48.5481 43.3252C48.3758 43.036 48.2036 42.7466 48.0315 42.4572C47.9434 42.3093 47.8553 42.1614 47.7646 42.0089C47.3384 41.2903 46.9181 40.5683 46.4979 39.8462C45.9247 38.8624 45.3512 37.8788 44.7763 36.896C44.7216 36.8025 44.667 36.709 44.6106 36.6127C44.3369 36.145 44.0627 35.6775 43.7877 35.2106C43.3424 34.4542 42.8975 33.6981 42.4674 32.9329C42.3765 32.7737 42.3765 32.7737 42.2838 32.6114C42.1337 32.3482 41.9859 32.0837 41.8383 31.819C41.5924 31.4456 41.5924 31.4456 41.2069 31.3325C40.7834 31.3192 40.4274 31.3716 40.013 31.4595C38.1832 31.7879 36.4068 31.5852 34.5857 31.3204Z" fill="#2A67DC"/>
</svg>
