<svg width="217" height="217" viewBox="0 0 217 217" fill="none" xmlns="http://www.w3.org/2000/svg">
<g opacity="0.1">
<path d="M136.779 115.158C137.317 115.155 137.855 115.152 138.409 115.149C139.878 115.142 141.348 115.14 142.817 115.139C143.738 115.139 144.658 115.137 145.579 115.135C148.797 115.127 152.015 115.124 155.234 115.124C158.222 115.125 161.211 115.116 164.199 115.102C166.774 115.091 169.349 115.087 171.923 115.087C173.457 115.087 174.991 115.085 176.524 115.076C178.238 115.066 179.952 115.07 181.666 115.075C182.167 115.071 182.667 115.066 183.182 115.061C189.256 115.107 193.831 117.251 198.246 121.347C202.511 125.854 203.632 130.888 203.609 136.923C203.612 137.461 203.615 137.999 203.618 138.553C203.625 140.018 203.625 141.482 203.623 142.946C203.621 144.174 203.624 145.402 203.626 146.63C203.632 149.53 203.632 152.43 203.627 155.329C203.622 158.309 203.628 161.288 203.639 164.267C203.649 166.836 203.651 169.405 203.649 171.975C203.648 173.504 203.649 175.034 203.656 176.563C203.664 178.271 203.658 179.978 203.65 181.686C203.657 182.434 203.657 182.434 203.663 183.196C203.609 189.275 201.461 193.884 197.319 198.272C192.889 202.447 187.671 203.698 181.7 203.657C181.162 203.66 180.624 203.663 180.069 203.666C178.608 203.674 177.148 203.671 175.687 203.665C174.149 203.661 172.61 203.665 171.072 203.668C168.49 203.671 165.908 203.667 163.326 203.659C160.353 203.649 157.38 203.652 154.407 203.662C151.841 203.669 149.276 203.67 146.71 203.666C145.183 203.663 143.657 203.663 142.13 203.669C140.426 203.674 138.723 203.666 137.019 203.657C136.522 203.66 136.026 203.664 135.514 203.667C129.44 203.606 124.831 201.457 120.447 197.318C116.277 192.894 115.022 187.677 115.055 181.713C115.052 181.176 115.048 180.639 115.044 180.086C115.035 178.629 115.036 177.172 115.04 175.715C115.042 174.491 115.039 173.267 115.036 172.044C115.029 169.153 115.03 166.263 115.037 163.372C115.044 160.406 115.038 157.44 115.024 154.474C115.013 151.912 115.01 149.351 115.013 146.789C115.015 145.266 115.014 143.743 115.006 142.219C114.996 140.518 115.004 138.817 115.014 137.115C115.009 136.621 115.004 136.128 114.999 135.619C115.067 129.659 117.137 124.947 121.257 120.728C125.866 116.355 130.594 115.153 136.779 115.158Z" fill="#2A67DC"/>
<path d="M35.0599 115.158C35.5979 115.155 36.1358 115.152 36.69 115.149C38.1595 115.142 39.629 115.14 41.0986 115.139C42.0191 115.139 42.9396 115.137 43.8601 115.135C47.0784 115.127 50.2967 115.124 53.5151 115.124C56.5035 115.125 59.4919 115.116 62.4803 115.102C65.055 115.091 67.6298 115.087 70.2045 115.087C71.7383 115.087 73.2719 115.085 74.8056 115.076C76.5197 115.066 78.2335 115.07 79.9476 115.075C80.4478 115.071 80.948 115.066 81.4633 115.061C87.5368 115.107 92.1119 117.251 96.5271 121.347C100.793 125.854 101.913 130.888 101.89 136.923C101.893 137.461 101.896 137.999 101.899 138.553C101.907 140.018 101.906 141.482 101.904 142.946C101.902 144.174 101.905 145.402 101.908 146.63C101.914 149.53 101.913 152.43 101.908 155.329C101.903 158.309 101.909 161.288 101.921 164.267C101.93 166.836 101.933 169.405 101.93 171.975C101.929 173.504 101.93 175.034 101.937 176.563C101.945 178.271 101.939 179.978 101.932 181.686C101.938 182.434 101.938 182.434 101.944 183.196C101.89 189.275 99.7421 193.884 95.6 198.272C91.1703 202.447 85.9524 203.698 79.9813 203.657C79.443 203.66 78.9048 203.663 78.3502 203.666C76.8895 203.674 75.4291 203.671 73.9684 203.665C72.4299 203.661 70.8915 203.665 69.3531 203.668C66.771 203.671 64.1889 203.667 61.6068 203.659C58.634 203.649 55.6613 203.652 52.6885 203.662C50.1226 203.669 47.5569 203.67 44.991 203.666C43.4645 203.663 41.938 203.663 40.4114 203.669C38.7076 203.674 37.0042 203.666 35.3005 203.657C34.8037 203.66 34.3068 203.664 33.7949 203.667C27.7213 203.606 23.1127 201.457 18.7282 197.318C14.5583 192.894 13.3034 187.677 13.3367 181.713C13.333 181.176 13.3294 180.639 13.3256 180.086C13.3162 178.629 13.3173 177.172 13.3211 175.715C13.3233 174.491 13.3201 173.267 13.3171 172.044C13.3099 169.153 13.3114 166.263 13.3185 163.372C13.3256 160.406 13.3189 157.44 13.3052 154.474C13.2939 151.912 13.2909 149.351 13.2944 146.789C13.2965 145.266 13.2957 143.743 13.2869 142.219C13.2776 140.518 13.2857 138.817 13.2953 137.115C13.2903 136.621 13.2854 136.128 13.2803 135.619C13.3481 129.659 15.4185 124.947 19.5378 120.728C24.1469 116.355 28.8757 115.153 35.0599 115.158Z" fill="#2A67DC"/>
<path d="M35.0599 13.4394C35.5979 13.4365 36.1358 13.4337 36.69 13.4307C38.1595 13.4233 39.629 13.4213 41.0986 13.4207C42.0191 13.4201 42.9396 13.4183 43.8601 13.4161C47.0784 13.4082 50.2967 13.4048 53.5151 13.4054C56.5035 13.4059 59.4919 13.397 62.4803 13.3836C65.055 13.3725 67.6298 13.368 70.2045 13.3685C71.7383 13.3687 73.2719 13.3664 74.8056 13.3574C76.5197 13.3475 78.2335 13.3515 79.9476 13.3566C80.4478 13.3518 80.948 13.3471 81.4633 13.3422C87.5368 13.3878 92.1119 15.5322 96.5271 19.6286C100.793 24.1355 101.913 29.1688 101.89 35.204C101.893 35.7421 101.896 36.2803 101.899 36.8347C101.907 38.2989 101.906 39.763 101.904 41.2272C101.902 42.4552 101.905 43.6831 101.908 44.911C101.914 47.811 101.913 50.7108 101.908 53.6107C101.903 56.5898 101.909 59.5688 101.921 62.5478C101.93 65.1172 101.933 67.6866 101.93 70.256C101.929 71.7855 101.93 73.3148 101.937 74.8443C101.945 76.5521 101.939 78.2597 101.932 79.9676C101.938 80.7148 101.938 80.7148 101.944 81.4772C101.89 87.5561 99.7421 92.1654 95.6 96.5534C91.1703 100.728 85.9524 101.979 79.9813 101.938C79.443 101.941 78.9048 101.944 78.3502 101.947C76.8895 101.955 75.4291 101.952 73.9684 101.946C72.4299 101.942 70.8915 101.946 69.3531 101.949C66.771 101.952 64.1889 101.948 61.6068 101.94C58.634 101.931 55.6613 101.934 52.6885 101.943C50.1226 101.951 47.5569 101.952 44.991 101.947C43.4645 101.945 41.938 101.944 40.4114 101.95C38.7076 101.956 37.0042 101.948 35.3005 101.938C34.8037 101.942 34.3068 101.945 33.7949 101.949C27.7213 101.887 23.1127 99.7386 18.7282 95.5997C14.5583 91.1754 13.3034 85.9587 13.3367 79.9945C13.333 79.4576 13.3294 78.9207 13.3256 78.3676C13.3162 76.9103 13.3173 75.4533 13.3211 73.996C13.3233 72.7723 13.3201 71.5487 13.3171 70.325C13.3099 67.4343 13.3114 64.5438 13.3185 61.6531C13.3256 58.687 13.3189 55.7211 13.3052 52.755C13.2939 50.1935 13.2909 47.6321 13.2944 45.0705C13.2965 43.5472 13.2957 42.024 13.2869 40.5007C13.2776 38.7992 13.2857 37.0981 13.2953 35.3965C13.2903 34.9027 13.2854 34.4089 13.2803 33.9001C13.3481 27.9398 15.4185 23.2283 19.5378 19.0094C24.1469 14.636 28.8757 13.4347 35.0599 13.4394Z" fill="#2A67DC"/>
<path d="M172.498 13.1386C173.677 14.1049 174.747 15.1552 175.818 16.2391C176.12 16.5386 176.423 16.8381 176.734 17.1466C177.722 18.1264 178.703 19.1123 179.683 20.0987C180.374 20.7883 181.065 21.4777 181.756 22.1669C183.2 23.6077 184.64 25.0515 186.078 26.4975C187.914 28.3435 189.758 30.1817 191.604 32.0178C193.031 33.4386 194.454 34.8635 195.876 36.2896C196.554 36.9687 197.233 37.6466 197.914 38.3232C198.867 39.2721 199.814 40.2263 200.761 41.1821C201.038 41.4561 201.316 41.7301 201.602 42.0125C205.871 46.3602 208.24 51.5422 208.312 57.6406C208.234 64.262 205.416 69.5012 200.761 74.0991C200.461 74.4016 200.162 74.704 199.853 75.0156C198.874 76.0028 197.888 76.9838 196.901 77.9645C196.212 78.6553 195.522 79.3463 194.833 80.0376C193.392 81.4809 191.948 82.9211 190.502 84.3592C188.656 86.1955 186.818 88.0393 184.982 89.8855C183.561 91.3125 182.136 92.7354 180.71 94.1571C180.031 94.8351 179.353 95.5143 178.677 96.1949C177.728 97.1481 176.774 98.0957 175.818 99.0421C175.544 99.3195 175.27 99.597 174.987 99.8829C170.685 104.108 165.428 106.512 159.359 106.593C152.751 106.504 147.462 103.66 142.901 99.0421C142.598 98.7426 142.296 98.4431 141.984 98.1346C140.997 97.1547 140.016 96.1689 139.035 95.1825C138.345 94.4929 137.654 93.8035 136.962 93.1143C135.519 91.6735 134.079 90.2297 132.641 88.7837C130.805 86.9377 128.961 85.0995 127.114 83.2634C125.688 81.8426 124.265 80.4177 122.843 78.9916C122.165 78.3125 121.486 77.6346 120.805 76.958C119.852 76.0091 118.904 75.0549 117.958 74.0991C117.542 73.6881 117.542 73.6881 117.117 73.2687C112.848 68.921 110.478 63.739 110.407 57.6406C110.484 51.0192 113.302 45.78 117.958 41.1821C118.257 40.8796 118.557 40.5772 118.865 40.2656C119.845 39.2784 120.831 38.2974 121.817 37.3167C122.507 36.6259 123.196 35.9349 123.886 35.2436C125.326 33.8003 126.77 32.3601 128.216 30.922C130.062 29.0857 131.901 27.2419 133.737 25.3957C135.157 23.9687 136.582 22.5458 138.008 21.1241C138.687 20.4461 139.365 19.7669 140.042 19.0863C140.991 18.1331 141.945 17.1855 142.901 16.2391C143.175 15.9617 143.449 15.6842 143.731 15.3983C152.032 7.2463 163.051 6.8516 172.498 13.1386Z" fill="#2A67DC"/>
</g>
</svg>
