<svg width="24" height="24" viewBox="0 0 24 24" fill="none" xmlns="http://www.w3.org/2000/svg">
<path d="M22.1255 1.68742C22.8128 2.40263 22.8002 3.79024 22.7887 4.71873C22.7708 5.52233 22.6428 6.29779 22.4536 7.07804C22.4439 7.11783 22.4343 7.15762 22.4244 7.19861C21.9075 9.25301 20.6719 11.1499 19.3328 12.7627C19.2745 12.8335 19.2174 12.9051 19.1604 12.977C18.56 13.7335 17.8572 14.4797 17.1098 15.0937C17.0863 15.1131 17.0628 15.1326 17.0386 15.1527C16.0903 15.9354 15.0808 16.5827 13.9692 17.1093C13.94 17.1235 13.9108 17.1377 13.8807 17.1524C13.2187 17.4733 13.2187 17.4733 12.8442 17.3905C12.625 17.2954 12.4765 17.1812 12.3076 17.0131C12.2715 16.9774 12.2715 16.9774 12.2347 16.941C12.1546 16.8617 12.075 16.7819 11.9954 16.702C11.9379 16.6449 11.8803 16.5877 11.8228 16.5306C11.6668 16.3757 11.5113 16.2203 11.3559 16.0648C11.226 15.9349 11.0959 15.8053 10.9658 15.6756C10.6589 15.3695 10.3524 15.0631 10.0461 14.7565C9.73031 14.4404 9.41387 14.1251 9.09708 13.81C8.82488 13.5393 8.55313 13.268 8.28174 12.9965C8.11975 12.8344 7.9576 12.6725 7.79499 12.511C7.64206 12.3591 7.48972 12.2067 7.33779 12.0538C7.28204 11.9979 7.22609 11.9422 7.16993 11.8867C6.58665 11.3099 6.58665 11.3099 6.55371 10.9006C6.59056 10.6452 6.66388 10.4283 6.7739 10.1952C6.79062 10.1589 6.80734 10.1226 6.82457 10.0852C7.25199 9.16866 7.7605 8.29245 8.39108 7.49991C8.42571 7.45629 8.46033 7.41266 8.496 7.36771C8.70166 7.11269 8.91539 6.86652 9.13614 6.62449C9.22263 6.52901 9.30659 6.43198 9.39011 6.3339C9.70211 5.97618 10.0438 5.63909 10.4056 5.33195C10.5173 5.23533 10.6241 5.1341 10.7319 5.03312C11.0439 4.74834 11.3801 4.49743 11.7177 4.24398C11.8031 4.17924 11.8876 4.11351 11.9715 4.04691C12.3704 3.73201 12.7869 3.45415 13.2192 3.18742C13.2529 3.16658 13.2866 3.14574 13.3213 3.12427C15.4864 1.79795 19.6642 0.123671 22.1255 1.68742ZM18.5337 2.82999C18.4611 2.83885 18.4611 2.83885 18.3871 2.84789C18.1546 2.8785 17.939 2.91364 17.7192 2.99992C17.9046 3.22175 18.0975 3.43208 18.302 3.63638C18.3307 3.66523 18.3594 3.69408 18.3889 3.72381C18.4827 3.81802 18.5767 3.91206 18.6706 4.00608C18.7362 4.07182 18.8018 4.13756 18.8674 4.2033C19.0042 4.34045 19.1412 4.47751 19.2782 4.6145C19.4542 4.79044 19.6298 4.9667 19.8053 5.14305C19.9404 5.2786 20.0756 5.41394 20.2109 5.54922C20.2758 5.61416 20.3406 5.67919 20.4054 5.74429C20.4955 5.83484 20.5858 5.9251 20.6763 6.01528C20.7032 6.04238 20.73 6.06948 20.7576 6.0974C20.8796 6.23655 20.8796 6.23655 21.0473 6.28117C21.07 6.15816 21.0924 6.03511 21.1147 5.91202C21.121 5.87794 21.1273 5.84387 21.1339 5.80875C21.2816 4.98686 21.4332 3.72469 21.0473 2.95304C20.6669 2.84107 20.271 2.78297 19.8755 2.76554C19.8229 2.76306 19.7704 2.76059 19.7163 2.75803C19.3173 2.74858 18.9298 2.7813 18.5337 2.82999ZM13.1782 8.33781C12.8716 8.71802 12.708 9.16396 12.7505 9.65616C12.8408 10.1472 13.0444 10.5788 13.4382 10.8967C13.8709 11.182 14.3259 11.2944 14.8364 11.2206C15.2878 11.1238 15.6554 10.9158 15.938 10.5468C16.2175 10.0778 16.354 9.63312 16.234 9.0889C16.075 8.56741 15.7715 8.17333 15.2905 7.91007C14.5655 7.57156 13.7193 7.75307 13.1782 8.33781Z" fill="white"/>
<path d="M6.2345 12.2812C6.40559 12.3534 6.51489 12.4561 6.64563 12.5867C6.66742 12.6084 6.68922 12.63 6.71167 12.6523C6.78451 12.7248 6.85701 12.7976 6.92952 12.8704C6.98171 12.9225 7.03393 12.9745 7.08616 13.0265C7.22786 13.1678 7.36926 13.3094 7.5106 13.451C7.65842 13.5991 7.80646 13.7469 7.95447 13.8947C8.20288 14.143 8.4511 14.3914 8.69921 14.64C8.98639 14.9277 9.27391 15.215 9.56161 15.5022C9.8084 15.7486 10.055 15.9951 10.3015 16.2418C10.4488 16.3893 10.5961 16.5367 10.7436 16.6839C10.8822 16.8222 11.0205 16.9607 11.1587 17.0994C11.2096 17.1504 11.2605 17.2013 11.3115 17.2521C11.3809 17.3212 11.45 17.3907 11.519 17.4601C11.5579 17.499 11.5967 17.5378 11.6367 17.5779C11.7189 17.6719 11.7189 17.6719 11.7189 17.7656C11.5408 17.8638 11.3625 17.9613 11.1839 18.0583C11.1233 18.0913 11.0629 18.1244 11.0025 18.1577C10.3004 18.5448 9.76187 18.7242 8.96899 18.4949C8.50178 18.2766 8.14321 17.8608 7.78357 17.5007C7.72589 17.4432 7.6682 17.3857 7.6105 17.3282C7.49027 17.2083 7.37021 17.0883 7.25027 16.9681C7.09722 16.8147 6.94364 16.662 6.78991 16.5093C6.67087 16.391 6.55216 16.2723 6.43353 16.1535C6.37706 16.0971 6.32047 16.0407 6.26377 15.9845C5.72773 15.4524 5.3796 14.9877 5.37207 14.2029C5.42337 13.8172 5.57424 13.4836 5.75989 13.1455C5.77965 13.1087 5.79941 13.0719 5.81976 13.0339C5.95554 12.7817 6.0949 12.5314 6.2345 12.2812Z" fill="white"/>
<path d="M19.9219 13.5469C19.9683 13.5701 19.9683 13.5701 20.0156 13.5938C20.0409 13.7097 20.0601 13.8221 20.076 13.9395C20.0811 13.975 20.0862 14.0105 20.0914 14.047C20.1021 14.1228 20.1126 14.1986 20.1228 14.2745C20.1383 14.3877 20.1547 14.5006 20.1713 14.6136C20.2227 14.9766 20.2622 15.3393 20.2716 15.7061C20.2733 15.7665 20.275 15.827 20.2768 15.8893C20.2402 16.3501 19.9179 16.6788 19.6044 16.986C19.5649 17.0254 19.5254 17.0649 19.4848 17.1056C19.4018 17.1883 19.3185 17.2708 19.2349 17.353C19.1075 17.4785 18.981 17.6049 18.8547 17.7316C18.7736 17.8122 18.6924 17.8928 18.6112 17.9733C18.5549 18.0296 18.5549 18.0296 18.4974 18.0871C18.1557 18.4216 17.8709 18.6117 17.3848 18.627C16.8316 18.6202 16.5051 18.3255 16.125 17.9531C16.1001 17.9292 16.0753 17.9052 16.0497 17.8805C15.9709 17.8045 15.8926 17.728 15.8145 17.6514C15.7894 17.627 15.7644 17.6026 15.7387 17.5775C15.6781 17.517 15.62 17.454 15.5625 17.3906C15.5625 17.3597 15.5625 17.3287 15.5625 17.2969C15.6648 17.2304 15.767 17.1694 15.873 17.1094C16.4124 16.7951 16.9102 16.4296 17.3906 16.0312C17.4367 15.9934 17.4827 15.9555 17.5302 15.9164C18.1412 15.4093 18.7416 14.8709 19.2605 14.2687C19.476 14.0236 19.6999 13.786 19.9219 13.5469Z" fill="white"/>
<path d="M8.95636 3.81157C8.99946 3.81782 9.04256 3.82406 9.08697 3.83049C9.2231 3.85027 9.35917 3.87047 9.49524 3.89067C9.58816 3.90425 9.68109 3.9178 9.77402 3.93132C10.0005 3.96433 10.2269 3.99772 10.4532 4.0313C10.3722 4.20775 10.283 4.29029 10.1281 4.40923C9.8828 4.60408 9.66703 4.81255 9.44781 5.03673C9.34858 5.13597 9.24823 5.22746 9.14075 5.31743C8.88331 5.53825 8.66212 5.79362 8.43762 6.04692C8.41538 6.07176 8.39313 6.09659 8.37022 6.12218C7.73127 6.83756 7.18747 7.61041 6.70325 8.43755C6.4435 8.32558 6.26704 8.11048 6.07043 7.91314C6.01034 7.85418 6.01034 7.85418 5.94904 7.79402C5.59541 7.44067 5.38912 7.15965 5.37317 6.65044C5.37087 6.60101 5.36858 6.55158 5.36621 6.50066C5.43276 6.03282 5.73285 5.7176 6.05853 5.39818C6.12102 5.33569 6.12102 5.33569 6.18477 5.27194C6.29467 5.16236 6.40508 5.05334 6.51573 4.94453C6.60572 4.85567 6.69501 4.76612 6.7843 4.67656C6.89161 4.56906 6.9995 4.46215 7.10736 4.35521C7.16714 4.29545 7.16714 4.29545 7.22812 4.23448C7.76491 3.70831 8.24672 3.7048 8.95636 3.81157Z" fill="white"/>
<path d="M6.26343 17.3497C6.48581 17.4732 6.62058 17.6126 6.70288 17.8594C6.71405 17.9539 6.71405 17.9539 6.71753 18.0587C6.72016 18.1098 6.72016 18.1098 6.72284 18.1619C6.66495 18.5082 6.3962 18.7488 6.15788 18.9851C6.12211 19.0212 6.08634 19.0572 6.04949 19.0943C5.93176 19.2126 5.81353 19.3305 5.69525 19.4483C5.61304 19.5306 5.53084 19.6129 5.44866 19.6952C5.27666 19.8675 5.1044 20.0394 4.93196 20.2112C4.71091 20.4314 4.4905 20.6523 4.27027 20.8734C4.10079 21.0434 3.93097 21.213 3.76105 21.3826C3.67963 21.4639 3.59832 21.5453 3.51711 21.6269C3.40368 21.7407 3.28982 21.854 3.17582 21.9672C3.14233 22.001 3.10884 22.0347 3.07434 22.0695C2.84794 22.2931 2.67404 22.4187 2.34644 22.4239C2.12262 22.4189 1.99911 22.3697 1.82788 22.2188C1.65985 22.0326 1.58698 21.8923 1.58179 21.6417C1.57997 21.5897 1.57997 21.5897 1.57812 21.5368C1.62269 21.2041 1.85856 20.9959 2.08482 20.7711C2.12044 20.7351 2.15605 20.6992 2.19274 20.6622C2.31026 20.5438 2.4283 20.4259 2.54639 20.3081C2.62844 20.2258 2.71048 20.1436 2.7925 20.0613C2.96439 19.889 3.13653 19.7169 3.30886 19.5451C3.52951 19.3249 3.74941 19.1041 3.96911 18.883C4.13832 18.713 4.30796 18.5433 4.47774 18.3738C4.55899 18.2926 4.6401 18.2112 4.72106 18.1296C4.83436 18.0156 4.94825 17.9023 5.0623 17.789C5.09553 17.7553 5.12875 17.7216 5.16299 17.6869C5.49039 17.3644 5.79669 17.2048 6.26343 17.3497Z" fill="white"/>
<path d="M4.51155 15.5918C4.73466 15.715 4.84184 15.8854 4.9217 16.125C4.94903 16.4037 4.88531 16.5977 4.7342 16.8281C4.57765 17.0121 4.40804 17.1819 4.23689 17.352C4.18759 17.4016 4.13831 17.4511 4.08905 17.5007C3.98613 17.6041 3.88286 17.7072 3.77935 17.81C3.64729 17.9413 3.51621 18.0735 3.38538 18.2059C3.28397 18.3084 3.18201 18.4103 3.07989 18.512C3.03135 18.5605 2.98299 18.6092 2.93481 18.658C2.40562 19.1937 2.40562 19.1937 1.99018 19.2288C1.70536 19.191 1.51298 19.1097 1.32112 18.8848C1.21535 18.6287 1.17988 18.3881 1.2752 18.125C1.35153 17.9534 1.45328 17.8356 1.5866 17.7022C1.6091 17.6795 1.6316 17.6567 1.65479 17.6333C1.72854 17.5589 1.80293 17.4853 1.87739 17.4117C1.92921 17.3599 1.98099 17.308 2.03275 17.2561C2.14097 17.1479 2.24951 17.0399 2.35829 16.9322C2.49751 16.7943 2.63598 16.6557 2.77423 16.5169C2.88093 16.4098 2.98798 16.3031 3.09514 16.1966C3.14633 16.1456 3.19742 16.0945 3.24842 16.0433C3.31975 15.9719 3.39152 15.9009 3.46343 15.83C3.50412 15.7895 3.54481 15.7491 3.58674 15.7074C3.86328 15.4741 4.18591 15.4463 4.51155 15.5918Z" fill="white"/>
<path d="M8.17132 19.1983C8.35428 19.3643 8.46015 19.5396 8.5011 19.7853C8.51342 20.0651 8.41837 20.2567 8.24018 20.466C8.1997 20.5067 8.15923 20.5474 8.11752 20.5894C8.09509 20.6122 8.07267 20.6349 8.04956 20.6583C7.97594 20.7328 7.90181 20.8068 7.82763 20.8807C7.77594 20.9326 7.72427 20.9845 7.67262 21.0364C7.56453 21.1449 7.45618 21.2532 7.34766 21.3612C7.20887 21.4995 7.07083 21.6385 6.933 21.7777C6.82656 21.885 6.71969 21.9918 6.61268 22.0986C6.56161 22.1496 6.51069 22.2008 6.45992 22.2522C6.38881 22.324 6.31713 22.3952 6.24527 22.4662C6.18439 22.5271 6.18439 22.5271 6.12228 22.5892C5.89961 22.7689 5.67226 22.8104 5.39105 22.7813C5.18485 22.7132 5.04628 22.6279 4.90179 22.4649C4.78384 22.2196 4.75059 22.0094 4.82037 21.748C4.93354 21.4278 5.18877 21.2097 5.42529 20.977C5.47573 20.9265 5.52613 20.8759 5.57648 20.8253C5.68176 20.7198 5.78751 20.6149 5.89364 20.5103C6.02907 20.3767 6.16332 20.242 6.29723 20.1069C6.401 20.0025 6.50533 19.8987 6.60984 19.795C6.65954 19.7455 6.70909 19.6959 6.75845 19.6462C7.18028 19.222 7.57192 18.9156 8.17132 19.1983Z" fill="white"/>
</svg>
