<svg width="229" height="229" viewBox="0 0 229 229" fill="none" xmlns="http://www.w3.org/2000/svg">
<g opacity="0.1" clip-path="url(#clip0_1446_3916)">
<path d="M83.1912 59.4863C84.7257 60.1391 85.619 60.9764 86.7414 62.1979C94.1969 69.775 103.986 73.4771 114.5 73.5752C125.796 73.4611 135.282 69.2468 143.209 61.2195C143.519 60.8862 143.83 60.553 144.15 60.2096C144.914 59.4863 144.914 59.4863 145.808 59.4863C152.583 67.6129 155.085 76.5318 154.987 86.946C154.977 88.1816 154.987 89.4161 154.998 90.6517C154.997 91.446 154.995 92.2404 154.991 93.0347C154.995 93.3996 154.999 93.7644 155.002 94.1403C154.964 96.5015 154.567 97.8945 152.965 99.7402C151.196 101.044 149.943 101.247 147.765 101.234C147.472 101.235 147.179 101.235 146.877 101.235C145.935 101.234 144.994 101.224 144.053 101.213C143.475 101.212 142.896 101.21 142.301 101.209C140.144 101.202 137.986 101.183 135.829 101.166C131.004 101.138 126.18 101.111 121.209 101.082C121.356 115.104 121.504 129.126 121.656 143.572C130.391 147.622 130.391 147.622 139.158 151.598C148.369 155.917 148.369 155.917 149.688 159.309C150.155 161.184 150.238 162.986 150.219 164.911C150.324 166.636 150.981 168.119 151.679 169.681C152.492 171.549 153.243 173.386 153.859 175.328C151.646 174.661 149.676 173.734 147.629 172.683C147.284 172.507 146.939 172.332 146.583 172.151C145.838 171.772 145.092 171.393 144.347 171.012C143.168 170.41 141.987 169.812 140.805 169.214C137.446 167.516 134.089 165.816 130.737 164.104C128.684 163.055 126.627 162.014 124.568 160.977C123.785 160.581 123.003 160.183 122.223 159.782C121.132 159.221 120.037 158.67 118.941 158.12C118.62 157.953 118.3 157.785 117.969 157.613C116.021 156.65 114.806 156.368 112.711 156.99C111.714 157.405 110.732 157.858 109.763 158.336C109.477 158.476 109.19 158.616 108.894 158.761C108.268 159.068 107.642 159.377 107.017 159.687C106.013 160.185 105.007 160.679 104.001 161.172C100.756 162.762 97.517 164.366 94.2781 165.969C91.8703 167.16 89.461 168.349 87.051 169.536C85.6311 170.237 84.2133 170.942 82.7956 171.647C81.9207 172.079 81.0456 172.51 80.1704 172.942C79.7649 173.145 79.3593 173.348 78.9415 173.557C78.3853 173.83 78.3853 173.83 77.8178 174.108C77.4936 174.269 77.1693 174.43 76.8353 174.595C76.4391 174.737 76.4391 174.737 76.035 174.881C75.7398 174.733 75.4446 174.586 75.1405 174.434C75.3515 173.994 75.3515 173.994 75.5668 173.546C77.4198 169.594 79.0623 165.837 79.333 161.447C79.5121 159.464 79.7186 157.719 81.2388 156.315C83.2746 154.949 85.5123 154.007 87.7646 153.057C89.8662 152.144 91.8876 151.075 93.9256 150.03C98.3596 147.794 102.854 145.699 107.344 143.572C107.491 129.55 107.639 115.529 107.791 101.082C98.1967 101.153 98.1967 101.153 88.6028 101.243C87.3988 101.248 86.1948 101.253 84.9908 101.257C84.5251 101.264 84.5251 101.264 84.0499 101.271C83.1284 101.284 82.2074 101.286 81.2858 101.285C80.5081 101.291 80.5081 101.291 79.7147 101.297C77.5601 100.976 76.1506 99.9613 74.7612 98.3116C74.038 96.5503 74.0452 94.9659 74.052 93.0784C74.0497 92.6915 74.0473 92.3046 74.0449 91.906C74.042 91.0861 74.0426 90.2662 74.0464 89.4462C74.0502 88.2162 74.0374 86.9871 74.0232 85.7571C73.9973 79.4643 74.6688 73.4728 77.7122 67.8446C77.863 67.5534 78.0138 67.2623 78.1691 66.9623C79.5945 64.2853 81.3013 61.8588 83.1912 59.4863Z" fill="#2965DC"/>
<path d="M156.99 180.248C158.525 180.901 159.418 181.738 160.54 182.96C167.996 190.537 177.785 194.239 188.299 194.337C199.595 194.223 209.081 190.009 217.008 181.981C217.318 181.648 217.629 181.315 217.949 180.971C218.713 180.248 218.713 180.248 219.607 180.248C222.026 182.897 223.925 185.93 225.561 189.109C225.701 189.373 225.841 189.637 225.985 189.909C228.816 195.652 229.292 201.382 229.233 207.674C229.223 208.914 229.233 210.152 229.244 211.392C229.243 212.188 229.241 212.984 229.237 213.781C229.241 214.147 229.245 214.513 229.248 214.89C229.21 217.256 228.817 218.653 227.211 220.502C225.43 221.817 224.15 222.013 221.956 222.017C221.658 222.02 221.36 222.022 221.054 222.024C220.059 222.031 219.065 222.028 218.071 222.024C217.357 222.027 216.642 222.03 215.928 222.034C213.99 222.042 212.052 222.041 210.115 222.039C208.496 222.037 206.878 222.04 205.26 222.043C201.441 222.049 197.623 222.048 193.805 222.043C189.867 222.038 185.93 222.044 181.992 222.056C178.61 222.066 175.228 222.069 171.845 222.067C169.826 222.065 167.807 222.066 165.787 222.074C163.888 222.081 161.989 222.079 160.09 222.071C159.394 222.069 158.697 222.07 158.001 222.075C157.049 222.081 156.098 222.076 155.146 222.068C154.613 222.068 154.081 222.068 153.533 222.068C151.369 221.736 149.957 220.732 148.56 219.073C147.837 217.312 147.844 215.728 147.851 213.84C147.848 213.453 147.846 213.066 147.844 212.668C147.841 211.848 147.841 211.028 147.845 210.208C147.849 208.978 147.836 207.749 147.822 206.519C147.796 200.226 148.468 194.235 151.511 188.606C151.662 188.315 151.813 188.024 151.968 187.724C153.393 185.047 155.1 182.621 156.99 180.248Z" fill="#2965DC"/>
<path d="M9.39233 180.248C10.9268 180.901 11.8201 181.738 12.9425 182.96C20.398 190.537 30.1874 194.239 40.7009 194.337C51.9969 194.223 61.4833 190.009 69.4098 181.981C69.7205 181.648 70.0313 181.315 70.3515 180.971C71.115 180.248 71.115 180.248 72.0095 180.248C78.7837 188.375 81.2857 197.294 81.1881 207.708C81.1783 208.943 81.1881 210.178 81.1994 211.413C81.1982 212.208 81.196 213.002 81.1924 213.796C81.1961 214.161 81.1997 214.526 81.2034 214.902C81.1647 217.263 80.7681 218.656 79.1658 220.502C77.3852 221.817 76.1049 222.013 73.9108 222.017C73.6131 222.02 73.3154 222.022 73.0086 222.024C72.0143 222.031 71.0201 222.028 70.0258 222.024C69.3115 222.027 68.5973 222.03 67.883 222.034C65.9452 222.042 64.0074 222.041 62.0696 222.039C60.4512 222.037 58.8329 222.04 57.2145 222.043C53.3963 222.049 49.5782 222.048 45.7601 222.043C41.8223 222.038 37.8846 222.044 33.9469 222.056C30.5647 222.066 27.1825 222.069 23.8003 222.067C21.7809 222.065 19.7615 222.066 17.7421 222.074C15.843 222.081 13.944 222.079 12.0449 222.071C11.3486 222.069 10.6522 222.07 9.95594 222.075C9.00391 222.081 8.05254 222.076 7.10053 222.068C6.56829 222.068 6.03605 222.068 5.48768 222.068C3.32433 221.736 1.91258 220.732 0.515042 219.074C-0.209533 217.308 -0.200926 215.717 -0.194184 213.824C-0.196529 213.436 -0.198873 213.049 -0.201289 212.649C-0.204158 211.827 -0.203566 211.005 -0.199753 210.183C-0.195991 208.948 -0.208743 207.714 -0.223012 206.479C-0.248617 200.231 0.509989 194.627 3.49401 189.026C3.64658 188.729 3.79915 188.433 3.95634 188.127C5.22285 185.735 6.74494 183.651 8.49779 181.59C8.79299 181.147 9.08819 180.704 9.39233 180.248Z" fill="#2965DC"/>
<path d="M203.953 132.391C209.622 136.803 213.908 142.612 215.134 149.834C215.837 157.821 214.776 165.122 209.736 171.598C205.188 176.851 199.226 181.061 192.106 181.688C183.811 182.054 176.746 180.773 170.296 175.188C165.287 170.425 161.624 164.436 161.312 157.376C161.174 148.857 162.896 141.976 168.914 135.647C178.405 126.394 192.887 124.991 203.953 132.391Z" fill="#2965DC"/>
<path d="M56.3552 132.391C62.0243 136.803 66.31 142.612 67.5368 149.834C68.2398 157.821 67.178 165.122 62.1382 171.598C57.5902 176.851 51.6281 181.061 44.508 181.688C36.2138 182.054 29.1488 180.773 22.6984 175.188C17.6895 170.425 14.0264 164.436 13.7147 157.376C13.576 148.857 15.298 141.976 21.3164 135.647C30.8073 126.394 45.2891 124.991 56.3552 132.391Z" fill="#2965DC"/>
<path d="M130.154 11.6289C135.823 16.041 140.109 21.8506 141.336 29.0723C142.039 37.0594 140.977 44.3606 135.937 50.8363C131.389 56.0895 125.427 60.2994 118.307 60.9261C110.013 61.2923 102.948 60.0111 96.4972 54.4266C91.4883 49.6634 87.8252 43.6744 87.5135 36.6146C87.3748 28.0953 89.0968 21.2144 95.1153 14.8856C104.606 5.63234 119.088 4.22958 130.154 11.6289Z" fill="#2965DC"/>
</g>
<defs>
<clipPath id="clip0_1446_3916">
<rect width="229" height="229" fill="white"/>
</clipPath>
</defs>
</svg>
