<svg width="88" height="88" viewBox="0 0 88 88" fill="none" xmlns="http://www.w3.org/2000/svg">
<g clip-path="url(#clip0_1_204)">
<path d="M0 49.3281C7.26 49.3281 14.52 49.3281 22 49.3281C22.3403 51.0297 22.3403 51.0297 22.6875 52.7656C24.4914 58.3216 27.6158 62.4653 32.485 65.6502C33.9438 66.6206 33.9438 66.6206 34.2031 67.5469C34.4619 68.9336 33.8684 69.8263 33.1719 70.9844C32.9814 71.3253 32.7943 71.6679 32.607 72.0106C31.7654 73.5477 30.8853 75.0619 29.9996 76.5739C29.1102 78.0921 28.2304 79.6158 27.3538 81.1414C26.8744 81.9746 26.3931 82.8067 25.9048 83.6346C25.8249 83.7704 25.745 83.9061 25.6627 84.046C25.1389 84.8476 24.4687 85.2231 23.5469 85.4219C22.5262 85.3635 21.8234 85.1389 20.958 84.584C20.8484 84.5159 20.7388 84.4477 20.6258 84.3775C16.4359 81.7293 12.5079 78.3339 9.45312 74.4219C9.31952 74.2568 9.18593 74.0918 9.04828 73.9217C3.63011 67.1081 0 58.0757 0 49.3281Z" fill="#2966DC"/>
<path d="M66.0004 49.3281C73.2604 49.3281 80.5204 49.3281 88.0004 49.3281C88.0004 58.4946 84.1113 67.5535 78.3754 74.5938C78.2613 74.7344 78.2613 74.7344 78.145 74.8778C76.2167 77.2362 74.0892 79.4374 71.6723 81.2969C71.426 81.4959 71.426 81.4959 71.1748 81.699C70.0685 82.5799 68.9225 83.3726 67.7299 84.1328C67.5916 84.2216 67.4532 84.3104 67.3106 84.4019C66.2578 85.0619 65.3649 85.5563 64.1004 85.34C62.8596 85.0061 62.3121 84.0559 61.7035 83.0156C61.3678 82.4233 61.0386 81.8274 60.7109 81.2307C60.006 79.9496 59.2703 78.6877 58.5312 77.4262C57.642 75.9079 56.7621 74.3843 55.8855 72.8586C55.3255 71.8854 54.7575 70.9189 54.1692 69.9624C53.723 69.175 53.7014 68.4281 53.7973 67.5469C54.1996 66.4003 54.9603 65.9773 55.9659 65.3447C56.5911 64.9491 57.1765 64.5084 57.7612 64.0557C57.9024 63.9472 57.9024 63.9472 58.0465 63.8366C58.5662 63.4343 58.5662 63.4343 59.025 62.9663C59.2973 62.7344 59.2973 62.7344 59.6254 62.712C59.8084 62.7412 59.8084 62.7412 59.9951 62.771C60.1324 62.7914 60.2697 62.8119 60.4111 62.8329C60.6255 62.8692 60.6255 62.8692 60.8442 62.9062C60.9811 62.927 61.118 62.9478 61.2591 62.9692C61.6965 63.0361 62.1331 63.1077 62.5696 63.1802C62.7286 63.2062 62.8876 63.2323 63.0515 63.2591C63.5547 63.3416 64.0578 63.4247 64.561 63.5078C65.0653 63.5908 65.5697 63.6737 66.0742 63.7565C66.3866 63.8078 66.699 63.8592 67.0113 63.9109C69.3643 64.428 69.3643 64.428 71.6508 64.0127C72.2992 63.507 72.4923 63.1829 72.7035 62.3906C72.6585 61.3418 72.4267 60.7019 71.7797 59.8662C71.7036 59.7639 71.6276 59.6616 71.5492 59.5562C70.8578 58.6387 70.1176 57.7624 69.3668 56.8933C68.8657 56.3089 68.3871 55.7101 67.9125 55.1041C67.63 54.7577 67.3426 54.4262 67.0424 54.0956C66.9553 53.998 66.8683 53.9004 66.7786 53.7999C66.6078 53.6092 66.4347 53.4207 66.2589 53.2346C65.8561 52.781 65.664 52.4757 65.5815 51.8707C65.6799 51.0174 65.8468 50.1732 66.0004 49.3281Z" fill="#2966DC"/>
<path d="M42.7999 2.56677C49.7589 2.37084 57.734 3.54435 63.7652 7.21881C63.6654 7.8729 63.4791 8.34056 63.1408 8.90735C63.0461 9.06762 62.9514 9.22788 62.8538 9.39301C62.7504 9.5653 62.6471 9.73759 62.5406 9.9151C62.3195 10.2885 62.0987 10.6621 61.8779 11.0356C61.7635 11.2285 61.6491 11.4214 61.5312 11.6202C60.9834 12.5481 60.446 13.482 59.9087 14.4161C59.6923 14.7916 59.4759 15.1671 59.2595 15.5427C59.0983 15.8224 59.0983 15.8224 58.934 16.1078C58.2906 17.2244 57.6465 18.3405 57.0022 19.4565C56.4985 20.3289 55.9955 21.2016 55.4945 22.0755C55.2579 22.4883 55.0209 22.9008 54.7839 23.3133C54.6168 23.6045 54.4501 23.896 54.2835 24.1874C54.1821 24.3638 54.0808 24.5402 53.9763 24.7219C53.8874 24.877 53.7985 25.0322 53.707 25.1921C53.4704 25.5803 53.2166 25.9389 52.937 26.2969C51.9368 26.1309 50.9794 25.7923 50.0165 25.4822C45.547 24.0967 40.3641 24.3644 36.0443 26.1499C35.5341 26.3107 35.3754 26.3252 34.8902 26.1251C34.6321 25.7978 34.6321 25.7978 34.3873 25.363C34.2477 25.1193 34.2477 25.1193 34.1054 24.8707C34.0063 24.6926 33.9073 24.5146 33.8052 24.3311C33.7001 24.1464 33.5949 23.9617 33.4866 23.7714C33.2635 23.3795 33.0412 22.987 32.8198 22.5942C32.3932 21.8395 31.9594 21.0892 31.5251 20.339C31.2014 19.78 30.8788 19.2203 30.5564 18.6606C29.9103 17.5391 29.2636 16.418 28.6167 15.2969C28.0081 14.2421 27.3995 13.1873 26.7914 12.1321C26.5546 11.7212 26.3177 11.3103 26.0808 10.8994C25.9139 10.6099 25.7472 10.3204 25.5804 10.0309C25.4283 9.7672 25.4283 9.7672 25.2732 9.49817C25.1843 9.34389 25.0954 9.18962 25.0038 9.03067C24.8293 8.73084 24.6433 8.43749 24.4483 8.15057C24.2339 7.73443 24.2339 7.73443 24.2486 7.3593C24.4513 6.95655 24.6204 6.87338 25.0295 6.68976C25.1628 6.62922 25.296 6.56867 25.4333 6.5063C25.6531 6.41233 25.6531 6.41233 25.8775 6.31647C26.0303 6.24983 26.1831 6.1832 26.3405 6.11455C31.5919 3.87784 37.1046 2.75396 42.7999 2.56677Z" fill="#2966DC"/>
<path d="M19.9375 9.79688C20.0337 9.97235 20.1298 10.1478 20.2289 10.3286C21.1616 12.0228 22.1226 13.6986 23.1005 15.367C23.8887 16.7135 24.6653 18.0662 25.4375 19.4219C26.3134 20.9595 27.197 22.4923 28.0908 24.0195C28.3783 24.5122 28.6656 25.005 28.9529 25.4978C29.1265 25.7952 29.3006 26.0922 29.4752 26.3889C29.7029 26.7763 29.9284 27.1648 30.1533 27.5537C30.2193 27.6648 30.2853 27.7758 30.3534 27.8902C30.5044 28.1539 30.6369 28.4279 30.7656 28.7031C30.5571 29.3287 30.3414 29.451 29.8203 29.8418C26.7962 32.2139 24.6048 35.482 23.2354 39.0586C23.1897 39.1749 23.144 39.2911 23.0969 39.4109C22.5364 40.9655 22.3294 42.5251 22 44.1719C14.74 44.1719 7.48 44.1719 0 44.1719C0 41.8457 0 41.8457 0.114136 41.0694C0.139795 40.8947 0.165454 40.7201 0.191891 40.5401C0.235157 40.2694 0.235157 40.2694 0.279297 39.9932C0.309803 39.8003 0.340308 39.6074 0.371738 39.4086C2.09544 29.0138 7.73041 18.8406 16.1562 12.375C16.274 12.284 16.3917 12.193 16.5129 12.0993C19.4921 9.79688 19.4921 9.79688 19.9375 9.79688Z" fill="#2966DC"/>
<path d="M68.0625 9.79688C68.9334 10.0719 69.576 10.5968 70.2861 11.1504C70.4797 11.3003 70.4797 11.3003 70.6771 11.4533C73.5099 13.6637 76.1747 16.0511 78.375 18.9062C78.5494 19.1255 78.724 19.3445 78.8987 19.5635C80.2459 21.2689 81.4253 23.0335 82.5 24.9219C82.5738 25.0507 82.6475 25.1796 82.7235 25.3124C85.9246 30.9691 88 37.6547 88 44.1719C80.74 44.1719 73.48 44.1719 66 44.1719C65.7731 43.0375 65.5463 41.9031 65.3125 40.7344C63.8139 36.1188 61.2927 31.8667 57.2344 29.0469C57.4505 28.3406 57.7121 27.7313 58.085 27.0945C58.1869 26.9192 58.2889 26.744 58.3939 26.5634C58.504 26.3762 58.6141 26.189 58.7275 25.9961C58.8436 25.7972 58.9595 25.5982 59.0753 25.3992C59.3158 24.9862 59.5567 24.5734 59.798 24.1609C60.3512 23.2138 60.8979 22.263 61.4453 21.3125C61.6601 20.9401 61.875 20.5677 62.0898 20.1953C62.1962 20.011 62.3025 19.8266 62.4121 19.6367C63.3789 17.9609 63.3789 17.9609 63.7018 17.4013C63.9147 17.0323 64.1275 16.6633 64.3404 16.2942C64.8459 15.4179 65.3516 14.5416 65.8576 13.6657C66.0979 13.2498 66.3381 12.8338 66.5783 12.4179C66.7488 12.1227 66.9194 11.8275 67.09 11.5324C67.1925 11.3549 67.2949 11.1775 67.4005 10.9946C67.4912 10.8377 67.5819 10.6807 67.6754 10.519C67.8104 10.2816 67.9404 10.0411 68.0625 9.79688Z" fill="#2966DC"/>
<path d="M48.4625 42.5787C48.721 42.7717 48.721 42.7717 48.9848 42.9687C49.0771 43.0367 49.1693 43.1046 49.2643 43.1746C50.3938 44.0087 51.4745 44.885 52.5063 45.8389C52.7375 46.0507 52.9699 46.2614 53.2091 46.4641C54.3329 47.4197 55.3661 48.4647 56.4067 49.5088C56.7292 49.8323 57.0526 50.1548 57.3762 50.4772C58.3972 51.4977 59.3941 52.5236 60.3286 53.625C60.607 53.9302 60.8862 54.2346 61.1665 54.5381C62.26 55.7366 63.2692 56.9989 64.2817 58.2656C64.225 58.379 64.1683 58.4925 64.1098 58.6094C42.2695 54.435 42.2695 54.435 39.1665 50.1767C38.2395 48.7219 37.914 47.0815 38.2574 45.3965C38.6974 43.8142 39.5178 42.6535 40.9201 41.7797C43.6206 40.3796 46.0102 40.8349 48.4625 42.5787Z" fill="#2966DC"/>
</g>
<defs>
<clipPath id="clip0_1_204">
<rect width="88" height="88" fill="white"/>
</clipPath>
</defs>
</svg>
